<?xml version="1.0" encoding="UTF-8"?>
<svg version="1.1" xmlns="http://www.w3.org/2000/svg" width="303" height="386">
<path d="M0 0 C99.99 0 199.98 0 303 0 C303 127.38 303 254.76 303 386 C203.01 386 103.02 386 0 386 C0 258.62 0 131.24 0 0 Z " fill="#063A60" transform="translate(0,0)"/>
<path d="M0 0 C99.99 0 199.98 0 303 0 C303 127.38 303 254.76 303 386 C203.01 386 103.02 386 0 386 C0 258.62 0 131.24 0 0 Z M122 17 C121.64406035 20.73736632 121.67943804 22.52468399 123.8125 25.6875 C127.95993755 31.96790544 129.17749492 39.59745432 130 47 C128.02 47 126.04 47 124 47 C123.773125 46.113125 123.54625 45.22625 123.3125 44.3125 C120.67685496 37.66063394 115.45722334 34.85408302 109.3125 31.9375 C108.60569092 31.59460937 107.89888184 31.25171875 107.1706543 30.8984375 C97.03989006 25.6455409 97.03989006 25.6455409 86 24 C85.22197813 26.3015411 85.22197813 26.3015411 85 29 C86.19546354 31.3450486 86.19546354 31.3450486 88 33 C88.66 33 89.32 33 90 33 C90.23460938 33.6290625 90.46921875 34.258125 90.7109375 34.90625 C91.78497955 37.48395092 92.93534802 39.96354346 94.1640625 42.46875 C94.76347656 43.69658203 94.76347656 43.69658203 95.375 44.94921875 C96.20985187 46.65283836 97.05103209 48.35337102 97.8984375 50.05078125 C98.49398437 51.27861328 98.49398437 51.27861328 99.1015625 52.53125 C99.46588379 53.26923828 99.83020508 54.00722656 100.20556641 54.76757812 C101.13304216 57.37385909 101.29691223 59.25202997 101 62 C99.30992119 64.24372532 97.69822594 66.13711552 95.75 68.125 C95.25886719 68.64964844 94.76773438 69.17429688 94.26171875 69.71484375 C92.18965264 71.89742005 90.24883419 73.84310793 87.6953125 75.453125 C85.08381533 77.83596574 85.37282435 80.17798865 85.125 83.625 C84.13258214 92.06055181 81.15357208 97.41795899 74.8125 103 C72 105 72 105 69 106 C68.85304688 104.94425781 68.85304688 104.94425781 68.703125 103.8671875 C67.81473967 98.00078094 66.67503687 92.24538532 65.1875 86.5 C64.74470703 84.78296875 64.74470703 84.78296875 64.29296875 83.03125 C62.52692335 78.89091396 59.96562776 76.98281388 56 75 C45.83666431 73.42293067 36.54038282 79.08963835 28.4375 84.80859375 C26.49728373 86.44944071 24.74381984 88.1533606 23 90 C22.4121875 90.56847656 21.824375 91.13695313 21.21875 91.72265625 C10.35894651 102.93969012 5.0457459 119.56859132 4.5 134.9375 C4.90370232 147.1738564 8.58531752 158.81716567 13.2421875 170.046875 C14.14774425 173.57574562 13.67398317 174.83271757 12 178 C8.13198414 186.66435553 6.12822413 195.2930896 9.3125 204.5625 C10.1478125 206.2640625 10.1478125 206.2640625 11 208 C11.99 208.33 12.98 208.66 14 209 C13.896875 210.11375 13.79375 211.2275 13.6875 212.375 C13.72212459 218.89596535 16.64453247 224.2195242 20.796875 229.12109375 C24.96519529 233.13101787 28.32824948 234.80916068 34.1171875 235.22265625 C34.73851563 235.47917969 35.35984375 235.73570312 36 236 C36.98046875 238.55859375 36.98046875 238.55859375 38 242 C47.05970667 260.5305547 61.06567719 279.39096397 79 290 C79.969375 290.61875 80.93875 291.2375 81.9375 291.875 C83.90107048 293.15961738 83.90107048 293.15961738 86 293 C86.10054688 293.85851562 86.20109375 294.71703125 86.3046875 295.6015625 C88.4005841 305.84555151 95.37796798 316.02882177 103.88671875 322.0390625 C106.55901532 323.75672304 109.25074144 325.40910897 112 327 C103.01693377 330.89831176 93.38203681 332.60458865 84 329 C76.29287351 325.20782095 67.88602021 317.77204042 64 310 C66.64 309.67 69.28 309.34 72 309 C72.33 306.69 72.66 304.38 73 302 C68.30071929 298.72790825 63.61835913 295.76472737 58.5 293.1875 C51.24210388 289.30442392 45.72767222 283.86161136 41.3125 276.9375 C39.27866404 273.71485263 39.27866404 273.71485263 35.875 273.3125 C32.93287906 273.75098286 32.93287906 273.75098286 31.1875 275.8125 C25.07074992 287.08019752 28.50756007 305.45033603 31.8515625 317.30078125 C34.16381274 326.33540562 34.16381274 326.33540562 39 334 C41.58354218 334.16687448 41.58354218 334.16687448 44 334 C44.33 332.35 44.66 330.7 45 329 C45.66 329 46.32 329 47 329 C47.11601563 329.73992187 47.23203125 330.47984375 47.3515625 331.2421875 C50.23833765 343.51967698 63.4099493 353.58578216 73.67041016 359.99682617 C95.64852297 373.0685221 121.8981508 374.42179053 146.8125 374.3125 C147.68164032 374.31067719 148.55078064 374.30885437 149.44625854 374.30697632 C177.57587175 374.20793406 205.59988955 371.34656655 227 351 C232.98143743 344.69193117 236.81240514 338.06093701 240 330 C242.23143965 330.42575506 244.46009775 330.86610387 246.6875 331.3125 C247.92886719 331.55613281 249.17023438 331.79976563 250.44921875 332.05078125 C254 333 254 333 256.70703125 334.73046875 C257.84205078 335.35888672 257.84205078 335.35888672 259 336 C261.30287793 335.30859649 261.30287793 335.30859649 263 334 C264.24721847 318.56220692 260.31091318 302.50322626 251 290 C249.08104738 287.89215719 247.0661125 285.96772619 245 284 C244.2734375 281.90625 244.2734375 281.90625 244 280 C245.88474003 278.11525997 249.02746402 278.30668 251.5625 277.9375 C252.76003906 277.76089844 253.95757812 277.58429688 255.19140625 277.40234375 C256.11824219 277.26957031 257.04507813 277.13679688 258 277 C256.32857344 263.64848543 247.15174623 253.17127131 237 245 C233.90627555 242.9616962 230.78066482 241.15175053 227.5234375 239.390625 C220.42823073 235.48057297 217.55182483 228.96938823 214 222 C219.44763968 218.46639588 224.70121357 218.0439342 231 219 C234.99831492 221.14195442 236.35264057 222.30996739 237.953125 226.48828125 C238.47108032 228.24272795 238.94277389 230.01173197 239.359375 231.79296875 C239.86057169 234.18188162 239.86057169 234.18188162 242 236 C244.7122261 235.81408128 245.73914172 235.29085699 247.5625 233.2578125 C248.036875 232.55398437 248.51125 231.85015625 249 231.125 C251.04349247 228.11529098 252.85313713 225.88695652 256 224 C260.86091055 223.1096352 264.93052803 223.48506905 269.375 225.625 C273.27612342 229.15458786 276.07343193 232.77146843 277 238 C277.08220526 240.38943295 277.10745472 242.78104847 277.09765625 245.171875 C277.09553383 246.1955014 277.09553383 246.1955014 277.09336853 247.23980713 C277.08779084 249.40991684 277.07524254 251.5799217 277.0625 253.75 C277.05748211 255.22525892 277.05291971 256.70051947 277.04882812 258.17578125 C277.03782875 261.78388798 277.02057953 265.39193375 277 269 C287.28649689 263.29230005 290.90208144 247.71743149 294 237 C301.00843581 210.68916391 300.35408984 180.88882258 292 155 C291.68675781 153.87980469 291.37351562 152.75960937 291.05078125 151.60546875 C286.08780536 134.87156863 277.38228812 118.25505948 266 105 C265.28457031 104.14792969 264.56914062 103.29585938 263.83203125 102.41796875 C250.37929715 86.91756185 229.92048027 70.03339768 209 66 C206.08015529 66.17570831 206.08015529 66.17570831 204 67 C202.40942142 69.5031287 202.40942142 69.5031287 202 73 C203.05335127 75.03295569 203.05335127 75.03295569 204.625 77.0625 C208.70887166 82.62549602 210.30519933 88.37144628 212 95 C212.45052734 96.6396875 212.45052734 96.6396875 212.91015625 98.3125 C217.23025519 115.67326971 216.36492115 133.78704491 207.1484375 149.4609375 C206 151 206 151 204 152 C203.6596875 151.49210938 203.319375 150.98421875 202.96875 150.4609375 C199.27395724 145.21354565 195.32146114 141.56564909 190 138 C192.68921744 136.20718837 194.87531209 135.22822868 197.875 134.125 C201.82820275 132.58764337 204.86386716 130.92705732 208 128 C206.78763631 119.64816126 203.65289778 112.70845484 196.90234375 107.328125 C194.97054264 106.10043831 193.05043513 105.01464831 191 104 C190.26136719 103.62875 189.52273437 103.2575 188.76171875 102.875 C188.18035156 102.58625 187.59898437 102.2975 187 102 C187.85464844 101.72285156 188.70929688 101.44570312 189.58984375 101.16015625 C190.69457031 100.79792969 191.79929688 100.43570313 192.9375 100.0625 C194.59072266 99.52302734 194.59072266 99.52302734 196.27734375 98.97265625 C198.88123475 98.26143332 198.88123475 98.26143332 200 97 C200.07179964 95.48071962 200.08392007 93.95832518 200.0625 92.4375 C200.05347656 91.61121094 200.04445312 90.78492187 200.03515625 89.93359375 C200.02355469 89.29550781 200.01195312 88.65742187 200 88 C188.83022155 81.77613083 188.83022155 81.77613083 177 77 C178.11375 76.2265625 178.11375 76.2265625 179.25 75.4375 C186.71551646 68.82033768 190.57054099 56.74864166 191.19140625 46.9921875 C191.36858821 36.99912497 190.77389845 27.99088815 185.4140625 19.36328125 C183.84742429 17.53729203 183.84742429 17.53729203 180 18 C179.56300781 19.68416016 179.56300781 19.68416016 179.1171875 21.40234375 C176.39706732 31.48265674 173.51068988 41.1914481 165 48 C162.75 48.75 162.75 48.75 161 49 C160.731875 48.12085937 160.46375 47.24171875 160.1875 46.3359375 C155.39638196 32.87667828 145.38856177 25.09803526 132.8515625 19.12109375 C129.134129 17.65958222 125.97779128 17.15299197 122 17 Z " fill="#FCF9EF" transform="translate(0,0)"/>
<path d="M0 0 C1.52850586 0.00193359 1.52850586 0.00193359 3.08789062 0.00390625 C8.034119 0.06213523 11.75018637 0.31916478 16.3125 2.375 C16.27769531 3.18324219 16.24289063 3.99148437 16.20703125 4.82421875 C16.16642578 6.42716797 16.16642578 6.42716797 16.125 8.0625 C16.09019531 9.11824219 16.05539063 10.17398438 16.01953125 11.26171875 C16.37096755 14.99631521 16.84009259 16.53526349 19.3125 19.375 C20.75661454 20.00428574 22.22204513 20.58561468 23.69921875 21.1328125 C28.40755004 23.04131204 30.00387708 25.23040206 32.1015625 29.77270508 C32.60816406 30.99896606 32.60816406 30.99896606 33.125 32.25 C33.49753906 33.09264404 33.87007813 33.93528809 34.25390625 34.8034668 C39.4109007 46.77554744 42.46204216 58.61678954 42.48046875 71.671875 C42.48456757 72.57077957 42.48866638 73.46968414 42.4928894 74.39582825 C42.50243654 77.30559114 42.50241966 80.21522374 42.5 83.125 C42.50039276 84.11088104 42.50078552 85.09676208 42.50119019 86.11251831 C42.48216221 125.86601338 42.48216221 125.86601338 39.3125 135.375 C58.4569821 128.86005267 67.99308235 120.50038127 77.3125 102.375 C77.66231934 101.7051709 78.01213867 101.0353418 78.37255859 100.34521484 C91.08993398 75.73521903 91.69978132 53.22776761 84.3125 26.375 C83.67346883 24.69754318 83.0155814 23.02663518 82.3125 21.375 C87.10309 22.77408668 91.20130284 24.8492034 95.4375 27.4375 C96.09202148 27.83598145 96.74654297 28.23446289 97.42089844 28.64501953 C127.42204483 47.18972426 144.09312283 74.60430152 152.125 108.5 C153.82815398 115.81163339 155.44905738 122.88286917 155.41015625 130.4296875 C155.40693359 131.53828125 155.40371094 132.646875 155.40039062 133.7890625 C155.39201172 134.93117187 155.38363281 136.07328125 155.375 137.25 C155.37048828 138.4153125 155.36597656 139.580625 155.36132812 140.78125 C155.34958781 143.64588645 155.3331657 146.51041633 155.3125 149.375 C154.9825 149.375 154.6525 149.375 154.3125 149.375 C154.22798584 148.73288574 154.14347168 148.09077148 154.05639648 147.42919922 C149.87931301 116.62218278 140.75085035 86.40818077 120.3125 62.375 C119.83232422 61.80974609 119.35214844 61.24449219 118.85742188 60.66210938 C111.24565453 51.81975644 103.35891433 45.3638678 93.3125 39.375 C93.6425 40.365 93.9725 41.355 94.3125 42.375 C94.46912704 44.87205629 94.57187077 47.34039617 94.62109375 49.83984375 C94.63653732 50.58074249 94.6519809 51.32164124 94.66789246 52.08499146 C94.94213558 68.27283327 95.18068837 83.36771208 88.3125 98.375 C87.94801758 99.18163086 87.58353516 99.98826172 87.20800781 100.81933594 C82.17549337 111.65374673 76.11457136 121.32565872 68.3125 130.375 C67.71953125 131.06851563 67.1265625 131.76203125 66.515625 132.4765625 C61.86582483 137.50277507 56.16281281 140.89443415 50.3125 144.375 C51.74940331 147.72283658 53.51389432 149.67664315 56.1875 152.125 C66.60319151 162.372967 74.47263808 174.19262843 80.45410156 187.47412109 C81.27519569 189.29239153 82.13288896 191.09400106 82.9921875 192.89453125 C92.2819191 213.1147182 95.26440187 237.20423805 88.75390625 258.77734375 C81.23808266 277.53635059 66.91481637 292.16377811 48.32421875 300.15625 C44.37784722 301.74959395 40.37468668 303.10984972 36.3125 304.375 C35.23355469 304.7153125 34.15460938 305.055625 33.04296875 305.40625 C23.84708179 307.90475514 14.75604446 307.66116801 5.3125 307.375 C4.79317713 297.84254024 4.79317713 297.84254024 8.125 294 C8.64707031 293.37351562 9.16914063 292.74703125 9.70703125 292.1015625 C11.20784315 290.48755067 12.73768628 288.91670953 14.3125 287.375 C9.55706645 287.79459708 6.43703113 289.88994605 3.3125 293.375 C0.43322662 297.80324956 -1.15875138 302.08751378 -1.6875 307.375 C-7.83984375 307.47265625 -7.83984375 307.47265625 -9.6875 307.375 C-10.6875 306.375 -10.6875 306.375 -11.125 302.5 C-11.01385754 293.7614239 -5.24641078 286.54729448 0.30859375 280.2265625 C6.03708183 274.93357351 9.9240104 272.61580473 17.8359375 272.921875 C18.62271881 272.93132141 19.40950012 272.94076782 20.22012329 272.95050049 C22.71034132 272.98485174 25.19809344 273.0536399 27.6875 273.125 C30.19798901 273.17493132 32.70846311 273.21780509 35.21914673 273.25665283 C36.7762491 273.28311484 38.33324193 273.31736428 39.88998413 273.36004639 C41.69700894 273.40201748 43.50508436 273.39367992 45.3125 273.375 C45.6425 273.045 45.9725 272.715 46.3125 272.375 C45.51585937 272.14425781 44.71921875 271.91351563 43.8984375 271.67578125 C35.80214725 269.18385736 30.97736733 267.2242528 26.0625 260.125 C22.14866784 252.55825783 20.46339176 242.37409549 23 234.14453125 C23.95890399 232.07889223 25.03404056 230.25862363 26.3125 228.375 C26.71339844 227.76914062 27.11429687 227.16328125 27.52734375 226.5390625 C32.84049066 219.48566748 41.72062106 214.93715981 50.3125 213.375 C57.51981057 212.7008468 63.53198995 213.95132832 70.3125 216.375 C66.9626164 210.98605682 63.11765008 209.95725085 57.3125 208.375 C56.3225 208.045 55.3325 207.715 54.3125 207.375 C55.99147634 203.00966152 58.03826555 198.92389661 60.19140625 194.77734375 C62.24136116 190.38458322 62.44861483 186.72106587 62.4375 181.875 C62.44007813 180.7509375 62.44265625 179.626875 62.4453125 178.46875 C62.33516367 175.9029301 62.06520662 173.81233573 61.3125 171.375 C61.21775391 172.55642578 61.21775391 172.55642578 61.12109375 173.76171875 C59.75476516 185.91485204 54.58339579 197.1571877 45.3125 205.375 C36.58924595 211.99849732 25.57991318 216.16553975 14.546875 215.71484375 C11.09252294 215.18944405 8.40294358 213.98740535 5.3125 212.375 C5.3125 211.715 5.3125 211.055 5.3125 210.375 C4.384375 211.014375 3.45625 211.65375 2.5 212.3125 C-2.50922874 215.55376566 -5.8959297 215.65078906 -11.6875 215.375 C-13.6875 213.375 -13.6875 213.375 -14.1875 210 C-13.6875 206.375 -13.6875 206.375 -11 203.9375 C-7.81092912 202.43322128 -6.13388227 201.96954326 -2.6875 202.375 C-3.3475 201.385 -4.0075 200.395 -4.6875 199.375 C-8.8819205 199.10439223 -12.66292684 199.03347561 -16.6875 200.375 C-15.04838911 194.5015193 -12.797384 190.78158933 -7.6875 187.375 C-1.86459219 186.86421861 2.5327194 187.85198944 8.015625 189.81640625 C11.43839671 190.64881502 13.36337571 189.84265942 16.4609375 188.31640625 C22.76280833 184.4136687 26.10312497 180.01472342 29.3125 173.375 C29.69535156 172.59253906 30.07820313 171.81007812 30.47265625 171.00390625 C31.52363046 167.71411255 31.44706682 164.80645387 31.3125 161.375 C30.86519531 162.24382812 30.41789062 163.11265625 29.95703125 164.0078125 C21.44806886 180.22745509 21.44806886 180.22745509 13.3125 184.375 C7.10655265 185.08715789 2.04298879 183.79509702 -3.6875 181.375 C-4.0175 181.045 -4.3475 180.715 -4.6875 180.375 C-4.17026064 171.06469145 -0.98840698 163.19547071 4 155.375 C16.46846621 135.78834226 25.17290304 113.20126629 26.00390625 89.8828125 C26.3125 86.375 26.3125 86.375 27.32421875 82.8671875 C29.5499242 75.00244178 29.22763594 66.02723185 26.3125 58.375 C25.6525 58.375 24.9925 58.375 24.3125 58.375 C24.47105469 58.90609375 24.62960938 59.4371875 24.79296875 59.984375 C26.31831776 67.00327419 26.60553501 75.23216322 22.66503906 81.46655273 C17.7681565 88.37610707 12.88873804 91.48466036 4.75 93.5625 C-4.93539722 96.15991302 -10.69055854 99.99616447 -17.3125 107.5 C-18.424086 108.7575777 -19.54110614 110.01037748 -20.6640625 111.2578125 C-21.14955566 111.80840332 -21.63504883 112.35899414 -22.13525391 112.92626953 C-23.90189543 114.57509791 -25.43704319 115.49697063 -27.6875 116.375 C-33.77124384 116.05480296 -33.77124384 116.05480296 -36.625 113.9375 C-37.6875 112.375 -37.6875 112.375 -37.6875 110.375 C-37.09582031 110.13265625 -36.50414062 109.8903125 -35.89453125 109.640625 C-29.61570152 106.97749983 -25.08581425 104.47672712 -21.1875 98.75 C-18.48218385 94.98336752 -15.27979342 92.39147953 -11.5625 89.6875 C-5.43344786 85.21125568 -0.45335267 80.1307898 4.55859375 74.453125 C12.57132139 65.44672696 12.57132139 65.44672696 17.1875 65 C18.21875 65.12375 19.25 65.2475 20.3125 65.375 C19.9825 64.385 19.6525 63.395 19.3125 62.375 C9.81225989 61.98927597 3.65023721 62.07291815 -4.0625 67.875 C-10.55866179 72.62274188 -17.71965653 73.57539631 -25.5 74.75 C-38.53711718 76.76949599 -49.40882636 81.17749607 -58.25 91.3125 C-58.724375 91.993125 -59.19875 92.67375 -59.6875 93.375 C-63.53795216 92.82493541 -65.28349127 91.39939808 -67.6875 88.375 C-71.15662682 80.8994922 -73.6425276 72.13362092 -70.8984375 64.05078125 C-67.30353691 56.62772317 -63.32991852 54.65276041 -55.6953125 51.75390625 C-47.77742233 48.12401634 -44.73625395 42.25592933 -41.6875 34.375 C-41.32971718 31.98815217 -41.32971718 31.98815217 -41.3125 29.75 C-41.02252032 23.61581452 -36.66865233 19.69044756 -32.6875 15.375 C-31.8625 14.4675 -31.0375 13.56 -30.1875 12.625 C-26.85608468 9.62672621 -23.45084535 6.81524549 -19.6875 4.375 C-19.14843018 4.02501953 -18.60936035 3.67503906 -18.05395508 3.31445312 C-12.12202789 -0.12275259 -6.73533785 -0.16375102 0 0 Z " fill="#0979A4" transform="translate(133.6875,57.625)"/>
<path d="M0 0 C0.66 0 1.32 0 2 0 C2.01417969 0.59683594 2.02835938 1.19367188 2.04296875 1.80859375 C2.97792535 18.81469631 9.62012744 34.29491853 19.84375 47.7734375 C20.91109375 49.37058594 20.91109375 49.37058594 22 51 C20.65709609 55.02871174 18.48692446 55.67538369 15 58 C10.855213 62.59287208 9.63694992 66.00324476 9.71972656 72.2409668 C10.79586897 82.8345951 15.39787928 93.17942207 19.5625 102.875 C19.82189362 103.48051697 20.08128723 104.08603394 20.34854126 104.7098999 C24.79982338 115.02257659 29.91700254 124.27278412 37 133 C37.75925781 133.95648438 38.51851562 134.91296875 39.30078125 135.8984375 C45.99412603 143.81631961 54.14157199 149.24084597 62.875 154.6875 C66.75472888 157.12129863 69.97443159 159.51601213 73 163 C73.763125 163.86625 74.52625 164.7325 75.3125 165.625 C77 168 77 168 77 171 C77.66 171 78.32 171 79 171 C79.01417969 171.66386719 79.02835937 172.32773437 79.04296875 173.01171875 C79.33243065 179.02487049 79.33243065 179.02487049 82.5625 184 C83.366875 184.66 84.17125 185.32 85 186 C85 186.66 85 187.32 85 188 C72.61612786 190.57465383 56.34490319 191.76408137 45.3125 184.8046875 C30.98776607 173.62558771 18.86571541 155.71561716 12 139 C12.598125 138.360625 13.19625 137.72125 13.8125 137.0625 C17.97653051 131.23285729 19.80386528 125.17232064 18.7265625 118.01953125 C17.44684937 114.46247916 15.09729884 113.04289923 12 111 C12.33 110.34 12.66 109.68 13 109 C13.4757401 105.59755499 13.6011194 102.3900968 13 99 C12.01 98.195625 11.02 97.39125 10 96.5625 C7 94 7 94 6.77734375 91.43359375 C6.83019531 90.46550781 6.88304688 89.49742187 6.9375 88.5 C7.17603221 83.99618583 7.17603221 83.99618583 5.1875 79.9375 C0.68402509 77.20009368 -3.81800283 76.6080452 -9 76 C-16.16135635 59.64945425 -19.68916082 41.76213687 -14.4375 24.1875 C-10.83457415 15.60180436 -5.79509175 7.2852582 0 0 Z " fill="#D92D27" transform="translate(31,93)"/>
<path d="M0 0 C-0.29648438 0.73992187 -0.59296875 1.47984375 -0.8984375 2.2421875 C-1.26195312 3.15226562 -1.62546875 4.06234375 -2 5 C-2.28101563 5.68320312 -2.56203125 6.36640625 -2.8515625 7.0703125 C-6.33072364 16.3129325 -5.89782828 24.97062715 -2 34 C-1.63648438 34.68191406 -1.27296875 35.36382812 -0.8984375 36.06640625 C0 38 0 38 0 41 C-0.76183594 41.14695312 -1.52367187 41.29390625 -2.30859375 41.4453125 C-12.75336733 43.71421463 -20.95305357 47.9631745 -27 57 C-31.29566066 64.34894887 -34.13856708 71.70519364 -36 80 C-52.16540829 81.46958257 -71.93250759 72.68624651 -84.27734375 62.5390625 C-84.84582031 62.03117187 -85.41429688 61.52328125 -86 61 C-86.66128906 60.43023437 -87.32257813 59.86046875 -88.00390625 59.2734375 C-95.80363977 52.08051436 -101.67732288 42.41886596 -104 32 C-104 31.01 -104 30.02 -104 29 C-104.99 29.33 -105.98 29.66 -107 30 C-108.02700444 32.32891096 -108.02700444 32.32891096 -108.6875 35.0625 C-108.93886719 35.98160156 -109.19023438 36.90070313 -109.44921875 37.84765625 C-109.63097656 38.55792969 -109.81273437 39.26820313 -110 40 C-114.75844569 35.24155431 -115.18512504 27.10781776 -115.29296875 20.67578125 C-115.27338757 18.55448654 -115.23814938 16.43328035 -115.1875 14.3125 C-115.17396484 13.21744141 -115.16042969 12.12238281 -115.14648438 10.99414062 C-115.11156837 8.32888586 -115.06253717 5.66472496 -115 3 C-114.34 3 -113.68 3 -113 3 C-111.8606503 4.1393497 -110.72495054 5.2825292 -109.60546875 6.44140625 C-103.79723793 12.08005369 -97.17258445 16.32044722 -90 20 C-90 20.33 -90 20.66 -90 21 C-92.31 21.33 -94.62 21.66 -97 22 C-90.57101865 37.57415848 -84.94960748 49.31306592 -70 58 C-61.52235823 60.82588059 -53.02879713 59.33165674 -45.1171875 55.6171875 C-44.08851562 55.08351563 -43.05984375 54.54984375 -42 54 C-41.41508789 53.6999707 -40.83017578 53.39994141 -40.22753906 53.09082031 C-29.4108486 47.55443497 -29.4108486 47.55443497 -21 39 C-20.31338633 36.88273313 -20.31338633 36.88273313 -20 35 C-20.76054687 34.96003906 -21.52109375 34.92007813 -22.3046875 34.87890625 C-25 34 -25 34 -26.6953125 31.33984375 C-27.16710937 30.21707031 -27.63890625 29.09429687 -28.125 27.9375 C-28.62515625 26.75929688 -29.1253125 25.58109375 -29.640625 24.3671875 C-30.08921875 23.25601562 -30.5378125 22.14484375 -31 21 C-31.34546875 20.19820313 -31.6909375 19.39640625 -32.046875 18.5703125 C-33.71240087 14.5321979 -34.10953672 11.32670046 -34 7 C-22.38770383 1.60142419 -12.95813864 -2.74609561 0 0 Z " fill="#0979A4" transform="translate(151,282)"/>
<path d="M0 0 C-1.98422037 7.73845944 -6.40787435 14.47889279 -13 19 C-16.19698205 20.41952455 -19.50500604 21.52601895 -22.82421875 22.62304688 C-25.05144722 23.38423085 -25.05144722 23.38423085 -28 25 C-29.07193439 27.57840793 -29.07193439 27.57840793 -29 30 C-27.29711802 31.13323463 -25.58741477 32.25622235 -23.875 33.375 C-22.92367187 34.00148437 -21.97234375 34.62796875 -20.9921875 35.2734375 C-15.60525705 38.38182295 -10.23479157 39.97871728 -4 39 C4.45700672 35.76746644 9.84371302 27.92079569 15.5 21.23046875 C18 19 18 19 20.8125 18.67578125 C21.534375 18.78277344 22.25625 18.88976562 23 19 C15.2565095 36.49731025 -1.20077106 55.76681644 -18.8125 63.875 C-28.49260271 67.29150684 -38.59106156 67.1353802 -48 63 C-49.33886526 62.34451388 -50.67384677 61.6808376 -52 61 C-51.7834375 60.29875 -51.566875 59.5975 -51.34375 58.875 C-49.29831802 51.90537992 -47.78947084 46.15038568 -49.875 39 C-52.58957432 35.16765978 -55.86957823 32.71272327 -59.625 29.9296875 C-62.85159981 27.30807515 -64.6952584 25.24667018 -65.6875 21.1875 C-64.6194249 16.23551544 -61.05525878 13.81464424 -57 11 C-56.01 10.67 -55.02 10.34 -54 10 C-51.94921875 11.14453125 -51.94921875 11.14453125 -49.6875 12.8125 C-46.23832686 15.34670924 -43.27501375 17.30631852 -39 18 C-36.53885568 16.49766376 -34.7298248 15.1489146 -32.625 13.25 C-27.85887495 9.24037025 -24.34607592 6.74659717 -18 6 C-18 5.34 -18 4.68 -18 4 C-15.94037148 3.32451422 -13.87715678 2.65995688 -11.8125 2 C-10.66394531 1.62875 -9.51539063 1.2575 -8.33203125 0.875 C-5.35679188 0.09369447 -3.04716104 -0.18363306 0 0 Z " fill="#F9F6ED" transform="translate(114,139)"/>
<path d="M0 0 C2.36470547 1.97058789 4.69211449 3.96414662 7 6 C7.63679687 6.556875 8.27359375 7.11375 8.9296875 7.6875 C30.52038025 27.80412939 46.99581312 67.67518687 48.11352539 96.97607422 C48.10828857 97.9920166 48.10305176 99.00795898 48.09765625 100.0546875 C48.09443359 101.16328125 48.09121094 102.271875 48.08789062 103.4140625 C48.07532227 105.12722656 48.07532227 105.12722656 48.0625 106.875 C48.05798828 108.0403125 48.05347656 109.205625 48.04882812 110.40625 C48.03708781 113.27088645 48.0206657 116.13541633 48 119 C47.34 119 46.68 119 46 119 C45.484375 117.9275 44.96875 116.855 44.4375 115.75 C42.04355935 111.51126638 39.33414428 110.08681021 35 108 C34.01 107.505 34.01 107.505 33 107 C31.31707913 106.85040703 29.62681577 106.77851166 27.9375 106.75 C27.03902344 106.72421875 26.14054687 106.6984375 25.21484375 106.671875 C22.2808302 106.97133689 20.06585917 107.56833968 17.29907227 108.52050781 C16.49276871 108.7959845 15.68646515 109.07146118 14.85572815 109.35528564 C14.24333786 109.56804138 13.63094757 109.78079712 13 110 C13.00444122 109.27353775 13.00888245 108.5470755 13.01345825 107.79859924 C13.0539281 100.87261293 13.08418073 93.94664482 13.10362434 87.0205698 C13.11395727 83.46182171 13.12791828 79.90317322 13.15087891 76.34448242 C13.5923808 49.24015836 13.5923808 49.24015836 8.75 22.6875 C8.53964111 21.94822266 8.32928223 21.20894531 8.11254883 20.44726562 C6.38632765 14.66514681 4.05393775 9.47817426 1.13671875 4.1875 C0 2 0 2 0 0 Z " fill="#D92D28" transform="translate(236,108)"/>
<path d="M0 0 C0.66 0 1.32 0 2 0 C4.72058743 6.56992922 6.64389977 13.19892037 8.1875 20.125 C8.35411133 20.86411621 8.52072266 21.60323242 8.69238281 22.36474609 C10.56539745 31.05099571 11.15718628 39.57553834 11.16796875 48.44921875 C11.17296135 49.91183891 11.17296135 49.91183891 11.17805481 51.40400696 C11.18308979 53.45707736 11.1854642 55.51015585 11.18530273 57.56323242 C11.18748167 60.66143696 11.20565372 63.75928047 11.22460938 66.85742188 C11.25359466 77.42813366 11.00094022 87.58490775 9 98 C8.34 98 7.68 98 7 98 C7 97.34 7 96.68 7 96 C6.2575 95.71125 5.515 95.4225 4.75 95.125 C2 94 2 94 0.18359375 92.953125 C-4.91243901 90.72873861 -11.42252764 91.19287424 -16.64453125 92.828125 C-18.82744674 93.79830966 -20.90983758 94.84535382 -23 96 C-24.98 96.99 -24.98 96.99 -27 98 C-30.63 94.37 -34.26 90.74 -38 87 C-36.22545829 83.45091659 -35.27208529 82.11304569 -32.5 79.5625 C-19.58807335 66.86071321 -10.5126543 51.2129818 -5 34 C-4.72671875 33.29359375 -4.4534375 32.5871875 -4.171875 31.859375 C-0.37928426 21.82016421 0.45139385 10.65791027 0 0 Z " fill="#D92D27" transform="translate(234,117)"/>
<path d="M0 0 C4.94809846 5.31920584 6.213113 13.47613047 5.99609375 20.625 C5.22185861 23.84386735 3.36001208 25.73444497 1.0078125 27.984375 C-3.08119314 32.60304459 -2.75182763 37.68056285 -2.625 43.5 C-2.61146484 44.68239258 -2.61146484 44.68239258 -2.59765625 45.88867188 C-2.57422504 47.82174666 -2.53835838 49.7546638 -2.5 51.6875 C-5.78337318 47.83853457 -8.2198315 43.8873901 -10.5625 39.4375 C-10.91320557 38.77435791 -11.26391113 38.11121582 -11.62524414 37.42797852 C-16.58162236 27.87515648 -18.68896562 19.07180581 -18.5625 8.3125 C-18.55798828 7.57644531 -18.55347656 6.84039062 -18.54882812 6.08203125 C-18.53715142 4.28381842 -18.51922011 2.48564803 -18.5 0.6875 C-12.75826265 -2.68206417 -6.09010426 -2.2837891 0 0 Z " fill="#DA2C27" transform="translate(58.5,86.3125)"/>
<path d="M0 0 C23.36788896 9.34715558 39.4616161 35.58859805 49.05224609 57.70019531 C59.58245514 83.25263458 59.58245514 83.25263458 57 91 C56.34 91 55.68 91 55 91 C55.33 91.66 55.66 92.32 56 93 C56.039992 94.99960012 56.04346799 97.00047242 56 99 C55.67 99 55.34 99 55 99 C54.82460693 98.26587891 54.64921387 97.53175781 54.46850586 96.77539062 C51.04689959 82.61457373 47.63114073 69.00859618 41 56 C40.62472168 55.24283691 40.24944336 54.48567383 39.86279297 53.70556641 C31.91663804 37.71388955 23.06372896 24.26796882 10 12 C10.45052734 12.92232422 10.45052734 12.92232422 10.91015625 13.86328125 C11.29042969 14.67152344 11.67070312 15.47976562 12.0625 16.3125 C12.44535156 17.11300781 12.82820312 17.91351563 13.22265625 18.73828125 C14 21 14 21 13 24 C12.67 23.67 12.34 23.34 12 23 C11.34 23.66 10.68 24.32 10 25 C9.67 23.35 9.34 21.7 9 20 C8.34 20 7.68 20 7 20 C7.33 20.66 7.66 21.32 8 22 C8.35294118 29.29411765 8.35294118 29.29411765 6 34 C5.67 29.71 5.34 25.42 5 21 C2.23776722 23.76223278 2.42143709 26.20706617 2 30 C1.67 30 1.34 30 1 30 C0.67 20.1 0.34 10.2 0 0 Z " fill="#063D63" transform="translate(227,97)"/>
<path d="M0 0 C5.32463644 0.30542848 9.77344285 3.02062295 14.3125 5.625 C13.81551652 10.98289042 12.49807777 14.75304302 9.875 19.4375 C9.25753906 20.55769531 8.64007813 21.67789063 8.00390625 22.83203125 C6.3125 25.625 6.3125 25.625 4.3125 27.625 C-4.15563525 29.28713398 -11.99188836 25.72985772 -19.6875 22.625 C-18.3809647 17.88094937 -16.54504162 14.80794413 -13.375 11.0625 C-12.61574219 10.15371094 -11.85648437 9.24492187 -11.07421875 8.30859375 C-4.33880872 0.73539131 -4.33880872 0.73539131 0 0 Z " fill="#D92D28" transform="translate(120.6875,195.375)"/>
<path d="M0 0 C0.88816406 0.16371094 1.77632813 0.32742187 2.69140625 0.49609375 C8.40994221 1.31302746 14.174698 1.10509035 19.9375 1.0625 C21.09830078 1.05798828 22.25910156 1.05347656 23.45507812 1.04882812 C26.30343934 1.03710647 29.15169222 1.0206976 32 1 C30.70727369 5.28547627 29.3720817 7.7599274 26.375 11.078125 C23.40005673 15.23628434 21.80708263 20.24775716 20 25 C12.86611385 20.75002527 8.69545054 14.7437432 4 8 C3.25105469 6.92621094 2.50210938 5.85242188 1.73046875 4.74609375 C0 2 0 2 0 0 Z " fill="#0878A3" transform="translate(64,209)"/>
<path d="M0 0 C2.3125 0.65234375 2.3125 0.65234375 5.3125 2.65234375 C3.25438547 9.94929528 -0.38684207 18.1518738 -6.6875 22.65234375 C-12.38809003 22.75990205 -16.82925893 20.36538746 -21.6875 17.65234375 C-17.63052539 8.3923565 -10.83936584 -1.15010713 0 0 Z " fill="#D92D28" transform="translate(144.6875,174.34765625)"/>
<path d="M0 0 C0.39832031 1.07378906 0.79664062 2.14757812 1.20703125 3.25390625 C1.74209782 4.69013758 2.27725914 6.12633362 2.8125 7.5625 C3.20405273 8.61920898 3.20405273 8.61920898 3.60351562 9.69726562 C4.88260747 13.12396846 6.2049364 16.50076838 7.69921875 19.83984375 C9 23 9 23 9 26 C0.65970451 25.58298523 -4.45554281 19.76406058 -9.8125 13.9375 C-17 5.88495575 -17 5.88495575 -17 2 C-15.29301718 1.65981837 -13.58432867 1.3281911 -11.875 1 C-10.92367187 0.814375 -9.97234375 0.62875 -8.9921875 0.4375 C-5.95041204 -0.00725046 -3.06942607 -0.07286471 0 0 Z " fill="#D72D29" transform="translate(111,291)"/>
<path d="M0 0 C8.36241922 0.01220791 16.31205897 3.60073727 24.0625 6.4375 C24.0625 7.4275 24.0625 8.4175 24.0625 9.4375 C23.0725 9.52386719 22.0825 9.61023438 21.0625 9.69921875 C13.41051273 10.47236206 7.1574059 11.40845203 1.0625 16.4375 C0.0725 17.200625 -0.9175 17.96375 -1.9375 18.75 C-2.5975 19.306875 -3.2575 19.86375 -3.9375 20.4375 C-5.5875 19.4475 -7.2375 18.4575 -8.9375 17.4375 C-7.8481599 0.87201777 -7.8481599 0.87201777 0 0 Z " fill="#D72D28" transform="translate(99.9375,222.5625)"/>
<path d="M0 0 C2.375 1.625 2.375 1.625 4 4 C4.5625 7.0625 4.5625 7.0625 4 10 C1.47203943 12.0074981 -1.1002555 13.04296664 -4.0625 14.3125 C-8.2311073 16.70723185 -10.30841358 19.80997632 -11.75 24.375 C-11.87375 25.179375 -11.87375 25.179375 -12 26 C-12.66 26 -13.32 26 -14 26 C-15.75260333 20.74219002 -15.7949163 15.46347234 -15 10 C-11.47050404 3.32906785 -7.82937056 -0.78293706 0 0 Z " fill="#087BA6" transform="translate(37,191)"/>
<path d="M0 0 C0.28139404 7.62890496 -0.58065027 13.7419508 -3 21 C-4.95803507 21.05389087 -6.91648909 21.09274217 -8.875 21.125 C-10.51082031 21.15980469 -10.51082031 21.15980469 -12.1796875 21.1953125 C-15 21 -15 21 -17 19 C-15.76766576 16.53533151 -14.53390402 14.07166939 -13.2890625 11.61328125 C-12.31040882 9.62928333 -11.41599618 7.60346914 -10.5625 5.5625 C-8.05181344 1.44497405 -4.75123219 0 0 0 Z " fill="#D82D29" transform="translate(155,151)"/>
<path d="M0 0 C0.66 0 1.32 0 2 0 C8.59525648 8.17983109 14 17.32426014 14 28 C10.04 27.67 6.08 27.34 2 27 C1.93941406 25.89140625 1.87882813 24.7828125 1.81640625 23.640625 C1.73197049 22.1770718 1.64732401 20.71353075 1.5625 19.25 C1.52318359 18.52039063 1.48386719 17.79078125 1.44335938 17.0390625 C1.22441568 12.97841055 1.22441568 12.97841055 0.48413086 8.99121094 C-0.24322779 5.99961379 -0.05890304 3.06295788 0 0 Z " fill="#D92D27" transform="translate(241,293)"/>
<path d="M0 0 C7.44278936 1.30662302 12.5468612 8.30868394 16.7734375 14.10546875 C19.44183743 18.2270419 20 19.79776728 20 25 C15.05 24.01 10.1 23.02 5 22 C4.9175 19.669375 4.835 17.33875 4.75 14.9375 C4.44621931 8.99107302 3.6293705 4.80013517 0 0 Z " fill="#D42E2B" transform="translate(132,28)"/>
<path d="M0 0 C0.33 1.65 0.66 3.3 1 5 C1.66 5 2.32 5 3 5 C3.45826062 10.7282577 2.55825861 13.4998494 -1 18 C-1.66 18.66 -2.32 19.32 -3 20 C-6 19.8125 -6 19.8125 -9 19 C-11.81172128 14.78241808 -11.9318711 10.95155239 -11 6 C-8.27535368 2.29748982 -4.58557322 0 0 0 Z " fill="#04395F" transform="translate(124,94)"/>
<path d="M0 0 C8.0413824 2.28956027 16.61807893 5.3792677 21 13 C20.90625 15.48046875 20.90625 15.48046875 20 18 C17.71484375 19.58203125 17.71484375 19.58203125 14.9375 20.8125 C14.01839844 21.23144531 13.09929687 21.65039062 12.15234375 22.08203125 C11.44207031 22.38496094 10.73179688 22.68789063 10 23 C9.68546875 22.05898438 9.3709375 21.11796875 9.046875 20.1484375 C8.61890625 18.90320313 8.1909375 17.65796875 7.75 16.375 C7.12351562 14.53035156 7.12351562 14.53035156 6.484375 12.6484375 C5.01723493 9.04236165 3.21038987 6.18771101 1 3 C0.67 2.01 0.34 1.02 0 0 Z " fill="#D82D28" transform="translate(98,36)"/>
<path d="M0 0 C0.99 0.66 1.98 1.32 3 2 C3 2.99 3 3.98 3 5 C2.278125 5.226875 1.55625 5.45375 0.8125 5.6875 C-4.35751019 8.10017142 -7.32452448 12.07149247 -10 17 C-13.87132028 16.42647107 -16.08172796 14.51295648 -19 12 C-18.45550236 8.20527027 -16.96207612 6.72968732 -14.0625 4.3125 C-13.35222656 3.71050781 -12.64195313 3.10851562 -11.91015625 2.48828125 C-8.20810721 -0.39613733 -4.57246472 -0.53420875 0 0 Z " fill="#D72D29" transform="translate(121,236)"/>
<path d="M0 0 C2.71738275 -0.19110239 4.47660482 -0.29706213 6.87890625 1.06640625 C10.96578865 4.69813701 13.55129781 8.10259562 16 13 C12.6805603 16.55654254 10.27270623 18.8414391 5.3125 19.1875 C3 19 3 19 2 18 C1.77486899 16.66197814 1.60639193 15.31426977 1.46484375 13.96484375 C1.37783203 13.15595703 1.29082031 12.34707031 1.20117188 11.51367188 C1.0706543 10.2384668 1.0706543 10.2384668 0.9375 8.9375 C0.80118164 7.65649414 0.80118164 7.65649414 0.66210938 6.34960938 C0.43749278 4.23348465 0.21824773 2.11679106 0 0 Z " fill="#D92D27" transform="translate(184,111)"/>
<path d="M0 0 C2.89907925 0.32211992 4.82381756 0.89048119 7.3125 2.4375 C9.85334265 6.29581662 9.87016306 10.50023786 9 15 C5.50875983 17.32749345 4.10777749 17.50299316 0 17 C-2.375 15.5 -2.375 15.5 -4 13 C-4.62388198 8.08692938 -4.75777063 6.13665594 -2 2 C-1.34 1.34 -0.68 0.68 0 0 Z " fill="#D82D28" transform="translate(158,59)"/>
<path d="M0 0 C2.3125 0.5625 2.3125 0.5625 5.3125 2.5625 C4.4375 9.3125 4.4375 9.3125 3.3125 11.5625 C1.7645567 12.12512346 0.19842204 12.63815641 -1.375 13.125 C-6.73803121 15.13037413 -8.84496951 17.84474106 -11.62890625 22.734375 C-11.97824219 23.33765625 -12.32757812 23.9409375 -12.6875 24.5625 C-13.0175 24.5625 -13.3475 24.5625 -13.6875 24.5625 C-14.58404567 16.31427983 -10.66678994 9.80995915 -5.6875 3.4375 C-3.64789114 1.20913556 -3.0334104 0.63489985 0 0 Z " fill="#097AA4" transform="translate(29.6875,174.4375)"/>
<path d="M0 0 C1.9375 1.0625 1.9375 1.0625 3 3 C3 6.4375 3 6.4375 2 10 C-1.1988259 13.11680472 -3.57424395 14.94180588 -8.0625 15.125 C-11 15 -11 15 -12 14 C-12.5573482 8.31504837 -11.58551703 5.42916809 -8 1 C-5.20129973 -0.39935013 -3.09501208 -0.25265405 0 0 Z " fill="#0975A0" transform="translate(43,209)"/>
<path d="M0 0 C0.33 0.66 0.66 1.32 1 2 C1.99 2.33 2.98 2.66 4 3 C5.03886637 5.83136125 5.8758261 8.52863659 6.625 11.4375 C6.8422876 12.26282227 7.0595752 13.08814453 7.28344727 13.93847656 C10.11368707 24.99808235 9.97335032 33.68177586 8 45 C7.67 45 7.34 45 7 45 C7 41.37 7 37.74 7 34 C6.34 34.66 5.68 35.32 5 36 C4.90203125 35.07960937 4.8040625 34.15921875 4.703125 33.2109375 C3.75347866 25.17169006 2.29745993 17.84504918 -0.1953125 10.12109375 C-1.01824777 6.92922347 -1.22163049 4.28109484 -1 1 C-0.67 0.67 -0.34 0.34 0 0 Z " fill="#1E3B61" transform="translate(239,119)"/>
<path d="M0 0 C8.05054187 5.32954867 15.65365151 12.30730302 20 21 C16.04 21.33 12.08 21.66 8 22 C7.51080078 20.82244141 7.51080078 20.82244141 7.01171875 19.62109375 C6.35623047 18.04521484 6.35623047 18.04521484 5.6875 16.4375 C5.23375 15.344375 4.78 14.25125 4.3125 13.125 C3.29975659 10.71370617 2.25712988 8.32359743 1.1875 5.9375 C0 3 0 3 0 0 Z " fill="#D82D28" transform="translate(229,251)"/>
<path d="M0 0 C4.42750456 1.39150143 7.1523841 3.31485002 10 7 C10.25 9.9375 10.25 9.9375 9 13 C6.89754084 15.34258775 4.68398095 17.34741784 2 19 C1.01 19 0.02 19 -1 19 C-1.12086218 12.56744599 -0.82351864 6.38226945 0 0 Z " fill="#D82D27" transform="translate(187,148)"/>
<path d="M0 0 C3.69628969 -0.21742881 6.45781172 -0.20764658 9.9375 1.125 C12 3 12 3 12.625 5.8125 C11.78082471 10.11779398 10.00303261 11.84681576 7 15 C4 14 4 14 2.578125 11.85546875 C2.13984375 10.97503906 1.7015625 10.09460938 1.25 9.1875 C0.80140625 8.31480469 0.3528125 7.44210938 -0.109375 6.54296875 C-1.06982104 3.80064256 -1.02018585 2.6686569 0 0 Z " fill="#D82D28" transform="translate(168,54)"/>
<path d="M0 0 C0 0.66 0 1.32 0 2 C0.598125 2.268125 1.19625 2.53625 1.8125 2.8125 C4.01819033 4.00987475 5.43583187 5.04478984 7 7 C7 7.99 7 8.98 7 10 C3.55835531 8.47038014 0.90848242 6.37270934 -2 4 C-5.94482335 2.02758833 -10.69961189 2.55813668 -15 3 C-19.42312593 5.39585988 -21.03390633 8.44694097 -23 13 C-25 11 -25 11 -25.0625 8.25 C-23.58883912 3.74233144 -20.79382424 1.68984767 -17 -1 C-11.66183851 -3.66908074 -5.41568989 -1.52019365 0 0 Z " fill="#003E65" transform="translate(132,78)"/>
<path d="M0 0 C2.375 1.6875 2.375 1.6875 4 4 C4.25 6.75 4.25 6.75 4 9 C2.25 9.75 2.25 9.75 0 10 C-2.125 8.125 -2.125 8.125 -4 6 C-4.66 5.67 -5.32 5.34 -6 5 C-4.7934375 6.1446875 -4.7934375 6.1446875 -3.5625 7.3125 C-1 10 -1 10 0 13 C-6.75 12.25 -6.75 12.25 -9 10 C-9.1953125 7.8359375 -9.1953125 7.8359375 -9.125 5.375 C-9.10695313 4.55773437 -9.08890625 3.74046875 -9.0703125 2.8984375 C-9.04710938 2.27195312 -9.02390625 1.64546875 -9 1 C-5.68377419 -0.1054086 -3.47482175 -0.35457365 0 0 Z " fill="#003F64" transform="translate(79,119)"/>
<path d="M0 0 C3.82877162 3.10440942 4.8045227 5.49203226 5.4375 10.375 C4.97907053 14.17341563 4.89088561 14.57310731 2.1875 16.875 C-1 19 -1 19 -4 20 C-3.71125 19.360625 -3.4225 18.72125 -3.125 18.0625 C-1.6752275 14.11589708 -0.84221938 10.1125393 0 6 C-0.66 6 -1.32 6 -2 6 C-2.33 4.35 -2.66 2.7 -3 1 C-7.455 2.485 -7.455 2.485 -12 4 C-7.74936535 -0.39232247 -6.1282197 -1.59333712 0 0 Z " fill="#EDEFEA" transform="translate(127,93)"/>
<path d="M0 0 C1.22203125 0.43505859 1.22203125 0.43505859 2.46875 0.87890625 C7.87221679 2.59890513 14.65935172 4.09610539 19.96875 1.44140625 C19.39530063 4.30865311 19.1072985 5.30285775 16.96875 7.44140625 C17.29875 8.10140625 17.62875 8.76140625 17.96875 9.44140625 C13.95544452 8.89906767 10.07325852 8.01376001 6.15625 7.00390625 C5.20105469 6.75769531 4.24585937 6.51148438 3.26171875 6.2578125 C0.96875 5.44140625 0.96875 5.44140625 -0.03125 3.44140625 C-2.05588255 2.78927333 -2.05588255 2.78927333 -4.03125 2.44140625 C-4.03125 1.78140625 -4.03125 1.12140625 -4.03125 0.44140625 C-2.03125 -0.55859375 -2.03125 -0.55859375 0 0 Z " fill="#213B61" transform="translate(107.03125,219.55859375)"/>
<path d="M0 0 C3.54408195 1.18136065 4.80985835 2.95719011 7.12890625 5.78515625 C9.32695092 8.38701706 11.66297778 10.83490502 14 13.3125 C18.30367152 18.03937673 22.63018932 22.98432673 25 29 C24.64453125 31.28515625 24.64453125 31.28515625 24 33 C23.52691406 32.17757812 23.05382812 31.35515625 22.56640625 30.5078125 C17.14631474 21.35810636 11.22398428 13.37880158 2.9375 6.5625 C1.968125 5.716875 0.99875 4.87125 0 4 C0 2.66666667 0 1.33333333 0 0 Z " fill="#193D65" transform="translate(236,105)"/>
<path d="M0 0 C0.33 0 0.66 0 1 0 C1.05418326 2.08304538 1.09287551 4.16649768 1.125 6.25 C1.14820313 7.41015625 1.17140625 8.5703125 1.1953125 9.765625 C1.0103949 12.82786046 0.60823023 14.44202751 -1 17 C-3.64 16.67 -6.28 16.34 -9 16 C-8.41248535 12.68525684 -7.35951919 10.9943076 -5.0625 8.5625 C-2.62694317 5.85243197 -1.07282638 3.54032705 0 0 Z " fill="#DB2D25" transform="translate(183,36)"/>
<path d="M0 0 C0.33 0 0.66 0 1 0 C1 1.65 1 3.3 1 5 C2.32 5.33 3.64 5.66 5 6 C4.731875 6.495 4.46375 6.99 4.1875 7.5 C2.56124507 10.9236946 1.30484829 14.44132285 0 18 C-0.66 18 -1.32 18 -2 18 C-3.14077657 14.57767028 -3.09815117 11.91326783 -3.0625 8.3125 C-3.05347656 7.13300781 -3.04445313 5.95351562 -3.03515625 4.73828125 C-3.02355469 3.83464844 -3.01195313 2.93101562 -3 2 C-2.34 2 -1.68 2 -1 2 C-0.67 1.34 -0.34 0.68 0 0 Z " fill="#0778A3" transform="translate(25,199)"/>
<path d="M0 0 C1.31611677 0.95336021 2.62778961 1.91285774 3.9375 2.875 C4.66839844 3.40867188 5.39929687 3.94234375 6.15234375 4.4921875 C8 6 8 6 9 8 C9.25 11.4375 9.25 11.4375 9 15 C7.484375 16.72265625 7.484375 16.72265625 6 18 C4.9936345 15.56495491 3.99473587 13.12729136 3 10.6875 C2.71382812 9.99720703 2.42765625 9.30691406 2.1328125 8.59570312 C0.91089256 5.58454326 0 3.28113016 0 0 Z " fill="#087AA5" transform="translate(49,173)"/>
<path d="M0 0 C0.66 0 1.32 0 2 0 C5.85880936 6.75291638 5.28506966 13.38758424 5 21 C4.34 21.33 3.68 21.66 3 22 C1.38364512 19.13026116 0.7266582 16.95535797 0.5859375 13.671875 C0.54726562 12.87265625 0.50859375 12.0734375 0.46875 11.25 C0.4378125 10.425 0.406875 9.6 0.375 8.75 C0.33632812 7.90953125 0.29765625 7.0690625 0.2578125 6.203125 C0.16384164 4.13576618 0.08084436 2.06791373 0 0 Z " fill="#003E64" transform="translate(158,116)"/>
<path d="M0 0 C0.86625 0.37125 0.86625 0.37125 1.75 0.75 C1.43279301 4.23927692 1.08692769 6.30850854 -1.0625 9.125 C-3.25 10.75 -3.25 10.75 -7.25 10.75 C-6.95535939 6.91967201 -6.71954688 4.39765087 -4.4375 1.25 C-2.25 -0.25 -2.25 -0.25 0 0 Z " fill="#57ACC5" transform="translate(33.25,193.25)"/>
<path d="M0 0 C3.06506511 1.21176993 5.42118961 1.21442141 8.6875 1.0625 C8.6875 2.0525 8.6875 3.0425 8.6875 4.0625 C8.0275 4.0625 7.3675 4.0625 6.6875 4.0625 C6.9659375 5.238125 6.9659375 5.238125 7.25 6.4375 C7.6875 9.0625 7.6875 9.0625 6.6875 11.0625 C5.6975 10.7325 4.7075 10.4025 3.6875 10.0625 C4.0175 8.7425 4.3475 7.4225 4.6875 6.0625 C3.78 5.77375 2.8725 5.485 1.9375 5.1875 C-0.63452908 4.29718224 -2.92596766 3.34755587 -5.3125 2.0625 C-5.3125 1.4025 -5.3125 0.7425 -5.3125 0.0625 C-2.3125 -0.9375 -2.3125 -0.9375 0 0 Z " fill="#1F3B62" transform="translate(130.3125,194.9375)"/>
<path d="M0 0 C-0.49230769 6.4 -0.49230769 6.4 -3.0625 9.4375 C-4.0215625 10.2109375 -4.0215625 10.2109375 -5 11 C-5.99 10.67 -6.98 10.34 -8 10 C-7.39457203 3.58246347 -7.39457203 3.58246347 -5.6875 1.0625 C-4 0 -4 0 0 0 Z " fill="#79BFD0" transform="translate(42,210)"/>
<path d="M0 0 C0.33 0 0.66 0 1 0 C1 9.9 1 19.8 1 30 C2.32 30 3.64 30 5 30 C5 32.31 5 34.62 5 37 C4.34 35.68 3.68 34.36 3 33 C3 36.96 3 40.92 3 45 C2.67 45 2.34 45 2 45 C0.21596457 34.75637833 -0.25425093 24.98458359 -0.125 14.625 C-0.11493182 13.1953189 -0.10581288 11.76563079 -0.09765625 10.3359375 C-0.0759886 6.89047521 -0.04167943 3.4452854 0 0 Z " fill="#413B5E" transform="translate(245,165)"/>
<path d="M0 0 C0.556875 0.268125 1.11375 0.53625 1.6875 0.8125 C1.10728222 4.0673802 0.16102859 5.74902408 -2.1875 8.0625 C-2.70054688 8.58328125 -3.21359375 9.1040625 -3.7421875 9.640625 C-5.3125 10.8125 -5.3125 10.8125 -8.3125 10.8125 C-8.03683285 6.86127078 -7.48535643 5.03207438 -5 1.875 C-2.3125 -0.1875 -2.3125 -0.1875 0 0 Z " fill="#6DB9CD" transform="translate(28.3125,177.1875)"/>
<path d="M0 0 C1.54286547 2.31429821 2.89992755 4.54571028 4.1875 7 C4.55230469 7.680625 4.91710937 8.36125 5.29296875 9.0625 C6 11 6 11 5 14 C4.01 13.34 3.02 12.68 2 12 C2 13.98 2 15.96 2 18 C1.67 18 1.34 18 1 18 C0.96132812 17.11248047 0.96132812 17.11248047 0.921875 16.20703125 C0.54295586 10.9279987 -0.10636661 7.89363339 -4 4 C-3.01 4 -2.02 4 -1 4 C-0.67 2.68 -0.34 1.36 0 0 Z " fill="#1A3D64" transform="translate(166,55)"/>
<path d="M0 0 C0.99 0 1.98 0 3 0 C3 0.99 3 1.98 3 3 C5.97 3 8.94 3 12 3 C11.34 5.97 10.68 8.94 10 12 C9.34 10.68 8.68 9.36 8 8 C5.83718718 6.8774351 5.83718718 6.8774351 3.375 6.25 C2.55773437 6.00765625 1.74046875 5.7653125 0.8984375 5.515625 C0.27195313 5.34546875 -0.35453125 5.1753125 -1 5 C-0.67 3.35 -0.34 1.7 0 0 Z " fill="#293C62" transform="translate(171,49)"/>
<path d="M0 0 C2.37079387 3.34700312 1.97902376 6.02174184 1.359375 9.9609375 C1.24078125 10.63382813 1.1221875 11.30671875 1 12 C0.814375 13.155 0.62875 14.31 0.4375 15.5 C0.2209375 16.7375 0.2209375 16.7375 0 18 C-0.33 18 -0.66 18 -1 18 C-1.33848652 16.10507994 -1.67056911 14.20901534 -2 12.3125 C-2.185625 11.25675781 -2.37125 10.20101562 -2.5625 9.11328125 C-2.95068074 6.35095938 -3.08259976 3.78257957 -3 1 C-2.01 2.485 -2.01 2.485 -1 4 C-0.67 2.68 -0.34 1.36 0 0 Z " fill="#073C64" transform="translate(245,134)"/>
<path d="M0 0 C2.475 0.495 2.475 0.495 5 1 C5 1.66 5 2.32 5 3 C5.598125 3.268125 6.19625 3.53625 6.8125 3.8125 C9.01819033 5.00987475 10.43583187 6.04478984 12 8 C12 8.99 12 9.98 12 11 C7.39201894 8.95200842 3.29917619 5.82009874 0 2 C0 1.34 0 0.68 0 0 Z " fill="#004E75" transform="translate(127,77)"/>
<path d="M0 0 C0.66 0 1.32 0 2 0 C1.41125507 3.94388172 0.21364728 6.82350283 -1.8125 10.25 C-2.31394531 11.12140625 -2.81539062 11.9928125 -3.33203125 12.890625 C-5 15 -5 15 -7.19921875 15.796875 C-7.79347656 15.86390625 -8.38773438 15.9309375 -9 16 C-8.60167969 15.34773437 -8.20335937 14.69546875 -7.79296875 14.0234375 C-5.00509512 9.42446348 -2.30278632 4.86143779 0 0 Z " fill="#1E3C63" transform="translate(149,179)"/>
<path d="M0 0 C2.60444348 -0.05394705 5.20776998 -0.09364469 7.8125 -0.125 C8.55048828 -0.14175781 9.28847656 -0.15851563 10.04882812 -0.17578125 C13.91246426 -0.21074628 15.70903668 -0.19397555 19 2 C15.23699626 3.25433458 11.72789091 3.10695422 7.8125 3.0625 C7.06291016 3.05798828 6.31332031 3.05347656 5.54101562 3.04882812 C3.69397617 3.03706354 1.84697787 3.01912865 0 3 C0 2.01 0 1.02 0 0 Z " fill="#393B5E" transform="translate(90,282)"/>
<path d="M0 0 C5.05786842 0.47276812 7.87083861 1.9861321 11.875 5.0625 C12.84179688 5.79597656 13.80859375 6.52945313 14.8046875 7.28515625 C15.52914062 7.85105469 16.25359375 8.41695312 17 9 C16.34 9.66 15.68 10.32 15 11 C12.87322106 9.54420484 10.7485458 8.08549775 8.625 6.625 C8.02171875 6.2125 7.4184375 5.8 6.796875 5.375 C4.36217249 3.6977605 2.09532229 2.09532229 0 0 Z " fill="#1D365C" transform="translate(230,77)"/>
<path d="M0 0 C2 2 2 2 2.1953125 4.3828125 C2.17210937 5.28773437 2.14890625 6.19265625 2.125 7.125 C2.10695312 8.03507812 2.08890625 8.94515625 2.0703125 9.8828125 C2.03550781 10.93082031 2.03550781 10.93082031 2 12 C3.32 12 4.64 12 6 12 C6 12.66 6 13.32 6 14 C4.33388095 14.042721 2.66617115 14.04063832 1 14 C0 13 0 13 -0.09765625 10.05859375 C-0.08605469 8.86363281 -0.07445312 7.66867188 -0.0625 6.4375 C-0.05347656 5.23996094 -0.04445312 4.04242188 -0.03515625 2.80859375 C-0.02355469 1.88175781 -0.01195312 0.95492187 0 0 Z " fill="#C22F31" transform="translate(186,116)"/>
<path d="M0 0 C0.66 0 1.32 0 2 0 C4.04169485 2.90548882 5 4.40142046 5 8 C3 9.6875 3 9.6875 1 11 C-0.17571451 7.32589215 -0.07366746 3.83070817 0 0 Z " fill="#CF302F" transform="translate(241,293)"/>
<path d="M0 0 C0.33 0 0.66 0 1 0 C2.45295405 9.99562363 2.45295405 9.99562363 0.5625 14.1875 C0.046875 14.785625 -0.46875 15.38375 -1 16 C-2.26823485 12.34606463 -1.75715321 9.50929974 -1.0625 5.75 C-0.86785156 4.67234375 -0.67320312 3.5946875 -0.47265625 2.484375 C-0.31667969 1.66453125 -0.16070312 0.8446875 0 0 Z " fill="#173C63" transform="translate(245,196)"/>
<path d="M0 0 C6.85274128 1.16251861 12.09174546 7.62615001 16 13 C15.67 13.66 15.34 14.32 15 15 C14.12988281 13.98679687 14.12988281 13.98679687 13.2421875 12.953125 C9.11263175 8.23752669 5.40566244 4.18795477 0 1 C0 0.67 0 0.34 0 0 Z " fill="#DF2C23" transform="translate(132,28)"/>
<path d="M0 0 C6.875 3.875 6.875 3.875 8 5 C7.71269945 7.33944736 7.38063221 9.6739143 7 12 C5.68 11.34 4.36 10.68 3 10 C3.99 10 4.98 10 6 10 C4.64978174 5.58110387 2.73884332 3.65654657 -1 1 C-0.67 0.67 -0.34 0.34 0 0 Z " fill="#20365B" transform="translate(65,297)"/>
<path d="M0 0 C3.22348996 1.07449665 4.04138081 1.86324569 6.1875 4.375 C6.71730469 4.98085937 7.24710938 5.58671875 7.79296875 6.2109375 C9 8 9 8 9 11 C8.52949219 10.57847656 8.05898437 10.15695313 7.57421875 9.72265625 C6.95160156 9.17480469 6.32898438 8.62695312 5.6875 8.0625 C5.07261719 7.51722656 4.45773438 6.97195312 3.82421875 6.41015625 C1.94758042 4.79918441 1.94758042 4.79918441 -1 4 C-0.67 2.68 -0.34 1.36 0 0 Z " fill="#2C3C61" transform="translate(236,105)"/>
<path d="M0 0 C2.31 0.33 4.62 0.66 7 1 C7 1.66 7 2.32 7 3 C5.35 3.33 3.7 3.66 2 4 C2.33 5.65 2.66 7.3 3 9 C0.9375 7.3125 0.9375 7.3125 -1 5 C-0.75 2.25 -0.75 2.25 0 0 Z " fill="#223B5E" transform="translate(86,24)"/>
<path d="M0 0 C0.99 0.66 1.98 1.32 3 2 C2.0925 2.350625 1.185 2.70125 0.25 3.0625 C-3.91857529 5.54761219 -4.89152626 7.70195737 -7 12 C-7.66 11.01 -8.32 10.02 -9 9 C-7.87895467 7.68412059 -6.75303035 6.37239647 -5.625 5.0625 C-4.99851562 4.33160156 -4.37203125 3.60070312 -3.7265625 2.84765625 C-2 1 -2 1 0 0 Z " fill="#193D63" transform="translate(50,147)"/>
<path d="M0 0 C1.9375 0.3125 1.9375 0.3125 4 1 C4.33 1.99 4.66 2.98 5 4 C5.66 4 6.32 4 7 4 C8.6875 6.25 8.6875 6.25 10 9 C9.58203125 11.171875 9.58203125 11.171875 9 13 C8.60167969 12.39671875 8.20335937 11.7934375 7.79296875 11.171875 C7.26316406 10.37265625 6.73335937 9.5734375 6.1875 8.75 C5.66542969 7.96109375 5.14335937 7.1721875 4.60546875 6.359375 C3.12865878 4.18907519 1.59310127 2.08586232 0 0 Z " fill="#193D65" transform="translate(141,33)"/>
<path d="M0 0 C0.33 0.99 0.66 1.98 1 3 C1.66 3 2.32 3 3 3 C3.625 4.8125 3.625 4.8125 4 7 C3.01 8.485 3.01 8.485 2 10 C1.67 9.01 1.34 8.02 1 7 C0.34 7 -0.32 7 -1 7 C-1.04254356 5.00045254 -1.04080783 2.99958364 -1 1 C-0.67 0.67 -0.34 0.34 0 0 Z " fill="#183D62" transform="translate(63,89)"/>
<path d="M0 0 C8.19256018 -0.4726477 8.19256018 -0.4726477 11.5625 1.5 C12.036875 1.995 12.51125 2.49 13 3 C10.37684968 4.31157516 8.76966564 3.89649988 5.875 3.5625 C4.96492188 3.46066406 4.05484375 3.35882813 3.1171875 3.25390625 C2.41851562 3.17011719 1.71984375 3.08632812 1 3 C0.67 2.01 0.34 1.02 0 0 Z " fill="#223A5E" transform="translate(47,75)"/>
<path d="M0 0 C1.99097846 2.98646769 2.94124926 5.59687262 4 9 C3.01 9 2.02 9 1 9 C0.67 10.32 0.34 11.64 0 13 C-1.28571429 4.57142857 -1.28571429 4.57142857 0 0 Z " fill="#02446B" transform="translate(120,303)"/>
<path d="M0 0 C0.66 0 1.32 0 2 0 C0.61811547 3.21043882 -0.92421903 5.04936365 -3.625 7.25 C-4.57246094 8.03117188 -4.57246094 8.03117188 -5.5390625 8.828125 C-6.02117187 9.21484375 -6.50328125 9.6015625 -7 10 C-7.66 9.34 -8.32 8.68 -9 8 C-8.51789063 7.67386719 -8.03578125 7.34773437 -7.5390625 7.01171875 C-6.90742187 6.57472656 -6.27578125 6.13773438 -5.625 5.6875 C-4.99851562 5.25824219 -4.37203125 4.82898438 -3.7265625 4.38671875 C-1.73621155 2.93079661 -1.73621155 2.93079661 0 0 Z " fill="#E7EAE5" transform="translate(123,168)"/>
<path d="M0 0 C0.66 0.33 1.32 0.66 2 1 C3.33059914 4.99179743 2.81502739 7.26317891 1 11 C0.34 11 -0.32 11 -1 11 C-0.67 7.37 -0.34 3.74 0 0 Z " fill="#00436A" transform="translate(194,228)"/>
<path d="M0 0 C0.66 0 1.32 0 2 0 C2.66 2.31 3.32 4.62 4 7 C3.34 7 2.68 7 2 7 C2 8.98 2 10.96 2 13 C1.67 13 1.34 13 1 13 C0.67 8.71 0.34 4.42 0 0 Z " fill="#004A71" transform="translate(158,116)"/>
<path d="M0 0 C0.33 0.66 0.66 1.32 1 2 C-0.03125 1.95875 -1.0625 1.9175 -2.125 1.875 C-5.86829627 1.99575149 -8.53734547 2.64872018 -12 4 C-7.70811013 -0.43495286 -6.17621209 -1.44549645 0 0 Z " fill="#96C0CA" transform="translate(127,93)"/>
<path d="M0 0 C0.33 0.66 0.66 1.32 1 2 C1.66 2.33 2.32 2.66 3 3 C-4.5 4.25 -4.5 4.25 -9 2 C-6.03 1.34 -3.06 0.68 0 0 Z " fill="#234364" transform="translate(186,368)"/>
<path d="M0 0 C1.32 0.33 2.64 0.66 4 1 C4 1.66 4 2.32 4 3 C0.37 3.33 -3.26 3.66 -7 4 C-7 3.34 -7 2.68 -7 2 C-4.69 2 -2.38 2 0 2 C0 1.34 0 0.68 0 0 Z " fill="#CE302E" transform="translate(112,278)"/>
<path d="M0 0 C4.2742558 1.5830577 6.26531794 4.50568404 9 8 C6 8 6 8 4.3125 6.625 C3 5 3 5 3 3 C2.34 3 1.68 3 1 3 C0.67 2.01 0.34 1.02 0 0 Z " fill="#0B294B" transform="translate(238,248)"/>
<path d="M0 0 C0.99 0 1.98 0 3 0 C4.65 2.97 6.3 5.94 8 9 C7.01 9.495 7.01 9.495 6 10 C4.02 6.7 2.04 3.4 0 0 Z " fill="#1D3D64" transform="translate(58,212)"/>
<path d="M0 0 C0.99 0 1.98 0 3 0 C3 0.99 3 1.98 3 3 C2.34 3 1.68 3 1 3 C0.67 4.32 0.34 5.64 0 7 C-0.66 7 -1.32 7 -2 7 C-2.125 4.625 -2.125 4.625 -2 2 C-1.34 1.34 -0.68 0.68 0 0 Z " fill="#66B5CA" transform="translate(31,193)"/>
<path d="M0 0 C4.875 1.75 4.875 1.75 6 4 C6.99 4.66 7.98 5.32 9 6 C8.34 6 7.68 6 7 6 C6.67 6.66 6.34 7.32 6 8 C1.125 3.375 1.125 3.375 0 0 Z " fill="#046D98" transform="translate(73,124)"/>
<path d="M0 0 C2.66735273 2.48952921 4.55746343 4.63408134 6 8 C5.01 8 4.02 8 3 8 C1.02 4.535 1.02 4.535 -1 1 C-0.67 0.67 -0.34 0.34 0 0 Z " fill="#263C62" transform="translate(50,246)"/>
<path d="M0 0 C2.64 0.33 5.28 0.66 8 1 C7.01 2.485 7.01 2.485 6 4 C2.875 4.1875 2.875 4.1875 0 4 C-0.33 3.34 -0.66 2.68 -1 2 C-0.67 1.34 -0.34 0.68 0 0 Z " fill="#0E3B64" transform="translate(111,222)"/>
<path d="M0 0 C2 3.75 2 3.75 2 6 C2.66 6 3.32 6 4 6 C4 6.66 4 7.32 4 8 C2.35 8 0.7 8 -1 8 C-0.67 5.36 -0.34 2.72 0 0 Z " fill="#117EA7" transform="translate(33,216)"/>
<path d="M0 0 C0.33 0.99 0.66 1.98 1 3 C-1.31 4.98 -3.62 6.96 -6 9 C-4.86634892 4.46539569 -3.35806626 3.09975347 0 0 Z " fill="#20345D" transform="translate(124,177)"/>
<path d="M0 0 C2.96865509 2.54456151 4.3619751 5.48994665 6 9 C5.01 9 4.02 9 3 9 C1.68 6.36 0.36 3.72 -1 1 C-0.67 0.67 -0.34 0.34 0 0 Z " fill="#243B62" transform="translate(49,128)"/>
<path d="M0 0 C0.33 0 0.66 0 1 0 C1.22142255 1.95689659 1.4267568 3.91561952 1.625 5.875 C1.74101562 6.96554688 1.85703125 8.05609375 1.9765625 9.1796875 C1.98429688 10.11039063 1.99203125 11.04109375 2 12 C1.34 12.66 0.68 13.32 0 14 C-1.03115279 10.73086376 -0.9638984 8.13958652 -0.5625 4.75 C-0.46066406 3.85796875 -0.35882813 2.9659375 -0.25390625 2.046875 C-0.17011719 1.37140625 -0.08632812 0.6959375 0 0 Z " fill="#423C60" transform="translate(184,39)"/>
<path d="M0 0 C2.74277578 3.19990508 4.6302836 6.00499382 6 10 C5.34 10 4.68 10 4 10 C1.1605948 6.32547562 0 4.73113419 0 0 Z " fill="#153D64" transform="translate(246,295)"/>
<path d="M0 0 C1 3 1 3 -0.25 5.6875 C-0.8275 6.450625 -1.405 7.21375 -2 8 C-2.99 8 -3.98 8 -5 8 C-4.01 6.02 -3.02 4.04 -2 2 C-1.34 2 -0.68 2 0 2 C0 1.34 0 0.68 0 0 Z " fill="#4AA3BF" transform="translate(34,194)"/>
<path d="M0 0 C2.71675995 0.36712972 4.61063713 0.72744599 6.875 2.3125 C8 4 8 4 7.6875 6.1875 C7.460625 6.785625 7.23375 7.38375 7 8 C5.76302083 6.50260417 4.52604167 5.00520833 3.2890625 3.5078125 C2.24749008 2.28948839 1.13339903 1.13339903 0 0 Z " fill="#283F61" transform="translate(193,107)"/>
<path d="M0 0 C0.66 0.66 1.32 1.32 2 2 C2.66 1.34 3.32 0.68 4 0 C4.33 2.64 4.66 5.28 5 8 C4.01 7.67 3.02 7.34 2 7 C2 6.01 2 5.02 2 4 C1.34 4 0.68 4 0 4 C0 2.68 0 1.36 0 0 Z " fill="#0E2D58" transform="translate(63,96)"/>
<path d="M0 0 C0 0.66 0 1.32 0 2 C-0.66 2 -1.32 2 -2 2 C-2 3.32 -2 4.64 -2 6 C-2.99 6.33 -3.98 6.66 -5 7 C-5.1875 4.625 -5.1875 4.625 -5 2 C-2 0 -2 0 0 0 Z " fill="#0D2A53" transform="translate(282,262)"/>
<path d="M0 0 C2.64752004 2.57784846 4.94432065 4.91648098 7 8 C6.01 8 5.02 8 4 8 C0 3.77142857 0 3.77142857 0 0 Z " fill="#1B3D65" transform="translate(239,257)"/>
<path d="M0 0 C0.89694794 3.58779175 1.08304117 6.34618837 1 10 C0.01 10.33 -0.98 10.66 -2 11 C-1.34 7.37 -0.68 3.74 0 0 Z " fill="#E22C1E" transform="translate(41,174)"/>
<path d="M0 0 C7.625 1.75 7.625 1.75 11 4 C9.4375 4.75 9.4375 4.75 7 5 C4.49713591 3.86915563 2.32992278 2.47860484 0 1 C0 0.67 0 0.34 0 0 Z " fill="#1A355C" transform="translate(91,173)"/>
<path d="M0 0 C4.52346473 2.26173236 5.05828666 3.53405933 7 8 C6.01 8.495 6.01 8.495 5 9 C3.35 6.03 1.7 3.06 0 0 Z " fill="#1A3C65" transform="translate(44,131)"/>
<path d="M0 0 C0.33 0 0.66 0 1 0 C3 6.625 3 6.625 3 10 C1.35 8.35 -0.3 6.7 -2 5 C-1.34 4.67 -0.68 4.34 0 4 C0 2.68 0 1.36 0 0 Z " fill="#253D63" transform="translate(153,66)"/>
<path d="M0 0 C0 0.66 0 1.32 0 2 C-2.70879335 3.35439668 -5.00933268 3.06501451 -8 3 C-8 2.34 -8 1.68 -8 1 C-5.10765685 0.17361624 -3.11257569 0 0 0 Z " fill="#19305B" transform="translate(195,367)"/>
<path d="M0 0 C1.14926266 0.95421808 2.29430541 1.91352045 3.4375 2.875 C4.07558594 3.40867187 4.71367188 3.94234375 5.37109375 4.4921875 C7 6 7 6 8 8 C4.21479387 7.45925627 2.40822445 5.92427254 0 3 C0 2.01 0 1.02 0 0 Z " fill="#052950" transform="translate(68,317)"/>
<path d="M0 0 C3.36720387 1.39332574 4.9859524 2.9789286 7 6 C4 6 4 6 1.8125 4.125 C0 2 0 2 0 0 Z " fill="#1D3D64" transform="translate(66,269)"/>
<path d="M0 0 C0.99 0 1.98 0 3 0 C3 2.31 3 4.62 3 7 C2.34 7 1.68 7 1 7 C0.67 4.69 0.34 2.38 0 0 Z " fill="#213C61" transform="translate(33,100)"/>
<path d="M0 0 C2.5 2.3125 2.5 2.3125 5 5 C5 5.99 5 6.98 5 8 C2.5 5.6875 2.5 5.6875 0 3 C0 2.01 0 1.02 0 0 Z " fill="#263C62" transform="translate(68,224)"/>
<path d="M0 0 C1.32 0.33 2.64 0.66 4 1 C3.25 2.9375 3.25 2.9375 2 5 C-0.125 5.75 -0.125 5.75 -2 6 C-1.34 4.02 -0.68 2.04 0 0 Z " fill="#5FB0C7" transform="translate(38,210)"/>
<path d="M0 0 C1.65 1.65 3.3 3.3 5 5 C4.01 6.485 4.01 6.485 3 8 C0 3.375 0 3.375 0 0 Z " fill="#06729D" transform="translate(49,173)"/>
<path d="M0 0 C3.24208567 0.35049575 4.61527704 0.56221181 6.8125 3.0625 C7.204375 3.701875 7.59625 4.34125 8 5 C5 5 5 5 2.3125 2.5 C1.549375 1.675 0.78625 0.85 0 0 Z " fill="#314364" transform="translate(56,172)"/>
<path d="M0 0 C-0.33 0.66 -0.66 1.32 -1 2 C-4.375 2.125 -4.375 2.125 -8 2 C-8.66 1.34 -9.32 0.68 -10 0 C-6.7169902 -1.6415049 -3.57454967 -0.51888624 0 0 Z " fill="#38536F" transform="translate(115,138)"/>
<path d="M0 0 C0.33 0.99 0.66 1.98 1 3 C1.66 3 2.32 3 3 3 C3 3.66 3 4.32 3 5 C3.66 5.33 4.32 5.66 5 6 C3.35 6.66 1.7 7.32 0 8 C0 5.36 0 2.72 0 0 Z " fill="#193C62" transform="translate(66,101)"/>
</svg>
