<?xml version="1.0" encoding="UTF-8"?>
<svg version="1.1" xmlns="http://www.w3.org/2000/svg" width="1195" height="499">
<path d="M0 0 C394.35 0 788.7 0 1195 0 C1195 164.67 1195 329.34 1195 499 C800.65 499 406.3 499 0 499 C0 334.33 0 169.66 0 0 Z " fill="#FDFAEF" transform="translate(0,0)"/>
<path d="M0 0 C10.21325475 0.20426509 20.93742724 6.01014573 28.25390625 12.98046875 C33.18371152 18.68227931 36.8182413 24.78748702 39 32 C44.63422941 30.6341262 47.79785415 26.56248467 51 22 C54.42701059 15.41796378 56.20230139 8.16355658 58 1 C60.36328125 1.3203125 60.36328125 1.3203125 63 2 C69.53859607 10.5935834 69.98887683 22.58700789 69 33 C66.93879328 42.68665619 64.41429759 51.156033 57 58 C56.01 58.99 56.01 58.99 55 60 C55.73863281 60.29132813 56.47726562 60.58265625 57.23828125 60.8828125 C64.45362615 63.79828858 71.24880646 67.13268244 78 71 C78 73.97 78 76.94 78 80 C73.71146306 81.88695626 69.47238653 83.58192622 65 85 C65.58136719 85.28875 66.16273438 85.5775 66.76171875 85.875 C67.50035156 86.24625 68.23898437 86.6175 69 87 C69.62519531 87.309375 70.25039063 87.61875 70.89453125 87.9375 C77.62579319 91.66642718 82.43658691 97.28891521 84.87890625 104.6484375 C85.35194066 106.74566698 85.69115264 108.87238482 86 111 C80.24385683 115.20484217 74.89835786 118.14086809 68 120 C68.721875 120.721875 69.44375 121.44375 70.1875 122.1875 C74.45833333 126.45833333 78.72916667 130.72916667 83 135 C86.74348295 129.56973027 89.25935338 124.35889401 91 118 C91.52207031 116.13214844 91.52207031 116.13214844 92.0546875 114.2265625 C94.78890219 103.07210636 93.27148887 91.55182542 90.8125 80.5 C90.61648193 79.60522949 90.42046387 78.71045898 90.21850586 77.78857422 C88.50313524 70.69416457 85.96867313 63.62267245 81.29223633 57.91601562 C80.86579834 57.28373047 80.43936035 56.65144531 80 56 C80.8125 52.75 80.8125 52.75 82 50 C86.67263473 48.50224568 90.05138574 49.70117523 94.4375 51.4375 C95.14052246 51.71118408 95.84354492 51.98486816 96.56787109 52.2668457 C128.89021338 65.27940622 151.01878396 91.7868446 165 123 C172.98463298 142.5897738 176.17654988 162.23351595 176.1875 183.3125 C176.19974609 184.54162109 176.21199219 185.77074219 176.22460938 187.03710938 C176.256598 207.24325881 171.76533219 232.07099424 160 249 C158.35437438 250.03426017 156.6890112 251.03822095 155 252 C155.01571045 251.09757568 155.0314209 250.19515137 155.04760742 249.26538086 C155.09899354 245.89015866 155.1364741 242.51535729 155.16479492 239.13989258 C155.17980313 237.68409632 155.20021633 236.22834468 155.22631836 234.77270508 C155.26305676 232.66997211 155.2798056 230.56784115 155.29296875 228.46484375 C155.3086792 227.202771 155.32438965 225.94069824 155.34057617 224.64038086 C154.75963436 218.43075834 152.30731208 213.56836129 148 209 C143.53195652 206.29817029 139.0794648 206.10776735 134 207 C128.99326722 209.74471173 125.86567751 214.18566178 123 219 C121.09765625 218.734375 121.09765625 218.734375 119 218 C118.05859375 216.328125 118.05859375 216.328125 117.4375 214.25 C115.68196523 208.97395733 113.85441114 205.00753221 109 202 C106.390684 201.5271085 106.390684 201.5271085 103.625 201.625 C102.25214844 201.61339844 102.25214844 201.61339844 100.8515625 201.6015625 C97.44538386 202.07749431 94.98699083 203.33468653 92 205 C96.0089477 213.68820178 99.39307076 219.40576074 108 224 C121.12808996 231.7830819 130.17817089 241.97089318 136 256 C136 257.32 136 258.64 136 260 C135.07316406 260.12117188 134.14632812 260.24234375 133.19140625 260.3671875 C131.99386719 260.53476562 130.79632813 260.70234375 129.5625 260.875 C127.77005859 261.11863281 127.77005859 261.11863281 125.94140625 261.3671875 C124.97074219 261.57601563 124.00007812 261.78484375 123 262 C122.67 262.66 122.34 263.32 122 264 C123.52045687 267.13035238 125.47106808 269.53621819 127.8125 272.0625 C138.40903123 284.31556093 141.97326332 301.21150618 141 317 C139.22265625 318.109375 139.22265625 318.109375 137 319 C135.10469633 318.06897364 133.21386092 317.12486358 131.37109375 316.09375 C127.14272258 314.14326577 122.58142885 313.64005256 118 313 C117.59910156 313.89460938 117.19820312 314.78921875 116.78515625 315.7109375 C109.1845892 332.11659525 97.1652988 343.47608237 80.14453125 349.9453125 C62.83569076 355.75076211 45.81245053 357.35129079 27.67138672 357.26074219 C25.13354457 357.25003605 22.59641452 357.26070678 20.05859375 357.2734375 C4.80553783 357.28843812 -10.58583009 356.58954327 -25.3125 352.3125 C-26.2312793 352.05194824 -27.15005859 351.79139648 -28.09667969 351.52294922 C-40.22206875 347.93299988 -50.59514507 342.55548379 -60 334 C-61.31677734 332.80503906 -61.31677734 332.80503906 -62.66015625 331.5859375 C-67.83326046 326.66425073 -72.38005453 321.7429123 -75 315 C-75 314.01 -75 313.02 -75 312 C-75.66 312 -76.32 312 -77 312 C-77.33 313.65 -77.66 315.3 -78 317 C-80.3125 317.25 -80.3125 317.25 -83 317 C-86.20348398 313.73012257 -87.28423104 309.65740263 -88.5625 305.375 C-88.77068359 304.71371094 -88.97886719 304.05242187 -89.19335938 303.37109375 C-92.06985348 293.9751475 -93.34462637 285.0806689 -93.3125 275.25 C-93.32861328 274.24839844 -93.34472656 273.24679687 -93.36132812 272.21484375 C-93.36497146 266.713411 -93.10631909 262.74991578 -90 258 C-89 257 -89 257 -86.17578125 256.65625 C-83 257 -83 257 -80.98046875 258.90625 C-80.38878906 259.7621875 -79.79710937 260.618125 -79.1875 261.5 C-72.17896625 270.85349428 -64.4649512 276.16958049 -54.16015625 281.3359375 C-51 283 -51 283 -49 285 C-49.375 288.625 -49.375 288.625 -50 292 C-52.64 292.33 -55.28 292.66 -58 293 C-47.97756254 306.52324149 -47.97756254 306.52324149 -33.2421875 313.46484375 C-24.46505542 314.44374695 -18.29763423 312.76977368 -10 310 C-10.71285156 309.5875 -11.42570312 309.175 -12.16015625 308.75 C-24.60267155 301.24764892 -30.37842739 292.12673708 -36 279 C-36 278.01 -36 277.02 -36 276 C-38.47717598 274.73424999 -40.91961709 273.62230012 -43.5 272.5625 C-62.67544299 262.95692427 -77.14950954 239.84392505 -86 221 C-86 220.34 -86 219.68 -86 219 C-86.556875 218.93683594 -87.11375 218.87367188 -87.6875 218.80859375 C-94.41576108 217.72888969 -98.59524275 215.19952867 -103 210 C-106.99468375 204.03706188 -108.66181261 199.14757623 -108 192 C-108.99 191.67 -109.98 191.34 -111 191 C-114.69250693 183.47822662 -115.23328638 176.26451268 -112.6875 168.25 C-111.70540075 165.53143541 -110.69976162 163.52962654 -109.125 161.0625 C-107.34159415 156.20767296 -109.33009474 152.73139823 -111 148 C-111.9070072 145.09265522 -112.76622817 142.17189581 -113.625 139.25 C-113.84285156 138.52901123 -114.06070313 137.80802246 -114.28515625 137.06518555 C-119.72585911 118.79363258 -116.99717204 100.99255397 -108.11328125 84.328125 C-102.51942008 75.51856915 -95.24119732 67.97963166 -86 63 C-84.6696875 62.27490234 -84.6696875 62.27490234 -83.3125 61.53515625 C-77.60498733 58.67347282 -72.41579211 56.62697056 -66 58 C-62.1973971 60.0050088 -60.38209159 61.42686262 -58 65 C-57.5103407 66.66187927 -57.08767715 68.34409854 -56.7109375 70.03515625 C-56.49179688 71.00904297 -56.27265625 71.98292969 -56.046875 72.98632812 C-55.82515625 74.00146484 -55.6034375 75.01660156 -55.375 76.0625 C-55.14554688 77.08150391 -54.91609375 78.10050781 -54.6796875 79.15039062 C-53 86.69398717 -53 86.69398717 -53 89 C-46.54669368 85.39374059 -40.46724479 81.26466522 -38 74 C-37.76312305 71.71110765 -37.55771796 69.41885114 -37.375 67.125 C-36.71096659 61.38628923 -35.55422243 58.80556312 -31.1875 55 C-29.47037909 53.65118908 -27.74222413 52.31622575 -26 51 C-23.82616359 49.03319563 -22.59105789 47.52374699 -21 45 C-21.21589052 38.71518695 -23.72626174 33.80606394 -26.5 28.25 C-27.32423603 26.56835436 -28.1472085 24.88608865 -28.96875 23.203125 C-29.33419922 22.46739258 -29.69964844 21.73166016 -30.07617188 20.97363281 C-31 19 -31 19 -32 16 C-32.99 15.566875 -32.99 15.566875 -34 15.125 C-36 14 -36 14 -36.8125 11.5 C-37 9 -37 9 -36 7 C-30.43580462 7.5615243 -25.82302269 9.00854703 -20.6875 11.1875 C-19.57145386 11.65833008 -19.57145386 11.65833008 -18.43286133 12.13867188 C-1.65402043 19.36322444 -1.65402043 19.36322444 2 28 C2 28.66 2 29.32 2 30 C3.98 30 5.96 30 8 30 C6.14424916 17.05304534 6.14424916 17.05304534 0 6 C-0.125 2.875 -0.125 2.875 0 0 Z " fill="#063A60" transform="translate(201,57)"/>
<path d="M0 0 C1.52850586 0.00193359 1.52850586 0.00193359 3.08789062 0.00390625 C8.034119 0.06213523 11.75018637 0.31916478 16.3125 2.375 C16.27769531 3.18324219 16.24289063 3.99148437 16.20703125 4.82421875 C16.16642578 6.42716797 16.16642578 6.42716797 16.125 8.0625 C16.09019531 9.11824219 16.05539063 10.17398438 16.01953125 11.26171875 C16.37096755 14.99631521 16.84009259 16.53526349 19.3125 19.375 C20.75661454 20.00428574 22.22204513 20.58561468 23.69921875 21.1328125 C28.40755004 23.04131204 30.00387708 25.23040206 32.1015625 29.77270508 C32.60816406 30.99896606 32.60816406 30.99896606 33.125 32.25 C33.49753906 33.09264404 33.87007813 33.93528809 34.25390625 34.8034668 C39.4109007 46.77554744 42.46204216 58.61678954 42.48046875 71.671875 C42.48456757 72.57077957 42.48866638 73.46968414 42.4928894 74.39582825 C42.50243654 77.30559114 42.50241966 80.21522374 42.5 83.125 C42.50039276 84.11088104 42.50078552 85.09676208 42.50119019 86.11251831 C42.48216221 125.86601338 42.48216221 125.86601338 39.3125 135.375 C58.4569821 128.86005267 67.99308235 120.50038127 77.3125 102.375 C77.66231934 101.7051709 78.01213867 101.0353418 78.37255859 100.34521484 C91.08993398 75.73521903 91.69978132 53.22776761 84.3125 26.375 C83.67346883 24.69754318 83.0155814 23.02663518 82.3125 21.375 C87.10309 22.77408668 91.20130284 24.8492034 95.4375 27.4375 C96.09202148 27.83598145 96.74654297 28.23446289 97.42089844 28.64501953 C127.42204483 47.18972426 144.09312283 74.60430152 152.125 108.5 C153.82815398 115.81163339 155.44905738 122.88286917 155.41015625 130.4296875 C155.40693359 131.53828125 155.40371094 132.646875 155.40039062 133.7890625 C155.39201172 134.93117187 155.38363281 136.07328125 155.375 137.25 C155.37048828 138.4153125 155.36597656 139.580625 155.36132812 140.78125 C155.34958781 143.64588645 155.3331657 146.51041633 155.3125 149.375 C154.9825 149.375 154.6525 149.375 154.3125 149.375 C154.22798584 148.73288574 154.14347168 148.09077148 154.05639648 147.42919922 C149.87931301 116.62218278 140.75085035 86.40818077 120.3125 62.375 C119.83232422 61.80974609 119.35214844 61.24449219 118.85742188 60.66210938 C111.24565453 51.81975644 103.35891433 45.3638678 93.3125 39.375 C93.6425 40.365 93.9725 41.355 94.3125 42.375 C94.46912704 44.87205629 94.57187077 47.34039617 94.62109375 49.83984375 C94.63653732 50.58074249 94.6519809 51.32164124 94.66789246 52.08499146 C94.94213558 68.27283327 95.18068837 83.36771208 88.3125 98.375 C87.94801758 99.18163086 87.58353516 99.98826172 87.20800781 100.81933594 C82.17549337 111.65374673 76.11457136 121.32565872 68.3125 130.375 C67.71953125 131.06851563 67.1265625 131.76203125 66.515625 132.4765625 C61.86582483 137.50277507 56.16281281 140.89443415 50.3125 144.375 C51.74940331 147.72283658 53.51389432 149.67664315 56.1875 152.125 C66.60319151 162.372967 74.47263808 174.19262843 80.45410156 187.47412109 C81.27519569 189.29239153 82.13288896 191.09400106 82.9921875 192.89453125 C92.2819191 213.1147182 95.26440187 237.20423805 88.75390625 258.77734375 C81.23808266 277.53635059 66.91481637 292.16377811 48.32421875 300.15625 C44.37784722 301.74959395 40.37468668 303.10984972 36.3125 304.375 C35.23355469 304.7153125 34.15460938 305.055625 33.04296875 305.40625 C23.84708179 307.90475514 14.75604446 307.66116801 5.3125 307.375 C4.79317713 297.84254024 4.79317713 297.84254024 8.125 294 C8.64707031 293.37351562 9.16914063 292.74703125 9.70703125 292.1015625 C11.20784315 290.48755067 12.73768628 288.91670953 14.3125 287.375 C9.55706645 287.79459708 6.43703113 289.88994605 3.3125 293.375 C0.43322662 297.80324956 -1.15875138 302.08751378 -1.6875 307.375 C-7.83984375 307.47265625 -7.83984375 307.47265625 -9.6875 307.375 C-10.6875 306.375 -10.6875 306.375 -11.125 302.5 C-11.01385754 293.7614239 -5.24641078 286.54729448 0.30859375 280.2265625 C6.03708183 274.93357351 9.9240104 272.61580473 17.8359375 272.921875 C18.62271881 272.93132141 19.40950012 272.94076782 20.22012329 272.95050049 C22.71034132 272.98485174 25.19809344 273.0536399 27.6875 273.125 C30.19798901 273.17493132 32.70846311 273.21780509 35.21914673 273.25665283 C36.7762491 273.28311484 38.33324193 273.31736428 39.88998413 273.36004639 C41.69700894 273.40201748 43.50508436 273.39367992 45.3125 273.375 C45.6425 273.045 45.9725 272.715 46.3125 272.375 C45.51585937 272.14425781 44.71921875 271.91351563 43.8984375 271.67578125 C35.80214725 269.18385736 30.97736733 267.2242528 26.0625 260.125 C22.14866784 252.55825783 20.46339176 242.37409549 23 234.14453125 C23.95890399 232.07889223 25.03404056 230.25862363 26.3125 228.375 C26.71339844 227.76914062 27.11429687 227.16328125 27.52734375 226.5390625 C32.84049066 219.48566748 41.72062106 214.93715981 50.3125 213.375 C57.51981057 212.7008468 63.53198995 213.95132832 70.3125 216.375 C66.9626164 210.98605682 63.11765008 209.95725085 57.3125 208.375 C56.3225 208.045 55.3325 207.715 54.3125 207.375 C55.99147634 203.00966152 58.03826555 198.92389661 60.19140625 194.77734375 C62.24136116 190.38458322 62.44861483 186.72106587 62.4375 181.875 C62.44007813 180.7509375 62.44265625 179.626875 62.4453125 178.46875 C62.33516367 175.9029301 62.06520662 173.81233573 61.3125 171.375 C61.21775391 172.55642578 61.21775391 172.55642578 61.12109375 173.76171875 C59.75476516 185.91485204 54.58339579 197.1571877 45.3125 205.375 C36.58924595 211.99849732 25.57991318 216.16553975 14.546875 215.71484375 C11.09252294 215.18944405 8.40294358 213.98740535 5.3125 212.375 C5.3125 211.715 5.3125 211.055 5.3125 210.375 C4.384375 211.014375 3.45625 211.65375 2.5 212.3125 C-2.50922874 215.55376566 -5.8959297 215.65078906 -11.6875 215.375 C-13.6875 213.375 -13.6875 213.375 -14.1875 210 C-13.6875 206.375 -13.6875 206.375 -11 203.9375 C-7.81092912 202.43322128 -6.13388227 201.96954326 -2.6875 202.375 C-3.3475 201.385 -4.0075 200.395 -4.6875 199.375 C-8.8819205 199.10439223 -12.66292684 199.03347561 -16.6875 200.375 C-15.04838911 194.5015193 -12.797384 190.78158933 -7.6875 187.375 C-1.86459219 186.86421861 2.5327194 187.85198944 8.015625 189.81640625 C11.43839671 190.64881502 13.36337571 189.84265942 16.4609375 188.31640625 C22.76280833 184.4136687 26.10312497 180.01472342 29.3125 173.375 C29.69535156 172.59253906 30.07820313 171.81007813 30.47265625 171.00390625 C31.52363046 167.71411255 31.44706682 164.80645387 31.3125 161.375 C30.86519531 162.24382812 30.41789062 163.11265625 29.95703125 164.0078125 C21.44806886 180.22745509 21.44806886 180.22745509 13.3125 184.375 C7.10655265 185.08715789 2.04298879 183.79509702 -3.6875 181.375 C-4.0175 181.045 -4.3475 180.715 -4.6875 180.375 C-4.17026064 171.06469145 -0.98840698 163.19547071 4 155.375 C16.46846621 135.78834226 25.17290304 113.20126629 26.00390625 89.8828125 C26.3125 86.375 26.3125 86.375 27.32421875 82.8671875 C29.5499242 75.00244178 29.22763594 66.02723185 26.3125 58.375 C25.6525 58.375 24.9925 58.375 24.3125 58.375 C24.47105469 58.90609375 24.62960938 59.4371875 24.79296875 59.984375 C26.31831776 67.00327419 26.60553501 75.23216322 22.66503906 81.46655273 C17.7681565 88.37610707 12.88873804 91.48466036 4.75 93.5625 C-4.93539722 96.15991302 -10.69055854 99.99616447 -17.3125 107.5 C-18.424086 108.7575777 -19.54110614 110.01037748 -20.6640625 111.2578125 C-21.14955566 111.80840332 -21.63504883 112.35899414 -22.13525391 112.92626953 C-23.90189543 114.57509791 -25.43704319 115.49697063 -27.6875 116.375 C-33.77124384 116.05480296 -33.77124384 116.05480296 -36.625 113.9375 C-37.6875 112.375 -37.6875 112.375 -37.6875 110.375 C-37.09582031 110.13265625 -36.50414062 109.8903125 -35.89453125 109.640625 C-29.61570152 106.97749983 -25.08581425 104.47672712 -21.1875 98.75 C-18.48218385 94.98336752 -15.27979342 92.39147953 -11.5625 89.6875 C-5.43344786 85.21125568 -0.45335267 80.1307898 4.55859375 74.453125 C12.57132139 65.44672696 12.57132139 65.44672696 17.1875 65 C18.21875 65.12375 19.25 65.2475 20.3125 65.375 C19.9825 64.385 19.6525 63.395 19.3125 62.375 C9.81225989 61.98927597 3.65023721 62.07291815 -4.0625 67.875 C-10.55866179 72.62274188 -17.71965653 73.57539631 -25.5 74.75 C-38.53711718 76.76949599 -49.40882636 81.17749607 -58.25 91.3125 C-58.724375 91.993125 -59.19875 92.67375 -59.6875 93.375 C-63.53795216 92.82493541 -65.28349127 91.39939808 -67.6875 88.375 C-71.15662682 80.8994922 -73.6425276 72.13362092 -70.8984375 64.05078125 C-67.30353691 56.62772317 -63.32991852 54.65276041 -55.6953125 51.75390625 C-47.77742233 48.12401634 -44.73625395 42.25592933 -41.6875 34.375 C-41.32971718 31.98815217 -41.32971718 31.98815217 -41.3125 29.75 C-41.02252032 23.61581452 -36.66865233 19.69044756 -32.6875 15.375 C-31.8625 14.4675 -31.0375 13.56 -30.1875 12.625 C-26.85608468 9.62672621 -23.45084535 6.81524549 -19.6875 4.375 C-19.14843018 4.02501953 -18.60936035 3.67503906 -18.05395508 3.31445312 C-12.12202789 -0.12275259 -6.73533785 -0.16375102 0 0 Z " fill="#0979A4" transform="translate(212.6875,97.625)"/>
<path d="M0 0 C11.7813566 9.73242502 19.28098319 24.43108158 21.9375 39.375 C22.99990025 53.74429953 22.62281931 67.05150931 16.9375 80.375 C16.56496094 81.30054688 16.19242188 82.22609375 15.80859375 83.1796875 C9.57937169 97.11404485 -2.04459573 107.44921477 -15.984375 113.34375 C-32.98679999 119.03999391 -50.08526156 118.87358841 -66.62109375 111.8671875 C-82.97409341 103.58474951 -93.92033767 90.1165498 -99.91845703 72.92114258 C-102.07523046 65.81175454 -102.60539706 59.09219235 -102.5625 51.6875 C-102.55750488 50.54990234 -102.55250977 49.41230469 -102.54736328 48.24023438 C-102.26924437 34.72940953 -98.8731569 23.54464406 -91.0625 12.375 C-90.64742187 11.7046875 -90.23234375 11.034375 -89.8046875 10.34375 C-81.99263197 -1.44450146 -67.31267097 -10.08267774 -53.71875 -13.11328125 C-33.4892417 -15.9445479 -16.49328976 -12.27000799 0 0 Z " fill="#013B62" transform="translate(981.0625,139.625)"/>
<path d="M0 0 C1.00554932 -0.00225586 2.01109863 -0.00451172 3.04711914 -0.00683594 C4.12856201 -0.00200195 5.21000488 0.00283203 6.32421875 0.0078125 C7.43982178 0.01264648 8.5554248 0.01748047 9.70483398 0.02246094 C13.14072802 0.04679274 16.57605984 0.08611615 20.01171875 0.1328125 C21.02556641 0.14538086 22.03941406 0.15794922 23.08398438 0.17089844 C43.42422938 0.50512782 62.56250701 3.21869932 78.015625 17.90625 C92.3726503 33.92093575 93.92822409 52.56935215 93.20703125 73.11132812 C92.81461814 79.18195889 91.42989606 84.53082808 89.01171875 90.1328125 C88.61082031 91.07511719 88.20992188 92.01742187 87.796875 92.98828125 C81.27434028 106.39256274 70.66402069 115.8584078 56.92578125 121.37109375 C42.84044301 126.15315303 28.030929 126.48607963 13.30688477 126.44848633 C10.65666888 126.44526071 8.00750588 126.46912838 5.35742188 126.49414062 C3.66276181 126.49640815 1.96809877 126.49711967 0.2734375 126.49609375 C-0.51396317 126.5053035 -1.30136383 126.51451324 -2.11262512 126.52400208 C-7.48299065 126.4781123 -7.48299065 126.4781123 -9.94213867 124.79760742 C-11.90467966 121.67448793 -12.11739956 118.97390243 -12.13545227 115.38842773 C-12.14260757 114.41259735 -12.14976288 113.43676697 -12.15713501 112.43136597 C-12.16116837 110.82758591 -12.16116837 110.82758591 -12.1652832 109.19140625 C-12.1718544 108.06437286 -12.1784256 106.93733948 -12.18519592 105.77615356 C-12.20493329 102.04087258 -12.21658995 98.30563172 -12.2265625 94.5703125 C-12.23063803 93.29703094 -12.23471355 92.02374939 -12.23891258 90.71188354 C-12.25762009 84.67253675 -12.27218878 78.63321436 -12.28052455 72.59384632 C-12.2903097 65.61968116 -12.31666721 58.64583231 -12.35702544 51.67177868 C-12.39077787 45.63241536 -12.4026654 39.59320621 -12.40672874 33.55374146 C-12.41161533 30.98281706 -12.42328759 28.41189656 -12.44176674 25.84103394 C-12.46597059 22.25183505 -12.4652277 18.66347329 -12.45825195 15.07421875 C-12.47106201 14.00503204 -12.48387207 12.93584534 -12.49707031 11.83425903 C-12.4901265 10.85842865 -12.48318268 9.88259827 -12.47602844 8.87719727 C-12.4784168 8.02843521 -12.48080515 7.17967316 -12.48326588 6.30519104 C-11.98828125 4.1328125 -11.98828125 4.1328125 -10.14529705 2.39878845 C-6.6734935 0.36114932 -3.94539986 0.00499102 0 0 Z " fill="#013B62" transform="translate(417.98828125,127.8671875)"/>
<path d="M0 0 C1.18553467 0.01232666 1.18553467 0.01232666 2.39501953 0.02490234 C3.26513672 0.02876953 4.13525391 0.03263672 5.03173828 0.03662109 C5.93794922 0.06111328 6.84416016 0.08560547 7.77783203 0.11083984 C8.67630859 0.11212891 9.57478516 0.11341797 10.50048828 0.11474609 C19.19840302 0.23037568 19.19840302 0.23037568 22.90283203 2.48583984 C25.70149056 5.77052291 28.09670646 9.20493108 30.40673828 12.84521484 C31.05924561 13.86977783 31.71175293 14.89434082 32.3840332 15.94995117 C33.07086182 17.03429443 33.75769043 18.1186377 34.46533203 19.23583984 C35.54885017 20.93895856 36.63343775 22.64139326 37.71803284 24.34382629 C38.79036391 26.02731252 39.86173966 27.71140713 40.93310547 29.39550781 C43.46890416 33.37395846 46.02424128 37.33938045 48.59033203 41.29833984 C49.0125 41.9505249 49.43466797 42.60270996 49.86962891 43.2746582 C52.36914567 47.13217642 54.87979599 50.98229517 57.39501953 54.82958984 C57.98839111 55.73862061 58.5817627 56.64765137 59.19311523 57.58422852 C60.34861707 59.35385434 61.50592099 61.12230517 62.6652832 62.8894043 C63.44995972 64.09149536 63.44995972 64.09149536 64.25048828 65.31787109 C64.94670288 66.38098511 64.94670288 66.38098511 65.65698242 67.46557617 C66.866133 69.42632888 67.88636292 71.42042264 68.90283203 73.48583984 C68.90647766 72.63028503 68.91012329 71.77473022 68.91387939 70.89324951 C68.95174845 62.82981612 69.00858853 54.76678763 69.08673477 46.70363998 C69.12624171 42.55826994 69.15841418 38.41311333 69.17382812 34.26757812 C69.18897388 30.26673862 69.22338136 26.26648576 69.27114105 22.26590729 C69.28597653 20.73974965 69.29387429 19.21350826 69.29471588 17.68727875 C69.29708098 15.54885848 69.32411881 13.41206558 69.35693359 11.27392578 C69.37025726 9.44858307 69.37025726 9.44858307 69.3838501 7.58636475 C69.99988483 3.90602269 70.96992967 2.72026654 73.90283203 0.48583984 C76.22119141 -0.03173828 76.22119141 -0.03173828 78.74658203 -0.04541016 C79.66310547 -0.05056641 80.57962891 -0.05572266 81.52392578 -0.06103516 C82.47396484 -0.04556641 83.42400391 -0.03009766 84.40283203 -0.01416016 C85.35287109 -0.02962891 86.30291016 -0.04509766 87.28173828 -0.06103516 C88.65652344 -0.05330078 88.65652344 -0.05330078 90.05908203 -0.04541016 C90.89246094 -0.04089844 91.72583984 -0.03638672 92.58447266 -0.03173828 C95.97436635 0.72506191 96.87058711 1.61926323 98.90283203 4.48583984 C99.5208032 8.18346808 99.44867409 11.85949705 99.42041016 15.60083008 C99.42741943 16.73455048 99.43442871 17.86827087 99.44165039 19.03634644 C99.45927572 22.78929029 99.44758994 26.54148188 99.43408203 30.29443359 C99.43677581 32.89990891 99.44065727 35.50538324 99.44567871 38.1108551 C99.45295413 43.57423061 99.44337151 49.03738977 99.42431641 54.50073242 C99.40255844 60.81178661 99.4095911 67.12232368 99.43162203 73.43336529 C99.45198232 79.50961743 99.44980006 85.58564083 99.43809509 91.66191292 C99.43542503 94.24511856 99.43870732 96.82833738 99.44801331 99.41152763 C99.45816383 103.02185967 99.44269629 106.63119717 99.42041016 110.24145508 C99.42850708 111.31123093 99.436604 112.38100677 99.44494629 113.48320007 C99.36199565 120.73115995 99.36199565 120.73115995 96.98449707 124.6388092 C91.72580886 129.30476557 83.5150059 127.86411066 76.90283203 127.48583984 C73.18834614 126.95147521 70.88554012 125.60255358 68.35595703 122.72802734 C66.400325 120.05533024 64.65388212 117.29752599 62.90283203 114.48583984 C62.0430987 113.12716928 61.18234703 111.76914279 60.32080078 110.41162109 C58.83235251 108.06152014 57.34714211 105.70956214 55.86889648 103.35302734 C51.23191735 95.96459841 46.47571079 88.65750498 41.68212891 81.36987305 C35.63596863 72.1511675 29.77363259 62.81683147 23.90283203 53.48583984 C23.89696579 54.35614334 23.89109955 55.22644684 23.88505554 56.12312317 C23.8271858 64.31926333 23.75514227 72.51512932 23.66711712 80.7110033 C23.62236235 84.92474778 23.58311774 89.13839443 23.55639648 93.35229492 C23.53041409 97.41788829 23.4900483 101.48310622 23.43964577 105.54846764 C23.42294262 107.100576 23.41144984 108.65274935 23.40521812 110.20493507 C23.39561405 112.37685257 23.36760173 114.54780212 23.33520508 116.71948242 C23.32410202 117.95636307 23.31299896 119.19324371 23.30155945 120.46760559 C22.90283203 123.48583984 22.90283203 123.48583984 21.56330872 125.34623718 C17.89842246 127.86148727 14.33014738 127.65060033 10.02783203 127.67333984 C8.81353516 127.68751953 7.59923828 127.70169922 6.34814453 127.71630859 C2.29875262 127.4454309 -0.51062702 126.73502453 -3.71349525 124.21320248 C-5.54336147 121.92881652 -5.47430397 120.58034926 -5.4781189 117.67225647 C-5.48657837 116.68104294 -5.49503784 115.68982941 -5.50375366 114.6685791 C-5.49768097 113.58226196 -5.49160828 112.49594482 -5.48535156 111.37670898 C-5.49060852 110.23177475 -5.49586548 109.08684052 -5.50128174 107.9072113 C-5.51451636 104.11166862 -5.50573048 100.31654326 -5.49560547 96.52099609 C-5.49762534 93.88927632 -5.50053605 91.25755709 -5.50430298 88.62583923 C-5.50976241 83.10524961 -5.5025649 77.58478034 -5.48828125 72.06420898 C-5.47196233 65.68336552 -5.47723676 59.30280975 -5.49376047 52.92197329 C-5.50902049 46.78328009 -5.50739776 40.64471433 -5.49861526 34.50601006 C-5.49661109 31.89406736 -5.49908012 29.28211734 -5.50605392 26.67018318 C-5.51365681 23.02137831 -5.50207923 19.37312867 -5.48535156 15.72436523 C-5.4944606 14.09792587 -5.4944606 14.09792587 -5.50375366 12.43862915 C-5.49529419 11.44459579 -5.48683472 10.45056244 -5.4781189 9.42640686 C-5.47698782 8.56381791 -5.47585674 7.70122896 -5.47469139 6.81250095 C-4.9089798 3.32604401 -3.5525385 0.82299786 0 0 Z " fill="#023D63" transform="translate(1023.09716796875,127.51416015625)"/>
<path d="M0 0 C1.3035141 -0.01418472 1.3035141 -0.01418472 2.63336182 -0.02865601 C4.03639557 -0.01954697 4.03639557 -0.01954697 5.46777344 -0.01025391 C6.44518494 -0.01312408 7.42259644 -0.01599426 8.42962646 -0.01895142 C10.50419695 -0.02099344 12.57878663 -0.01545396 14.65332031 -0.00292969 C17.77422323 0.0129149 20.89378957 -0.00266531 24.01464844 -0.02197266 C40.45337932 -0.0402036 58.97655831 -0.04410811 71.98730469 11.53271484 C80.36620981 20.45906204 81.76350763 29.19871875 81.82714844 41.07568359 C81.84777344 42.01863281 81.86839844 42.96158203 81.88964844 43.93310547 C81.94776536 54.5031207 79.33888522 63.17974964 72.57714844 71.38818359 C69.18201184 74.75392507 65.39444937 77.52594634 61.57714844 80.38818359 C63.36681406 83.53515906 65.15937961 86.68047513 66.95214844 89.82568359 C67.49000977 90.77185547 68.02787109 91.71802734 68.58203125 92.69287109 C71.20396552 97.29167281 73.84838282 101.86983165 76.60058594 106.39208984 C77.06158691 107.15400635 77.52258789 107.91592285 77.99755859 108.70092773 C78.86561715 110.12893665 79.74253746 111.55160674 80.62939453 112.96801758 C84.510019 119.37401331 84.510019 119.37401331 83.57714844 123.38818359 C80.61510512 126.17049229 78.56768482 126.77097427 74.54980469 126.78662109 C73.11411133 126.79242188 73.11411133 126.79242188 71.64941406 126.79833984 C70.15958008 126.7809375 70.15958008 126.7809375 68.63964844 126.76318359 C67.65029297 126.77478516 66.6609375 126.78638672 65.64160156 126.79833984 C64.68318359 126.79447266 63.72476563 126.79060547 62.73730469 126.78662109 C61.86726807 126.7832373 60.99723145 126.77985352 60.10083008 126.77636719 C56.87817446 126.28066994 55.14894259 125.40424098 52.57714844 123.38818359 C50.80371094 120.51245117 50.80371094 120.51245117 49.20214844 117.03271484 C48.91033691 116.41224777 48.61852539 115.7917807 48.31787109 115.1525116 C47.39034743 113.17471565 46.48285401 111.18855283 45.57714844 109.20068359 C43.8025582 105.35778762 42.01391043 101.52356798 40.16699219 97.71484375 C39.22419036 95.74208304 38.32328903 93.74686073 37.51855469 91.71386719 C36.40542932 89.28675579 35.73348448 87.98053229 33.57714844 86.38818359 C28.8882282 85.43440851 24.35137584 85.28481737 19.57714844 85.38818359 C19.59285889 86.55913574 19.60856934 87.73008789 19.62475586 88.93652344 C19.6789604 93.27125193 19.71346381 97.60595035 19.74194336 101.94091797 C19.75705168 103.81889886 19.77753938 105.69684435 19.8034668 107.57470703 C19.8397609 110.27043378 19.85685389 112.96569505 19.87011719 115.66162109 C19.88560104 116.50437592 19.9010849 117.34713074 19.91703796 118.21542358 C19.91772461 120.58105469 19.91772461 120.58105469 19.57714844 124.38818359 C15.33233175 127.21806138 11.69411874 126.75608264 6.70214844 126.76318359 C5.80367187 126.78767578 4.90519531 126.81216797 3.97949219 126.83740234 C2.67044922 126.84320313 2.67044922 126.84320313 1.33496094 126.84912109 C0.54234863 126.85733887 -0.25026367 126.86555664 -1.06689453 126.87402344 C-4.63719161 126.13776528 -5.96649411 125.13778414 -8.42285156 122.38818359 C-9.19491583 118.6236299 -9.09491373 114.88897678 -9.05395508 111.05786133 C-9.06111038 109.9014212 -9.06826569 108.74498108 -9.07563782 107.55349731 C-9.09256509 103.72585716 -9.07309796 99.89938141 -9.05175781 96.07177734 C-9.05258608 93.41665577 -9.05498818 90.76157493 -9.05906677 88.10646057 C-9.06358671 82.54048206 -9.04772304 76.97483972 -9.01977539 71.40893555 C-8.98770774 64.97286238 -8.98774533 58.53739499 -9.00499016 52.10127872 C-9.02084899 45.90968185 -9.01412703 39.71830719 -8.99705315 33.52672005 C-8.99185928 30.89162761 -8.99236764 28.25651772 -8.9985981 25.62142754 C-9.00402972 21.94360303 -8.98373961 18.26681755 -8.95629883 14.58911133 C-8.96282471 13.49344345 -8.96935059 12.39777557 -8.97607422 11.26890564 C-8.96334976 10.26927795 -8.95062531 9.26965027 -8.93751526 8.23973083 C-8.93330488 6.93535143 -8.93330488 6.93535143 -8.92900944 5.60462093 C-8.42285156 3.38818359 -8.42285156 3.38818359 -6.5231657 1.60877132 C-4.12833518 0.21702678 -2.75162204 0.00864098 0 0 Z " fill="#013B61" transform="translate(535.4228515625,127.61181640625)"/>
<path d="M0 0 C6.81575445 5.95835859 6.81575445 5.95835859 7.33203125 10.63671875 C6.84081058 15.50040986 4.08690574 16.96866955 0.4609375 19.9296875 C-7.19746406 25.69183947 -7.19746406 25.69183947 -11.859375 25.89453125 C-14.80635008 24.83362022 -16.69565206 23.67609121 -19.234375 21.89453125 C-28.0804748 15.77144054 -37.36572292 14.67356945 -47.984375 15.76953125 C-56.42569023 17.87986006 -62.42942047 22.06633746 -67.171875 29.39453125 C-73.76969195 41.08357702 -74.58763171 53.08549667 -71.01953125 65.9140625 C-67.9138267 74.4811192 -61.90904996 81.07810406 -54.22265625 85.8671875 C-46.9983651 89.23643392 -37.53569179 88.91915142 -29.96875 87.0078125 C-22.56457665 84.20353727 -18.15271547 80.87078283 -14.78125 73.671875 C-14.10881401 72.06659889 -13.53474593 70.42064403 -12.984375 68.76953125 C-13.94476685 68.80095215 -13.94476685 68.80095215 -14.92456055 68.83300781 C-17.84017075 68.91642409 -20.75552952 68.96827094 -23.671875 69.01953125 C-24.67927734 69.05304688 -25.68667969 69.0865625 -26.72460938 69.12109375 C-34.22896228 69.22016112 -34.22896228 69.22016112 -38.140625 66.88671875 C-42.15270559 62.27962621 -41.37688397 55.59972539 -40.984375 49.76953125 C-40.109375 46.70703125 -40.109375 46.70703125 -38.984375 44.76953125 C-36.61508466 43.58488608 -35.14966354 43.63045074 -32.50634766 43.60839844 C-31.57843414 43.59879089 -30.65052063 43.58918335 -29.69448853 43.57928467 C-28.18669327 43.57290985 -28.18669327 43.57290985 -26.6484375 43.56640625 C-25.61753998 43.56070618 -24.58664246 43.5550061 -23.52450562 43.5491333 C-21.34056629 43.53967589 -19.15661266 43.53314639 -16.97265625 43.52929688 C-13.62995532 43.51959101 -10.28786903 43.4885741 -6.9453125 43.45703125 C-4.82552449 43.45050137 -2.70573208 43.44525084 -0.5859375 43.44140625 C0.41521088 43.42905945 1.41635925 43.41671265 2.44784546 43.4039917 C3.38206329 43.4069928 4.31628113 43.4099939 5.27880859 43.41308594 C6.50886124 43.40761749 6.50886124 43.40761749 7.76376343 43.40203857 C10.5953288 43.86413604 11.96400566 44.7851657 14.015625 46.76953125 C14.51733398 49.98071289 14.51733398 49.98071289 14.51171875 53.9296875 C14.51317398 54.6341954 14.51462921 55.33870331 14.51612854 56.06455994 C14.5144687 57.5583 14.5028976 59.05205702 14.48217773 60.5456543 C14.45353096 62.8000834 14.46150309 65.05211254 14.47460938 67.30664062 C14.45570315 81.29327129 11.86115784 91.21703831 2.23828125 101.70703125 C-11.37887108 114.60446094 -27.66941754 117.5937254 -45.6953125 117.11328125 C-59.35963174 116.43754664 -74.63702096 110.01022216 -83.984375 99.76953125 C-98.01488579 83.3302425 -103.33383499 65.55699112 -102.19580078 44.22802734 C-100.8312724 28.36105178 -94.27603893 14.92515104 -82.984375 3.76953125 C-82.36949219 3.13273437 -81.75460937 2.4959375 -81.12109375 1.83984375 C-59.02683686 -19.45012542 -23.5062779 -17.56817367 0 0 Z " fill="#013B61" transform="translate(848.984375,139.23046875)"/>
<path d="M0 0 C1.49080078 -0.0309375 1.49080078 -0.0309375 3.01171875 -0.0625 C6.91459268 -0.08339892 10.3228488 0.00743969 14.0703125 1.140625 C17.44030232 4.60031036 18.6095361 8.72528876 20.125 13.25 C20.4977002 14.35037598 20.87040039 15.45075195 21.25439453 16.58447266 C22.33984818 19.83996351 23.40823013 23.1002775 24.47018433 26.36346436 C31.501319 47.91843149 39.210251 69.22886181 46.90234375 90.5546875 C47.27674591 91.59409988 47.65114807 92.63351227 48.03689575 93.704422 C49.60698289 98.06019374 51.18118108 102.41384423 52.7902832 106.75537109 C53.02892593 107.4052298 53.26756866 108.0550885 53.51344299 108.72463989 C54.11086697 110.34967852 54.71473717 111.97234366 55.31933594 113.59472656 C56.45035609 117.32229481 56.51072889 120.39271108 56.125 124.25 C48.19804427 127.47452437 39.82329595 128.87220275 31.421875 126.48046875 C27.47967775 124.36857736 26.39785132 122.06479049 24.9921875 117.8671875 C24.66476562 116.63226563 24.33734375 115.39734375 24 114.125 C22.86141919 109.57482896 22.86141919 109.57482896 21.125 105.25 C7.595 105.25 -5.935 105.25 -19.875 105.25 C-22.37813989 110.88206476 -24.40095475 115.54922863 -25.96875 121.3046875 C-27.16305369 123.86832214 -28.48483323 124.75666537 -30.875 126.25 C-33.19335938 126.63818359 -33.19335938 126.63818359 -35.71875 126.6484375 C-36.63527344 126.65230469 -37.55179688 126.65617187 -38.49609375 126.66015625 C-39.44613281 126.64855469 -40.39617188 126.63695312 -41.375 126.625 C-42.32503906 126.63660156 -43.27507813 126.64820313 -44.25390625 126.66015625 C-45.62869141 126.65435547 -45.62869141 126.65435547 -47.03125 126.6484375 C-47.86462891 126.64505371 -48.69800781 126.64166992 -49.55664062 126.63818359 C-52.351467 126.17022088 -53.75958368 125.08851343 -55.875 123.25 C-55.25485897 116.90306329 -53.35074101 111.23458142 -51.26953125 105.2265625 C-50.90784348 104.16698334 -50.5461557 103.10740417 -50.17350769 102.01571655 C-49.01730093 98.63346054 -47.85245161 95.25425264 -46.6875 91.875 C-45.92327738 89.6421155 -45.15960036 87.40904419 -44.39648438 85.17578125 C-41.24593261 75.97015445 -38.07315167 66.77382639 -34.8046875 57.609375 C-32.47114845 51.05661691 -30.27796389 44.46187596 -28.11328125 37.8515625 C-27.79198746 36.8727713 -27.47069366 35.8939801 -27.1396637 34.88552856 C-25.81492453 30.84813963 -24.49082051 26.81062429 -23.18041992 22.76855469 C-22.20790635 19.77263509 -21.22411721 16.78062025 -20.23828125 13.7890625 C-19.94448074 12.87355621 -19.65068024 11.95804993 -19.34797668 11.01480103 C-19.06725815 10.16896454 -18.78653961 9.32312805 -18.49731445 8.45166016 C-18.25560013 7.71017731 -18.0138858 6.96869446 -17.7648468 6.20474243 C-16.76068722 3.99888706 -15.74467284 2.78229462 -13.875 1.25 C-9.31219699 -0.27093434 -4.77955432 0.02460517 0 0 Z " fill="#013B61" transform="translate(687.875,127.75)"/>
<path d="M0 0 C0.80191269 -0.00622879 1.60382538 -0.01245758 2.43003845 -0.01887512 C3.29560867 -0.00966537 4.16117889 -0.00045563 5.05297852 0.0090332 C5.95250748 0.0085347 6.85203644 0.00803619 7.77882385 0.00752258 C9.68785808 0.00986493 11.59689528 0.0196029 13.50585938 0.03613281 C16.38969512 0.05947299 19.27258953 0.05672625 22.15649414 0.05004883 C51.29768053 0.09415424 51.29768053 0.09415424 59.74438477 8.01293945 C65.45782086 14.33068128 66.40774695 19.72015354 66.23657227 28.14575195 C65.75525228 34.55817623 64.28947029 38.51894724 59.43188477 42.80981445 C57.63997031 44.22407812 56.03709249 45.35096059 53.99438477 46.37231445 C54.52547852 46.67524414 55.05657227 46.97817383 55.60375977 47.2902832 C62.07476465 51.1280142 65.99644464 54.99374287 68.45532227 62.20825195 C70.4376925 70.16646291 68.82722342 78.5924215 64.67016602 85.60668945 C59.42921785 92.92475881 53.76204351 97.30106434 44.99438477 99.37231445 C41.14502814 99.76487161 37.33375758 99.77054011 33.46704102 99.7355957 C32.39691269 99.73609421 31.32678436 99.73659271 30.22422791 99.73710632 C27.97954434 99.73477929 25.73485749 99.7251325 23.49023438 99.70849609 C20.04281585 99.68471741 16.59616237 99.68796867 13.14868164 99.69458008 C10.96313013 99.6890088 8.77758188 99.6819024 6.59204102 99.6730957 C5.55878189 99.67400711 4.52552277 99.67491852 3.46095276 99.67585754 C2.5091362 99.66632553 1.55731964 99.65679352 0.57666016 99.64697266 C-0.26223251 99.64236526 -1.10112518 99.63775787 -1.96543884 99.63301086 C-4.00561523 99.37231445 -4.00561523 99.37231445 -6.00561523 97.37231445 C-6.23931069 94.40755933 -6.34853866 91.53247044 -6.37207031 88.56396484 C-6.38693481 87.65165604 -6.40179932 86.73934723 -6.41711426 85.7993927 C-6.46342872 82.77296433 -6.49494045 79.74659989 -6.52514648 76.7199707 C-6.5514651 74.62250738 -6.57821933 72.52504948 -6.60539246 70.42759705 C-6.65989008 66.026811 -6.70665754 61.62602115 -6.74853516 57.22509766 C-6.80323861 51.57752498 -6.88072569 45.93052547 -6.96448231 40.28331852 C-7.02561109 35.95036533 -7.07280182 31.61734404 -7.115942 27.28417778 C-7.13872365 25.20165719 -7.16631412 23.1191836 -7.19874001 21.03679085 C-7.24231495 18.127812 -7.2667088 15.21928509 -7.28613281 12.31005859 C-7.30312729 11.44501709 -7.32012177 10.57997559 -7.33763123 9.6887207 C-7.34805104 3.79219513 -7.34805104 3.79219513 -5.60175514 1.65095901 C-3.59872142 0.04635771 -2.54538354 -0.00227812 0 0 Z " fill="#023A60" transform="translate(722.005615234375,291.627685546875)"/>
<path d="M0 0 C0.84840958 -0.00945648 1.69681915 -0.01891296 2.57093811 -0.02865601 C3.48653 -0.02258331 4.40212189 -0.01651062 5.34545898 -0.01025391 C6.29412338 -0.01312408 7.24278778 -0.01599426 8.22019958 -0.01895142 C10.23176671 -0.02099434 12.2433536 -0.01544858 14.25488281 -0.00292969 C17.3057217 0.01299655 20.35521055 -0.00270604 23.40600586 -0.02197266 C25.36499312 -0.01998784 27.32397956 -0.01613924 29.28295898 -0.01025391 C30.18438126 -0.0163266 31.08580353 -0.02239929 32.01454163 -0.02865601 C42.44023307 0.08460445 49.96763066 2.57258861 57.50952148 9.84130859 C67.37533101 20.91275061 67.59100454 31.62518963 67.01000977 45.84619141 C66.55703562 50.83177999 64.8025716 54.48176391 61.77905273 58.38818359 C61.38331055 58.96181641 60.98756836 59.53544922 60.57983398 60.12646484 C55.590725 66.80623534 48.79714199 70.58113486 40.77905273 72.38818359 C36.58076539 72.72444583 32.42464938 72.67460811 28.21655273 72.57568359 C27.1124707 72.56214844 26.00838867 72.54861328 24.87084961 72.53466797 C22.17306002 72.49963174 19.47632637 72.4505095 16.77905273 72.38818359 C16.78952637 73.06397461 16.8 73.73976563 16.81079102 74.43603516 C16.85241249 77.50338001 16.87839846 80.57066538 16.90405273 83.63818359 C16.92081055 84.70166016 16.93756836 85.76513672 16.95483398 86.86083984 C16.9612793 87.88564453 16.96772461 88.91044922 16.97436523 89.96630859 C16.98483887 90.90893555 16.9953125 91.8515625 17.00610352 92.82275391 C16.76709885 95.52324966 16.24269455 97.12111224 14.77905273 99.38818359 C11.50883315 101.02329339 7.93171522 100.61446658 4.34155273 100.63818359 C3.56489258 100.65880859 2.78823242 100.67943359 1.98803711 100.70068359 C-3.74582232 100.74019339 -3.74582232 100.74019339 -5.94347572 99.11199951 C-8.22566403 96.03242208 -7.63509317 92.15786539 -7.60913086 88.46630859 C-7.61438782 87.55385376 -7.61964478 86.64139893 -7.62506104 85.70129395 C-7.63828303 82.68008389 -7.6295151 79.65939916 -7.61938477 76.63818359 C-7.62140487 74.54215392 -7.62431577 72.44612492 -7.62808228 70.35009766 C-7.63250861 65.95517288 -7.62606453 61.56043089 -7.61206055 57.16552734 C-7.59496859 51.52599539 -7.6048081 45.88689172 -7.62277794 40.24737549 C-7.63360735 35.91858684 -7.63017329 31.58990008 -7.62239456 27.2611084 C-7.62039023 25.18143666 -7.62285998 23.10175574 -7.62983322 21.02209473 C-7.63743377 18.11783261 -7.62586299 15.21426858 -7.60913086 12.31005859 C-7.61520355 11.44658813 -7.62127625 10.58311768 -7.62753296 9.69348145 C-7.5645907 3.81017879 -7.5645907 3.81017879 -5.81988049 1.6676693 C-3.76626601 0.02434215 -2.61109837 0.00836715 0 0 Z " fill="#013A60" transform="translate(625.220947265625,291.61181640625)"/>
<path d="M0 0 C1.28293945 -0.0309375 1.28293945 -0.0309375 2.59179688 -0.0625 C10.9754542 -0.1144514 10.9754542 -0.1144514 14.6875 3.25 C16.5900228 5.90854389 18.176392 8.6998468 19.75 11.5625 C20.59343745 13.05950461 21.43846421 14.555615 22.28515625 16.05078125 C22.68621582 16.76314941 23.08727539 17.47551758 23.50048828 18.20947266 C25.11128919 20.97851297 26.87140827 23.61184366 28.6875 26.25 C29.05512451 25.60450195 29.42274902 24.95900391 29.80151367 24.29394531 C31.48226285 21.35652915 33.17841765 18.42829748 34.875 15.5 C35.45314453 14.48421875 36.03128906 13.4684375 36.62695312 12.421875 C37.19736328 11.4421875 37.76777344 10.4625 38.35546875 9.453125 C38.87391357 8.55239258 39.3923584 7.65166016 39.92651367 6.72363281 C42.42614437 3.21243661 44.81833887 0.61860873 49.15112305 -0.23583984 C49.99199463 -0.22762207 50.83286621 -0.2194043 51.69921875 -0.2109375 C52.62154297 -0.20707031 53.54386719 -0.20320313 54.49414062 -0.19921875 C55.44482422 -0.17472656 56.39550781 -0.15023438 57.375 -0.125 C58.33728516 -0.12371094 59.29957031 -0.12242187 60.29101562 -0.12109375 C67.40628332 -0.03121668 67.40628332 -0.03121668 69.6875 2.25 C69.60556209 8.69851368 66.82274868 12.81643199 63.3125 18.0625 C62.52178101 19.29504517 62.52178101 19.29504517 61.71508789 20.55249023 C58.98272728 24.81019187 56.17363843 28.99835855 53.26953125 33.140625 C52.22118713 34.69780423 51.17300364 36.25509161 50.125 37.8125 C49.60566895 38.51286377 49.08633789 39.21322754 48.55126953 39.93481445 C47.12414641 42.09384132 46.21647705 43.71296999 45.6875 46.25 C46.65473029 50.02277963 48.57774326 53.00541975 50.6875 56.25 C51.20932861 57.10698486 51.73115723 57.96396973 52.26879883 58.84692383 C53.93181533 61.54985891 55.64642754 64.21357358 57.375 66.875 C58.60949402 68.80200709 59.84386804 70.72909106 61.078125 72.65625 C63.32379703 76.14527498 65.58527297 79.62320958 67.859375 83.09375 C68.7814076 84.52073151 69.70329296 85.94780818 70.625 87.375 C71.05578857 88.01904785 71.48657715 88.6630957 71.93041992 89.32666016 C74.71727117 93.66802161 74.71727117 93.66802161 74.56640625 96.6171875 C73.6875 98.25 73.6875 98.25 71.6875 99.25 C68.25782766 99.59494411 64.81975594 99.62058913 61.375 99.6875 C60.42431641 99.73326172 59.47363281 99.77902344 58.49414062 99.82617188 C51.473258 99.93901625 51.473258 99.93901625 47.83203125 96.74609375 C47.07729452 95.60616013 46.36428346 94.4378722 45.6875 93.25 C45.28233154 92.60377686 44.87716309 91.95755371 44.4597168 91.29174805 C43.15668228 89.17653619 41.91673404 87.03384228 40.6875 84.875 C38.16140094 80.48590289 35.63136669 76.10053096 33 71.7734375 C32.60425781 71.12036621 32.20851563 70.46729492 31.80078125 69.79443359 C30.75338653 68.0895838 30.75338653 68.0895838 28.6875 67.25 C28.42251709 67.95358643 28.15753418 68.65717285 27.88452148 69.38208008 C25.62623707 74.7926587 22.60540268 79.82433705 19.75 84.9375 C19.11642578 86.09056641 18.48285156 87.24363281 17.83007812 88.43164062 C17.21712891 89.53056641 16.60417969 90.62949219 15.97265625 91.76171875 C15.13553101 93.26931763 15.13553101 93.26931763 14.28149414 94.80737305 C12.6875 97.25 12.6875 97.25 9.6875 99.25 C7.45092773 99.50878906 7.45092773 99.50878906 4.87109375 99.515625 C3.47793945 99.51949219 3.47793945 99.51949219 2.05664062 99.5234375 C1.08919922 99.51570313 0.12175781 99.50796875 -0.875 99.5 C-2.33196289 99.51160156 -2.33196289 99.51160156 -3.81835938 99.5234375 C-4.74583984 99.52085937 -5.67332031 99.51828125 -6.62890625 99.515625 C-7.47912354 99.51336914 -8.32934082 99.51111328 -9.20532227 99.50878906 C-11.3125 99.25 -11.3125 99.25 -13.3125 97.25 C-13.03224869 92.36267989 -11.2941208 89.00369406 -8.8125 84.84765625 C-8.28437965 83.95441147 -8.28437965 83.95441147 -7.74559021 83.04312134 C-6.61008733 81.12747972 -5.46157831 79.2200233 -4.3125 77.3125 C-3.53311732 76.00349789 -2.75455381 74.69400771 -1.97680664 73.3840332 C-0.09797375 70.22423505 1.79108354 67.07072382 3.68475342 63.9197998 C5.06666637 61.61860226 6.441595 59.31325806 7.81640625 57.0078125 C9.76277853 53.7486758 11.71960587 50.49618433 13.6875 47.25 C13.33300781 46.69957031 12.97851562 46.14914062 12.61328125 45.58203125 C7.81709538 38.0916199 3.13825997 30.53146391 -1.51635742 22.95239258 C-2.04849854 22.0889624 -2.58063965 21.22553223 -3.12890625 20.3359375 C-3.64984863 19.48741211 -4.17079102 18.63888672 -4.70751953 17.76464844 C-6.77588887 14.52397242 -9.02442278 11.42263193 -11.32397461 8.34228516 C-12.62827222 5.58164536 -12.28182925 4.09848079 -11.3125 1.25 C-7.8160032 -0.4982484 -3.85201945 0.02291164 0 0 Z " fill="#013A60" transform="translate(825.3125,291.75)"/>
<path d="M0 0 C0.66 0 1.32 0 2 0 C2.01417969 0.59683594 2.02835938 1.19367188 2.04296875 1.80859375 C2.97792535 18.81469631 9.62012744 34.29491853 19.84375 47.7734375 C20.91109375 49.37058594 20.91109375 49.37058594 22 51 C20.65709609 55.02871174 18.48692446 55.67538369 15 58 C10.855213 62.59287208 9.63694992 66.00324476 9.71972656 72.2409668 C10.79586897 82.8345951 15.39787928 93.17942207 19.5625 102.875 C19.82189362 103.48051697 20.08128723 104.08603394 20.34854126 104.7098999 C24.79982338 115.02257659 29.91700254 124.27278412 37 133 C37.75925781 133.95648438 38.51851562 134.91296875 39.30078125 135.8984375 C45.99412603 143.81631961 54.14157199 149.24084597 62.875 154.6875 C66.75472888 157.12129863 69.97443159 159.51601213 73 163 C73.763125 163.86625 74.52625 164.7325 75.3125 165.625 C77 168 77 168 77 171 C77.66 171 78.32 171 79 171 C79.01417969 171.66386719 79.02835937 172.32773437 79.04296875 173.01171875 C79.33243065 179.02487049 79.33243065 179.02487049 82.5625 184 C83.366875 184.66 84.17125 185.32 85 186 C85 186.66 85 187.32 85 188 C72.61612786 190.57465383 56.34490319 191.76408137 45.3125 184.8046875 C30.98776607 173.62558771 18.86571541 155.71561716 12 139 C12.598125 138.360625 13.19625 137.72125 13.8125 137.0625 C17.97653051 131.23285729 19.80386528 125.17232064 18.7265625 118.01953125 C17.44684937 114.46247916 15.09729884 113.04289923 12 111 C12.33 110.34 12.66 109.68 13 109 C13.4757401 105.59755499 13.6011194 102.3900968 13 99 C12.01 98.195625 11.02 97.39125 10 96.5625 C7 94 7 94 6.77734375 91.43359375 C6.83019531 90.46550781 6.88304688 89.49742187 6.9375 88.5 C7.17603221 83.99618583 7.17603221 83.99618583 5.1875 79.9375 C0.68402509 77.20009368 -3.81800283 76.6080452 -9 76 C-16.16135635 59.64945425 -19.68916082 41.76213687 -14.4375 24.1875 C-10.83457415 15.60180436 -5.79509175 7.2852582 0 0 Z " fill="#D92D27" transform="translate(110,133)"/>
<path d="M0 0 C8.41956019 4.3781713 14.10710799 11.8544847 17.30859375 20.640625 C20.66696324 32.10082372 19.93675318 43.86894905 14.74609375 54.58984375 C10.1012053 63.006331 3.99715044 69.08408961 -5.1640625 72.33984375 C-15.68021071 74.78781765 -25.06990001 73.30448834 -34.14453125 67.66796875 C-41.31103074 62.25541177 -46.16480658 52.72260291 -48 44 C-49.30519039 30.41280284 -48.15081372 18.93929436 -39.25 8.0625 C-35.34461203 3.98731255 -31.13217504 1.29427574 -26 -1 C-25.19304688 -1.36609375 -24.38609375 -1.7321875 -23.5546875 -2.109375 C-15.83934653 -4.7991269 -7.36539217 -2.99830124 0 0 Z " fill="#FCFAF0" transform="translate(956,156)"/>
<path d="M0 0 C29.38622129 0 29.38622129 0 39.03515625 8.87109375 C46.81235003 17.87018209 48.67125559 28.81433907 48.32421875 40.41015625 C47.32069765 51.52143205 43.72286733 59.24740928 35.14453125 66.45703125 C24.96530614 73.78088174 11.89531554 72 0 72 C0 48.24 0 24.48 0 0 Z " fill="#FBF9EF" transform="translate(435,155)"/>
<path d="M0 0 C-0.29648438 0.73992187 -0.59296875 1.47984375 -0.8984375 2.2421875 C-1.26195312 3.15226562 -1.62546875 4.06234375 -2 5 C-2.28101563 5.68320312 -2.56203125 6.36640625 -2.8515625 7.0703125 C-6.33072364 16.3129325 -5.89782828 24.97062715 -2 34 C-1.63648438 34.68191406 -1.27296875 35.36382812 -0.8984375 36.06640625 C0 38 0 38 0 41 C-0.76183594 41.14695312 -1.52367187 41.29390625 -2.30859375 41.4453125 C-12.75336733 43.71421463 -20.95305357 47.9631745 -27 57 C-31.29566066 64.34894887 -34.13856708 71.70519364 -36 80 C-52.16540829 81.46958257 -71.93250759 72.68624651 -84.27734375 62.5390625 C-84.84582031 62.03117187 -85.41429687 61.52328125 -86 61 C-86.66128906 60.43023437 -87.32257813 59.86046875 -88.00390625 59.2734375 C-95.80363977 52.08051436 -101.67732288 42.41886596 -104 32 C-104 31.01 -104 30.02 -104 29 C-104.99 29.33 -105.98 29.66 -107 30 C-108.02700444 32.32891096 -108.02700444 32.32891096 -108.6875 35.0625 C-108.93886719 35.98160156 -109.19023438 36.90070313 -109.44921875 37.84765625 C-109.63097656 38.55792969 -109.81273438 39.26820313 -110 40 C-114.75844569 35.24155431 -115.18512504 27.10781776 -115.29296875 20.67578125 C-115.27338757 18.55448654 -115.23814938 16.43328035 -115.1875 14.3125 C-115.17396484 13.21744141 -115.16042969 12.12238281 -115.14648438 10.99414062 C-115.11156837 8.32888586 -115.06253717 5.66472496 -115 3 C-114.34 3 -113.68 3 -113 3 C-111.8606503 4.1393497 -110.72495054 5.2825292 -109.60546875 6.44140625 C-103.79723793 12.08005369 -97.17258445 16.32044722 -90 20 C-90 20.33 -90 20.66 -90 21 C-92.31 21.33 -94.62 21.66 -97 22 C-90.57101865 37.57415848 -84.94960748 49.31306592 -70 58 C-61.52235823 60.82588059 -53.02879713 59.33165674 -45.1171875 55.6171875 C-44.08851563 55.08351563 -43.05984375 54.54984375 -42 54 C-41.41508789 53.6999707 -40.83017578 53.39994141 -40.22753906 53.09082031 C-29.4108486 47.55443497 -29.4108486 47.55443497 -21 39 C-20.31338633 36.88273313 -20.31338633 36.88273313 -20 35 C-20.76054687 34.96003906 -21.52109375 34.92007813 -22.3046875 34.87890625 C-25 34 -25 34 -26.6953125 31.33984375 C-27.16710937 30.21707031 -27.63890625 29.09429687 -28.125 27.9375 C-28.62515625 26.75929688 -29.1253125 25.58109375 -29.640625 24.3671875 C-30.08921875 23.25601562 -30.5378125 22.14484375 -31 21 C-31.34546875 20.19820313 -31.6909375 19.39640625 -32.046875 18.5703125 C-33.71240087 14.5321979 -34.10953672 11.32670046 -34 7 C-22.38770383 1.60142419 -12.95813864 -2.74609561 0 0 Z " fill="#0979A4" transform="translate(230,322)"/>
<path d="M0 0 C-1.98422037 7.73845944 -6.40787435 14.47889279 -13 19 C-16.19698205 20.41952455 -19.50500604 21.52601895 -22.82421875 22.62304688 C-25.05144722 23.38423085 -25.05144722 23.38423085 -28 25 C-29.07193439 27.57840793 -29.07193439 27.57840793 -29 30 C-27.29711802 31.13323463 -25.58741477 32.25622235 -23.875 33.375 C-22.92367187 34.00148437 -21.97234375 34.62796875 -20.9921875 35.2734375 C-15.60525705 38.38182295 -10.23479157 39.97871728 -4 39 C4.45700672 35.76746644 9.84371302 27.92079569 15.5 21.23046875 C18 19 18 19 20.8125 18.67578125 C21.534375 18.78277344 22.25625 18.88976562 23 19 C15.2565095 36.49731025 -1.20077106 55.76681644 -18.8125 63.875 C-28.49260271 67.29150684 -38.59106156 67.1353802 -48 63 C-49.33886526 62.34451388 -50.67384677 61.6808376 -52 61 C-51.7834375 60.29875 -51.566875 59.5975 -51.34375 58.875 C-49.29831802 51.90537992 -47.78947084 46.15038568 -49.875 39 C-52.58957432 35.16765978 -55.86957823 32.71272327 -59.625 29.9296875 C-62.85159981 27.30807515 -64.6952584 25.24667018 -65.6875 21.1875 C-64.6194249 16.23551544 -61.05525878 13.81464424 -57 11 C-56.01 10.67 -55.02 10.34 -54 10 C-51.94921875 11.14453125 -51.94921875 11.14453125 -49.6875 12.8125 C-46.23832686 15.34670924 -43.27501375 17.30631852 -39 18 C-36.53885568 16.49766376 -34.7298248 15.1489146 -32.625 13.25 C-27.85887495 9.24037025 -24.34607592 6.74659717 -18 6 C-18 5.34 -18 4.68 -18 4 C-15.94037148 3.32451422 -13.87715678 2.65995688 -11.8125 2 C-10.66394531 1.62875 -9.51539063 1.2575 -8.33203125 0.875 C-5.35679188 0.09369447 -3.04716104 -0.18363306 0 0 Z " fill="#F9F6ED" transform="translate(193,179)"/>
<path d="M0 0 C2.36470547 1.97058789 4.69211449 3.96414662 7 6 C7.63679688 6.556875 8.27359375 7.11375 8.9296875 7.6875 C30.52038025 27.80412939 46.99581312 67.67518687 48.11352539 96.97607422 C48.10828857 97.9920166 48.10305176 99.00795898 48.09765625 100.0546875 C48.09443359 101.16328125 48.09121094 102.271875 48.08789062 103.4140625 C48.07532227 105.12722656 48.07532227 105.12722656 48.0625 106.875 C48.05798828 108.0403125 48.05347656 109.205625 48.04882812 110.40625 C48.03708781 113.27088645 48.0206657 116.13541633 48 119 C47.34 119 46.68 119 46 119 C45.484375 117.9275 44.96875 116.855 44.4375 115.75 C42.04355935 111.51126638 39.33414428 110.08681021 35 108 C34.01 107.505 34.01 107.505 33 107 C31.31707913 106.85040703 29.62681577 106.77851166 27.9375 106.75 C27.03902344 106.72421875 26.14054687 106.6984375 25.21484375 106.671875 C22.2808302 106.97133689 20.06585917 107.56833968 17.29907227 108.52050781 C16.49276871 108.7959845 15.68646515 109.07146118 14.85572815 109.35528564 C14.24333786 109.56804138 13.63094757 109.78079712 13 110 C13.00444122 109.27353775 13.00888245 108.5470755 13.01345825 107.79859924 C13.0539281 100.87261293 13.08418073 93.94664482 13.10362434 87.0205698 C13.11395727 83.46182171 13.12791828 79.90317322 13.15087891 76.34448242 C13.5923808 49.24015836 13.5923808 49.24015836 8.75 22.6875 C8.53964111 21.94822266 8.32928223 21.20894531 8.11254883 20.44726562 C6.38632765 14.66514681 4.05393775 9.47817426 1.13671875 4.1875 C0 2 0 2 0 0 Z " fill="#D92D28" transform="translate(315,148)"/>
<path d="M0 0 C0.66 0 1.32 0 2 0 C4.72058743 6.56992922 6.64389977 13.19892037 8.1875 20.125 C8.35411133 20.86411621 8.52072266 21.60323242 8.69238281 22.36474609 C10.56539745 31.05099571 11.15718628 39.57553834 11.16796875 48.44921875 C11.17296135 49.91183891 11.17296135 49.91183891 11.17805481 51.40400696 C11.18308979 53.45707736 11.1854642 55.51015585 11.18530273 57.56323242 C11.18748167 60.66143696 11.20565372 63.75928047 11.22460938 66.85742188 C11.25359466 77.42813366 11.00094022 87.58490775 9 98 C8.34 98 7.68 98 7 98 C7 97.34 7 96.68 7 96 C6.2575 95.71125 5.515 95.4225 4.75 95.125 C2 94 2 94 0.18359375 92.953125 C-4.91243901 90.72873861 -11.42252764 91.19287424 -16.64453125 92.828125 C-18.82744674 93.79830966 -20.90983758 94.84535382 -23 96 C-24.98 96.99 -24.98 96.99 -27 98 C-30.63 94.37 -34.26 90.74 -38 87 C-36.22545829 83.45091659 -35.27208529 82.11304569 -32.5 79.5625 C-19.58807335 66.86071321 -10.5126543 51.2129818 -5 34 C-4.72671875 33.29359375 -4.4534375 32.5871875 -4.171875 31.859375 C-0.37928426 21.82016421 0.45139385 10.65791027 0 0 Z " fill="#D92D27" transform="translate(313,157)"/>
<path d="M0 0 C3.135 -0.061875 6.27 -0.12375 9.5 -0.1875 C10.95696289 -0.22846802 10.95696289 -0.22846802 12.44335938 -0.27026367 C18.34101689 -0.32604908 22.64448456 0.48398604 28 3 C31.74729294 6.84590591 34.27124726 10.81255741 34.4375 16.25 C34.31609733 21.51367275 32.32137887 25.01073516 29 29 C24.86499018 32.75035775 22.5179803 34.12941368 16.9921875 34.09765625 C16.1038623 34.09515869 15.21553711 34.09266113 14.30029297 34.09008789 C13.16994629 34.08098389 12.03959961 34.07187988 10.875 34.0625 C5.491875 34.0315625 5.491875 34.0315625 0 34 C0 22.78 0 11.56 0 0 Z " fill="#FCFAF1" transform="translate(555,153)"/>
<path d="M0 0 C4.94809846 5.31920584 6.213113 13.47613047 5.99609375 20.625 C5.22185861 23.84386735 3.36001208 25.73444497 1.0078125 27.984375 C-3.08119314 32.60304459 -2.75182763 37.68056285 -2.625 43.5 C-2.61146484 44.68239258 -2.61146484 44.68239258 -2.59765625 45.88867188 C-2.57422504 47.82174666 -2.53835838 49.7546638 -2.5 51.6875 C-5.78337318 47.83853457 -8.2198315 43.8873901 -10.5625 39.4375 C-10.91320557 38.77435791 -11.26391113 38.11121582 -11.62524414 37.42797852 C-16.58162236 27.87515648 -18.68896562 19.07180581 -18.5625 8.3125 C-18.55798828 7.57644531 -18.55347656 6.84039062 -18.54882812 6.08203125 C-18.53715142 4.28381842 -18.51922011 2.48564803 -18.5 0.6875 C-12.75826265 -2.68206417 -6.09010426 -2.2837891 0 0 Z " fill="#DA2C27" transform="translate(137.5,126.3125)"/>
<path d="M0 0 C4.2384375 -0.0928125 4.2384375 -0.0928125 8.5625 -0.1875 C9.43849854 -0.21481201 10.31449707 -0.24212402 11.21704102 -0.27026367 C16.59041996 -0.3266978 20.25439274 0.43349811 25 3 C28.05383667 6.36705069 28.92627851 8.34703824 29.4375 12.875 C29.17051348 17.84285625 27.80895924 22.73077302 24.6796875 26.65625 C19.26775823 30.98579342 9.59517283 30.52035309 3 30 C2.01 29.67 1.02 29.34 0 29 C0 19.43 0 9.86 0 0 Z " fill="#FAF8F0" transform="translate(640,314)"/>
<path d="M0 0 C23.36788896 9.34715558 39.4616161 35.58859805 49.05224609 57.70019531 C59.58245514 83.25263458 59.58245514 83.25263458 57 91 C56.34 91 55.68 91 55 91 C55.33 91.66 55.66 92.32 56 93 C56.039992 94.99960012 56.04346799 97.00047242 56 99 C55.67 99 55.34 99 55 99 C54.82460693 98.26587891 54.64921387 97.53175781 54.46850586 96.77539062 C51.04689959 82.61457373 47.63114073 69.00859618 41 56 C40.62472168 55.24283691 40.24944336 54.48567383 39.86279297 53.70556641 C31.91663804 37.71388955 23.06372896 24.26796882 10 12 C10.45052734 12.92232422 10.45052734 12.92232422 10.91015625 13.86328125 C11.29042969 14.67152344 11.67070312 15.47976562 12.0625 16.3125 C12.44535156 17.11300781 12.82820313 17.91351563 13.22265625 18.73828125 C14 21 14 21 13 24 C12.67 23.67 12.34 23.34 12 23 C11.34 23.66 10.68 24.32 10 25 C9.67 23.35 9.34 21.7 9 20 C8.34 20 7.68 20 7 20 C7.33 20.66 7.66 21.32 8 22 C8.35294118 29.29411765 8.35294118 29.29411765 6 34 C5.67 29.71 5.34 25.42 5 21 C2.23776722 23.76223278 2.42143709 26.20706617 2 30 C1.67 30 1.34 30 1 30 C0.67 20.1 0.34 10.2 0 0 Z " fill="#063D63" transform="translate(306,137)"/>
<path d="M0 0 C0.66 0 1.32 0 2 0 C3.8570048 6.35213454 5.7077797 12.70605984 7.55419922 19.0612793 C8.18329264 21.22380822 8.81382016 23.38592049 9.44580078 25.54760742 C10.3530454 28.65175129 11.25515104 31.75734862 12.15625 34.86328125 C12.44060913 35.83211746 12.72496826 36.80095367 13.01794434 37.79914856 C13.27821411 38.6998558 13.53848389 39.60056305 13.80664062 40.52856445 C14.03758423 41.32132278 14.26852783 42.11408112 14.50646973 42.93086243 C15 45 15 45 15 48 C5.76 48 -3.48 48 -13 48 C-9.62692308 34.50769231 -9.62692308 34.50769231 -7.7734375 27.96875 C-7.58028961 27.28494263 -7.38714172 26.60113525 -7.18814087 25.89660645 C-6.58545571 23.76392013 -5.98037331 21.63192464 -5.375 19.5 C-4.76292367 17.33938985 -4.15137066 15.17863339 -3.54043579 13.0177002 C-2.99199791 11.07857126 -2.442088 9.13985884 -1.89208984 7.20117188 C-1.22481901 4.80673971 -0.58286301 2.41590308 0 0 Z " fill="#F9F8EF" transform="translate(687,160)"/>
<path d="M0 0 C5.32463644 0.30542848 9.77344285 3.02062295 14.3125 5.625 C13.81551652 10.98289042 12.49807777 14.75304302 9.875 19.4375 C9.25753906 20.55769531 8.64007813 21.67789062 8.00390625 22.83203125 C6.3125 25.625 6.3125 25.625 4.3125 27.625 C-4.15563525 29.28713398 -11.99188836 25.72985772 -19.6875 22.625 C-18.3809647 17.88094937 -16.54504162 14.80794413 -13.375 11.0625 C-12.61574219 10.15371094 -11.85648438 9.24492187 -11.07421875 8.30859375 C-4.33880872 0.73539131 -4.33880872 0.73539131 0 0 Z " fill="#D92D28" transform="translate(199.6875,235.375)"/>
<path d="M0 0 C3.89699187 -0.13499972 7.78930653 -0.2341331 11.6875 -0.3125 C13.34168945 -0.3753418 13.34168945 -0.3753418 15.02929688 -0.43945312 C23.20760476 -0.56299252 23.20760476 -0.56299252 27.23828125 2.30078125 C29.54763199 5.83905478 29.59358186 7.844927 29 12 C27.17370118 16.22932359 25.17979869 18.12868706 21 20 C17.38780467 20.36326242 13.81313695 20.28246296 10.1875 20.1875 C9.20845703 20.17396484 8.22941406 20.16042969 7.22070312 20.14648438 C4.81356459 20.11125796 2.40671057 20.05745463 0 20 C0 13.4 0 6.8 0 0 Z " fill="#F9F8F0" transform="translate(739,351)"/>
<path d="M0 0 C5.73879684 0.08290397 11.70128584 0.44113754 17.1875 2.1875 C19.51211041 4.60170996 20.12706693 5.78173511 20.625 9.125 C20.07167301 12.99828893 19.01720111 14.50673053 16.1875 17.1875 C11.53868215 19.17008408 7.29408435 19.43800503 2.3125 19.3125 C1.62414062 19.30347656 0.93578125 19.29445313 0.2265625 19.28515625 C-1.45327838 19.26182513 -3.13293746 19.22596326 -4.8125 19.1875 C-4.83933987 16.20827407 -4.85926037 13.22928705 -4.875 10.25 C-4.88337891 9.39986328 -4.89175781 8.54972656 -4.90039062 7.67382812 C-4.90361328 6.86494141 -4.90683594 6.05605469 -4.91015625 5.22265625 C-4.91539307 4.4737915 -4.92062988 3.72492676 -4.92602539 2.95336914 C-4.70481427 -0.48753419 -3.57253272 0.17569833 0 0 Z " fill="#F7F6EF" transform="translate(743.8125,311.8125)"/>
<path d="M0 0 C0.88816406 0.16371094 1.77632812 0.32742187 2.69140625 0.49609375 C8.40994221 1.31302746 14.174698 1.10509035 19.9375 1.0625 C21.09830078 1.05798828 22.25910156 1.05347656 23.45507812 1.04882812 C26.30343934 1.03710647 29.15169222 1.0206976 32 1 C30.70727369 5.28547627 29.3720817 7.7599274 26.375 11.078125 C23.40005673 15.23628434 21.80708263 20.24775716 20 25 C12.86611385 20.75002527 8.69545054 14.7437432 4 8 C3.25105469 6.92621094 2.50210938 5.85242188 1.73046875 4.74609375 C0 2 0 2 0 0 Z " fill="#0878A3" transform="translate(143,249)"/>
<path d="M0 0 C2.3125 0.65234375 2.3125 0.65234375 5.3125 2.65234375 C3.25438547 9.94929528 -0.38684207 18.1518738 -6.6875 22.65234375 C-12.38809003 22.75990205 -16.82925893 20.36538746 -21.6875 17.65234375 C-17.63052539 8.3923565 -10.83936584 -1.15010713 0 0 Z " fill="#D92D28" transform="translate(223.6875,214.34765625)"/>
<path d="M0 0 C0.39832031 1.07378906 0.79664063 2.14757812 1.20703125 3.25390625 C1.74209782 4.69013758 2.27725914 6.12633362 2.8125 7.5625 C3.20405273 8.61920898 3.20405273 8.61920898 3.60351562 9.69726562 C4.88260747 13.12396846 6.2049364 16.50076838 7.69921875 19.83984375 C9 23 9 23 9 26 C0.65970451 25.58298523 -4.45554281 19.76406058 -9.8125 13.9375 C-17 5.88495575 -17 5.88495575 -17 2 C-15.29301718 1.65981837 -13.58432867 1.3281911 -11.875 1 C-10.92367187 0.814375 -9.97234375 0.62875 -8.9921875 0.4375 C-5.95041204 -0.00725046 -3.06942607 -0.07286471 0 0 Z " fill="#D72D29" transform="translate(190,331)"/>
<path d="M0 0 C8.36241922 0.01220791 16.31205897 3.60073727 24.0625 6.4375 C24.0625 7.4275 24.0625 8.4175 24.0625 9.4375 C23.0725 9.52386719 22.0825 9.61023438 21.0625 9.69921875 C13.41051273 10.47236206 7.1574059 11.40845203 1.0625 16.4375 C0.0725 17.200625 -0.9175 17.96375 -1.9375 18.75 C-2.5975 19.306875 -3.2575 19.86375 -3.9375 20.4375 C-5.5875 19.4475 -7.2375 18.4575 -8.9375 17.4375 C-7.8481599 0.87201777 -7.8481599 0.87201777 0 0 Z " fill="#D72D28" transform="translate(178.9375,262.5625)"/>
<path d="M0 0 C2.375 1.625 2.375 1.625 4 4 C4.5625 7.0625 4.5625 7.0625 4 10 C1.47203943 12.0074981 -1.1002555 13.04296664 -4.0625 14.3125 C-8.2311073 16.70723185 -10.30841358 19.80997632 -11.75 24.375 C-11.87375 25.179375 -11.87375 25.179375 -12 26 C-12.66 26 -13.32 26 -14 26 C-15.75260333 20.74219002 -15.7949163 15.46347234 -15 10 C-11.47050404 3.32906785 -7.82937056 -0.78293706 0 0 Z " fill="#087BA6" transform="translate(116,231)"/>
<path d="M0 0 C0.28139404 7.62890496 -0.58065027 13.7419508 -3 21 C-4.95803507 21.05389087 -6.91648909 21.09274217 -8.875 21.125 C-10.51082031 21.15980469 -10.51082031 21.15980469 -12.1796875 21.1953125 C-15 21 -15 21 -17 19 C-15.76766576 16.53533151 -14.53390402 14.07166939 -13.2890625 11.61328125 C-12.31040882 9.62928333 -11.41599618 7.60346914 -10.5625 5.5625 C-8.05181344 1.44497405 -4.75123219 0 0 0 Z " fill="#D82D29" transform="translate(234,191)"/>
<path d="M0 0 C0.66 0 1.32 0 2 0 C8.59525648 8.17983109 14 17.32426014 14 28 C10.04 27.67 6.08 27.34 2 27 C1.93941406 25.89140625 1.87882812 24.7828125 1.81640625 23.640625 C1.73197049 22.1770718 1.64732401 20.71353075 1.5625 19.25 C1.52318359 18.52039063 1.48386719 17.79078125 1.44335938 17.0390625 C1.22441568 12.97841055 1.22441568 12.97841055 0.48413086 8.99121094 C-0.24322779 5.99961379 -0.05890304 3.06295788 0 0 Z " fill="#D92D27" transform="translate(320,333)"/>
<path d="M0 0 C7.44278936 1.30662302 12.5468612 8.30868394 16.7734375 14.10546875 C19.44183743 18.2270419 20 19.79776728 20 25 C15.05 24.01 10.1 23.02 5 22 C4.9175 19.669375 4.835 17.33875 4.75 14.9375 C4.44621931 8.99107302 3.6293705 4.80013517 0 0 Z " fill="#D42E2B" transform="translate(211,68)"/>
<path d="M0 0 C0.33 1.65 0.66 3.3 1 5 C1.66 5 2.32 5 3 5 C3.45826062 10.7282577 2.55825861 13.4998494 -1 18 C-1.66 18.66 -2.32 19.32 -3 20 C-6 19.8125 -6 19.8125 -9 19 C-11.81172128 14.78241808 -11.9318711 10.95155239 -11 6 C-8.27535368 2.29748982 -4.58557322 0 0 0 Z " fill="#04395F" transform="translate(203,134)"/>
<path d="M0 0 C8.0413824 2.28956027 16.61807893 5.3792677 21 13 C20.90625 15.48046875 20.90625 15.48046875 20 18 C17.71484375 19.58203125 17.71484375 19.58203125 14.9375 20.8125 C14.01839844 21.23144531 13.09929687 21.65039062 12.15234375 22.08203125 C11.44207031 22.38496094 10.73179687 22.68789062 10 23 C9.68546875 22.05898437 9.3709375 21.11796875 9.046875 20.1484375 C8.61890625 18.90320313 8.1909375 17.65796875 7.75 16.375 C7.12351563 14.53035156 7.12351563 14.53035156 6.484375 12.6484375 C5.01723493 9.04236165 3.21038987 6.18771101 1 3 C0.67 2.01 0.34 1.02 0 0 Z " fill="#D82D28" transform="translate(177,76)"/>
<path d="M0 0 C0.99 0.66 1.98 1.32 3 2 C3 2.99 3 3.98 3 5 C2.278125 5.226875 1.55625 5.45375 0.8125 5.6875 C-4.35751019 8.10017142 -7.32452448 12.07149247 -10 17 C-13.87132028 16.42647107 -16.08172796 14.51295648 -19 12 C-18.45550236 8.20527027 -16.96207612 6.72968732 -14.0625 4.3125 C-13.35222656 3.71050781 -12.64195312 3.10851562 -11.91015625 2.48828125 C-8.20810721 -0.39613733 -4.57246472 -0.53420875 0 0 Z " fill="#D72D29" transform="translate(200,276)"/>
<path d="M0 0 C2.71738275 -0.19110239 4.47660482 -0.29706213 6.87890625 1.06640625 C10.96578865 4.69813701 13.55129781 8.10259562 16 13 C12.6805603 16.55654254 10.27270623 18.8414391 5.3125 19.1875 C3 19 3 19 2 18 C1.77486899 16.66197814 1.60639193 15.31426977 1.46484375 13.96484375 C1.37783203 13.15595703 1.29082031 12.34707031 1.20117188 11.51367188 C1.0706543 10.2384668 1.0706543 10.2384668 0.9375 8.9375 C0.80118164 7.65649414 0.80118164 7.65649414 0.66210938 6.34960938 C0.43749278 4.23348465 0.21824773 2.11679106 0 0 Z " fill="#D92D27" transform="translate(263,151)"/>
<path d="M0 0 C2.89907925 0.32211992 4.82381756 0.89048119 7.3125 2.4375 C9.85334265 6.29581662 9.87016306 10.50023786 9 15 C5.50875983 17.32749345 4.10777749 17.50299316 0 17 C-2.375 15.5 -2.375 15.5 -4 13 C-4.62388198 8.08692938 -4.75777063 6.13665594 -2 2 C-1.34 1.34 -0.68 0.68 0 0 Z " fill="#D82D28" transform="translate(237,99)"/>
<path d="M0 0 C2.3125 0.5625 2.3125 0.5625 5.3125 2.5625 C4.4375 9.3125 4.4375 9.3125 3.3125 11.5625 C1.7645567 12.12512346 0.19842204 12.63815641 -1.375 13.125 C-6.73803121 15.13037413 -8.84496951 17.84474106 -11.62890625 22.734375 C-11.97824219 23.33765625 -12.32757813 23.9409375 -12.6875 24.5625 C-13.0175 24.5625 -13.3475 24.5625 -13.6875 24.5625 C-14.58404567 16.31427983 -10.66678994 9.80995915 -5.6875 3.4375 C-3.64789114 1.20913556 -3.0334104 0.63489985 0 0 Z " fill="#097AA4" transform="translate(108.6875,214.4375)"/>
<path d="M0 0 C1.9375 1.0625 1.9375 1.0625 3 3 C3 6.4375 3 6.4375 2 10 C-1.1988259 13.11680472 -3.57424395 14.94180588 -8.0625 15.125 C-11 15 -11 15 -12 14 C-12.5573482 8.31504837 -11.58551703 5.42916809 -8 1 C-5.20129973 -0.39935013 -3.09501208 -0.25265405 0 0 Z " fill="#0975A0" transform="translate(122,249)"/>
<path d="M0 0 C0.33 0.66 0.66 1.32 1 2 C1.99 2.33 2.98 2.66 4 3 C5.03886637 5.83136125 5.8758261 8.52863659 6.625 11.4375 C6.8422876 12.26282227 7.0595752 13.08814453 7.28344727 13.93847656 C10.11368707 24.99808235 9.97335032 33.68177586 8 45 C7.67 45 7.34 45 7 45 C7 41.37 7 37.74 7 34 C6.34 34.66 5.68 35.32 5 36 C4.90203125 35.07960937 4.8040625 34.15921875 4.703125 33.2109375 C3.75347866 25.17169006 2.29745993 17.84504918 -0.1953125 10.12109375 C-1.01824777 6.92922347 -1.22163049 4.28109484 -1 1 C-0.67 0.67 -0.34 0.34 0 0 Z " fill="#1E3B61" transform="translate(318,159)"/>
<path d="M0 0 C8.05054187 5.32954867 15.65365151 12.30730302 20 21 C16.04 21.33 12.08 21.66 8 22 C7.51080078 20.82244141 7.51080078 20.82244141 7.01171875 19.62109375 C6.35623047 18.04521484 6.35623047 18.04521484 5.6875 16.4375 C5.23375 15.344375 4.78 14.25125 4.3125 13.125 C3.29975659 10.71370617 2.25712988 8.32359743 1.1875 5.9375 C0 3 0 3 0 0 Z " fill="#D82D28" transform="translate(308,291)"/>
<path d="M0 0 C4.42750456 1.39150143 7.1523841 3.31485002 10 7 C10.25 9.9375 10.25 9.9375 9 13 C6.89754084 15.34258775 4.68398095 17.34741784 2 19 C1.01 19 0.02 19 -1 19 C-1.12086218 12.56744599 -0.82351864 6.38226945 0 0 Z " fill="#D82D27" transform="translate(266,188)"/>
<path d="M0 0 C3.69628969 -0.21742881 6.45781172 -0.20764658 9.9375 1.125 C12 3 12 3 12.625 5.8125 C11.78082471 10.11779398 10.00303261 11.84681576 7 15 C4 14 4 14 2.578125 11.85546875 C2.13984375 10.97503906 1.7015625 10.09460938 1.25 9.1875 C0.80140625 8.31480469 0.3528125 7.44210938 -0.109375 6.54296875 C-1.06982104 3.80064256 -1.02018585 2.6686569 0 0 Z " fill="#D82D28" transform="translate(247,94)"/>
<path d="M0 0 C0 0.66 0 1.32 0 2 C0.598125 2.268125 1.19625 2.53625 1.8125 2.8125 C4.01819033 4.00987475 5.43583187 5.04478984 7 7 C7 7.99 7 8.98 7 10 C3.55835531 8.47038014 0.90848242 6.37270934 -2 4 C-5.94482335 2.02758833 -10.69961189 2.55813668 -15 3 C-19.42312593 5.39585988 -21.03390633 8.44694097 -23 13 C-25 11 -25 11 -25.0625 8.25 C-23.58883912 3.74233144 -20.79382424 1.68984767 -17 -1 C-11.66183851 -3.66908074 -5.41568989 -1.52019365 0 0 Z " fill="#003E65" transform="translate(211,118)"/>
<path d="M0 0 C2.375 1.6875 2.375 1.6875 4 4 C4.25 6.75 4.25 6.75 4 9 C2.25 9.75 2.25 9.75 0 10 C-2.125 8.125 -2.125 8.125 -4 6 C-4.66 5.67 -5.32 5.34 -6 5 C-4.7934375 6.1446875 -4.7934375 6.1446875 -3.5625 7.3125 C-1 10 -1 10 0 13 C-6.75 12.25 -6.75 12.25 -9 10 C-9.1953125 7.8359375 -9.1953125 7.8359375 -9.125 5.375 C-9.10695312 4.55773437 -9.08890625 3.74046875 -9.0703125 2.8984375 C-9.04710937 2.27195313 -9.02390625 1.64546875 -9 1 C-5.68377419 -0.1054086 -3.47482175 -0.35457365 0 0 Z " fill="#003F64" transform="translate(158,159)"/>
<path d="M0 0 C3.82877162 3.10440942 4.8045227 5.49203226 5.4375 10.375 C4.97907053 14.17341563 4.89088561 14.57310731 2.1875 16.875 C-1 19 -1 19 -4 20 C-3.71125 19.360625 -3.4225 18.72125 -3.125 18.0625 C-1.6752275 14.11589708 -0.84221938 10.1125393 0 6 C-0.66 6 -1.32 6 -2 6 C-2.33 4.35 -2.66 2.7 -3 1 C-7.455 2.485 -7.455 2.485 -12 4 C-7.74936535 -0.39232247 -6.1282197 -1.59333712 0 0 Z " fill="#EDEFEA" transform="translate(206,133)"/>
<path d="M0 0 C1.22203125 0.43505859 1.22203125 0.43505859 2.46875 0.87890625 C7.87221679 2.59890513 14.65935172 4.09610539 19.96875 1.44140625 C19.39530063 4.30865311 19.1072985 5.30285775 16.96875 7.44140625 C17.29875 8.10140625 17.62875 8.76140625 17.96875 9.44140625 C13.95544452 8.89906767 10.07325852 8.01376001 6.15625 7.00390625 C5.20105469 6.75769531 4.24585938 6.51148438 3.26171875 6.2578125 C0.96875 5.44140625 0.96875 5.44140625 -0.03125 3.44140625 C-2.05588255 2.78927333 -2.05588255 2.78927333 -4.03125 2.44140625 C-4.03125 1.78140625 -4.03125 1.12140625 -4.03125 0.44140625 C-2.03125 -0.55859375 -2.03125 -0.55859375 0 0 Z " fill="#213B61" transform="translate(186.03125,259.55859375)"/>
<path d="M0 0 C3.54408195 1.18136065 4.80985835 2.95719011 7.12890625 5.78515625 C9.32695092 8.38701706 11.66297778 10.83490502 14 13.3125 C18.30367152 18.03937673 22.63018932 22.98432673 25 29 C24.64453125 31.28515625 24.64453125 31.28515625 24 33 C23.52691406 32.17757812 23.05382812 31.35515625 22.56640625 30.5078125 C17.14631474 21.35810636 11.22398428 13.37880158 2.9375 6.5625 C1.968125 5.716875 0.99875 4.87125 0 4 C0 2.66666667 0 1.33333333 0 0 Z " fill="#193D65" transform="translate(315,145)"/>
<path d="M0 0 C0.33 0 0.66 0 1 0 C1.05418326 2.08304538 1.09287551 4.16649768 1.125 6.25 C1.14820313 7.41015625 1.17140625 8.5703125 1.1953125 9.765625 C1.0103949 12.82786046 0.60823023 14.44202751 -1 17 C-3.64 16.67 -6.28 16.34 -9 16 C-8.41248535 12.68525684 -7.35951919 10.9943076 -5.0625 8.5625 C-2.62694317 5.85243197 -1.07282638 3.54032705 0 0 Z " fill="#DB2D25" transform="translate(262,76)"/>
<path d="M0 0 C0.33 0 0.66 0 1 0 C1 1.65 1 3.3 1 5 C2.32 5.33 3.64 5.66 5 6 C4.731875 6.495 4.46375 6.99 4.1875 7.5 C2.56124507 10.9236946 1.30484829 14.44132285 0 18 C-0.66 18 -1.32 18 -2 18 C-3.14077657 14.57767028 -3.09815117 11.91326783 -3.0625 8.3125 C-3.05347656 7.13300781 -3.04445313 5.95351562 -3.03515625 4.73828125 C-3.02355469 3.83464844 -3.01195313 2.93101562 -3 2 C-2.34 2 -1.68 2 -1 2 C-0.67 1.34 -0.34 0.68 0 0 Z " fill="#0778A3" transform="translate(104,239)"/>
<path d="M0 0 C1.31611677 0.95336021 2.62778961 1.91285774 3.9375 2.875 C4.66839844 3.40867188 5.39929688 3.94234375 6.15234375 4.4921875 C8 6 8 6 9 8 C9.25 11.4375 9.25 11.4375 9 15 C7.484375 16.72265625 7.484375 16.72265625 6 18 C4.9936345 15.56495491 3.99473587 13.12729136 3 10.6875 C2.71382812 9.99720703 2.42765625 9.30691406 2.1328125 8.59570312 C0.91089256 5.58454326 0 3.28113016 0 0 Z " fill="#087AA5" transform="translate(128,213)"/>
<path d="M0 0 C0.66 0 1.32 0 2 0 C5.85880936 6.75291638 5.28506966 13.38758424 5 21 C4.34 21.33 3.68 21.66 3 22 C1.38364512 19.13026116 0.7266582 16.95535797 0.5859375 13.671875 C0.54726562 12.87265625 0.50859375 12.0734375 0.46875 11.25 C0.4378125 10.425 0.406875 9.6 0.375 8.75 C0.33632812 7.90953125 0.29765625 7.0690625 0.2578125 6.203125 C0.16384164 4.13576618 0.08084436 2.06791373 0 0 Z " fill="#003E64" transform="translate(237,156)"/>
<path d="M0 0 C0.86625 0.37125 0.86625 0.37125 1.75 0.75 C1.43279301 4.23927692 1.08692769 6.30850854 -1.0625 9.125 C-3.25 10.75 -3.25 10.75 -7.25 10.75 C-6.95535939 6.91967201 -6.71954688 4.39765087 -4.4375 1.25 C-2.25 -0.25 -2.25 -0.25 0 0 Z " fill="#57ACC5" transform="translate(112.25,233.25)"/>
<path d="M0 0 C0.66 0 1.32 0 2 0 C2 0.66 2 1.32 2 2 C1.34 2 0.68 2 0 2 C0 1.34 0 0.68 0 0 Z M0 3 C-0.99 3.33 -1.98 3.66 -3 4 C-3 4.66 -3 5.32 -3 6 C-8.94 6 -14.88 6 -21 6 C-21 5.01 -21 4.02 -21 3 C-17.87549468 2.80354907 -14.75038555 2.61936511 -11.625 2.4375 C-10.29082031 2.35338867 -10.29082031 2.35338867 -8.9296875 2.26757812 C-7.65351562 2.19506836 -7.65351562 2.19506836 -6.3515625 2.12109375 C-5.56604004 2.0739624 -4.78051758 2.02683105 -3.97119141 1.97827148 C-2 2 -2 2 0 3 Z " fill="#D5DDDD" transform="translate(899,388)"/>
<path d="M0 0 C3.06506511 1.21176993 5.42118961 1.21442141 8.6875 1.0625 C8.6875 2.0525 8.6875 3.0425 8.6875 4.0625 C8.0275 4.0625 7.3675 4.0625 6.6875 4.0625 C6.9659375 5.238125 6.9659375 5.238125 7.25 6.4375 C7.6875 9.0625 7.6875 9.0625 6.6875 11.0625 C5.6975 10.7325 4.7075 10.4025 3.6875 10.0625 C4.0175 8.7425 4.3475 7.4225 4.6875 6.0625 C3.78 5.77375 2.8725 5.485 1.9375 5.1875 C-0.63452908 4.29718224 -2.92596766 3.34755587 -5.3125 2.0625 C-5.3125 1.4025 -5.3125 0.7425 -5.3125 0.0625 C-2.3125 -0.9375 -2.3125 -0.9375 0 0 Z " fill="#1F3B62" transform="translate(209.3125,234.9375)"/>
<path d="M0 0 C-0.49230769 6.4 -0.49230769 6.4 -3.0625 9.4375 C-4.0215625 10.2109375 -4.0215625 10.2109375 -5 11 C-5.99 10.67 -6.98 10.34 -8 10 C-7.39457203 3.58246347 -7.39457203 3.58246347 -5.6875 1.0625 C-4 0 -4 0 0 0 Z " fill="#79BFD0" transform="translate(121,250)"/>
<path d="M0 0 C0.33 0 0.66 0 1 0 C1 9.9 1 19.8 1 30 C2.32 30 3.64 30 5 30 C5 32.31 5 34.62 5 37 C4.34 35.68 3.68 34.36 3 33 C3 36.96 3 40.92 3 45 C2.67 45 2.34 45 2 45 C0.21596457 34.75637833 -0.25425093 24.98458359 -0.125 14.625 C-0.11493182 13.1953189 -0.10581288 11.76563079 -0.09765625 10.3359375 C-0.0759886 6.89047521 -0.04167943 3.4452854 0 0 Z " fill="#413B5E" transform="translate(324,205)"/>
<path d="M0 0 C0.556875 0.268125 1.11375 0.53625 1.6875 0.8125 C1.10728222 4.0673802 0.16102859 5.74902408 -2.1875 8.0625 C-2.70054688 8.58328125 -3.21359375 9.1040625 -3.7421875 9.640625 C-5.3125 10.8125 -5.3125 10.8125 -8.3125 10.8125 C-8.03683285 6.86127078 -7.48535643 5.03207438 -5 1.875 C-2.3125 -0.1875 -2.3125 -0.1875 0 0 Z " fill="#6DB9CD" transform="translate(107.3125,217.1875)"/>
<path d="M0 0 C1.54286547 2.31429821 2.89992755 4.54571028 4.1875 7 C4.55230469 7.680625 4.91710937 8.36125 5.29296875 9.0625 C6 11 6 11 5 14 C4.01 13.34 3.02 12.68 2 12 C2 13.98 2 15.96 2 18 C1.67 18 1.34 18 1 18 C0.96132812 17.11248047 0.96132812 17.11248047 0.921875 16.20703125 C0.54295586 10.9279987 -0.10636661 7.89363339 -4 4 C-3.01 4 -2.02 4 -1 4 C-0.67 2.68 -0.34 1.36 0 0 Z " fill="#1A3D64" transform="translate(245,95)"/>
<path d="M0 0 C0.99 0 1.98 0 3 0 C3 0.99 3 1.98 3 3 C5.97 3 8.94 3 12 3 C11.34 5.97 10.68 8.94 10 12 C9.34 10.68 8.68 9.36 8 8 C5.83718718 6.8774351 5.83718718 6.8774351 3.375 6.25 C2.55773437 6.00765625 1.74046875 5.7653125 0.8984375 5.515625 C0.27195313 5.34546875 -0.35453125 5.1753125 -1 5 C-0.67 3.35 -0.34 1.7 0 0 Z " fill="#293C62" transform="translate(250,89)"/>
<path d="M0 0 C2.37079387 3.34700312 1.97902376 6.02174184 1.359375 9.9609375 C1.24078125 10.63382813 1.1221875 11.30671875 1 12 C0.814375 13.155 0.62875 14.31 0.4375 15.5 C0.2209375 16.7375 0.2209375 16.7375 0 18 C-0.33 18 -0.66 18 -1 18 C-1.33848652 16.10507994 -1.67056911 14.20901534 -2 12.3125 C-2.185625 11.25675781 -2.37125 10.20101562 -2.5625 9.11328125 C-2.95068074 6.35095938 -3.08259976 3.78257957 -3 1 C-2.01 2.485 -2.01 2.485 -1 4 C-0.67 2.68 -0.34 1.36 0 0 Z " fill="#073C64" transform="translate(324,174)"/>
<path d="M0 0 C2.475 0.495 2.475 0.495 5 1 C5 1.66 5 2.32 5 3 C5.598125 3.268125 6.19625 3.53625 6.8125 3.8125 C9.01819033 5.00987475 10.43583187 6.04478984 12 8 C12 8.99 12 9.98 12 11 C7.39201894 8.95200842 3.29917619 5.82009874 0 2 C0 1.34 0 0.68 0 0 Z " fill="#004E75" transform="translate(206,117)"/>
<path d="M0 0 C0.66 0 1.32 0 2 0 C1.41125507 3.94388172 0.21364728 6.82350283 -1.8125 10.25 C-2.31394531 11.12140625 -2.81539062 11.9928125 -3.33203125 12.890625 C-5 15 -5 15 -7.19921875 15.796875 C-7.79347656 15.86390625 -8.38773438 15.9309375 -9 16 C-8.60167969 15.34773437 -8.20335937 14.69546875 -7.79296875 14.0234375 C-5.00509512 9.42446348 -2.30278632 4.86143779 0 0 Z " fill="#1E3C63" transform="translate(228,219)"/>
<path d="M0 0 C2.60444348 -0.05394705 5.20776998 -0.09364469 7.8125 -0.125 C8.55048828 -0.14175781 9.28847656 -0.15851563 10.04882812 -0.17578125 C13.91246426 -0.21074628 15.70903668 -0.19397555 19 2 C15.23699626 3.25433458 11.72789091 3.10695422 7.8125 3.0625 C7.06291016 3.05798828 6.31332031 3.05347656 5.54101562 3.04882812 C3.69397617 3.03706354 1.84697787 3.01912865 0 3 C0 2.01 0 1.02 0 0 Z " fill="#393B5E" transform="translate(169,322)"/>
<path d="M0 0 C2.40072955 2.88087546 4.47291037 5.56404834 6 9 C3.525 10.485 3.525 10.485 1 12 C0 11 0 11 -0.09765625 8.49609375 C-0.08605469 7.48675781 -0.07445312 6.47742188 -0.0625 5.4375 C-0.05347656 4.42558594 -0.04445313 3.41367188 -0.03515625 2.37109375 C-0.02355469 1.58863281 -0.01195312 0.80617187 0 0 Z " fill="#F4F7F3" transform="translate(1046,179)"/>
<path d="M0 0 C5.05786842 0.47276812 7.87083861 1.9861321 11.875 5.0625 C12.84179688 5.79597656 13.80859375 6.52945313 14.8046875 7.28515625 C15.52914063 7.85105469 16.25359375 8.41695312 17 9 C16.34 9.66 15.68 10.32 15 11 C12.87322106 9.54420484 10.7485458 8.08549775 8.625 6.625 C8.02171875 6.2125 7.4184375 5.8 6.796875 5.375 C4.36217249 3.6977605 2.09532229 2.09532229 0 0 Z " fill="#1D365C" transform="translate(309,117)"/>
<path d="M0 0 C0.33 0 0.66 0 1 0 C1.33 9.24 1.66 18.48 2 28 C1.34 28.33 0.68 28.66 0 29 C-0.99 28.34 -1.98 27.68 -3 27 C-2.01 26.67 -1.02 26.34 0 26 C0 17.42 0 8.84 0 0 Z " fill="#09486C" transform="translate(553,224)"/>
<path d="M0 0 C0.74609375 1.734375 0.74609375 1.734375 1 4 C-0.65234375 6.140625 -0.65234375 6.140625 -2.9375 8.25 C-3.68902344 8.95640625 -4.44054687 9.6628125 -5.21484375 10.390625 C-5.80394531 10.92171875 -6.39304687 11.4528125 -7 12 C-7.66 11.67 -8.32 11.34 -9 11 C-8.43410156 10.37351563 -7.86820313 9.74703125 -7.28515625 9.1015625 C-6.18494141 7.87566406 -6.18494141 7.87566406 -5.0625 6.625 C-4.33160156 5.81289062 -3.60070312 5.00078125 -2.84765625 4.1640625 C-0.97010529 2.14075833 -0.97010529 2.14075833 0 0 Z M-11 12 C-10.34 12.33 -9.68 12.66 -9 13 C-10.98 13.99 -10.98 13.99 -13 15 C-12.34 14.01 -11.68 13.02 -11 12 Z M-15 15 C-14.01 15.495 -14.01 15.495 -13 16 C-13.99 16.495 -13.99 16.495 -15 17 C-15 16.34 -15 15.68 -15 15 Z " fill="#EEF3F1" transform="translate(991,231)"/>
<path d="M0 0 C2 2 2 2 2.1953125 4.3828125 C2.17210937 5.28773438 2.14890625 6.19265625 2.125 7.125 C2.10695313 8.03507813 2.08890625 8.94515625 2.0703125 9.8828125 C2.03550781 10.93082031 2.03550781 10.93082031 2 12 C3.32 12 4.64 12 6 12 C6 12.66 6 13.32 6 14 C4.33388095 14.042721 2.66617115 14.04063832 1 14 C0 13 0 13 -0.09765625 10.05859375 C-0.08605469 8.86363281 -0.07445312 7.66867188 -0.0625 6.4375 C-0.05347656 5.23996094 -0.04445313 4.04242188 -0.03515625 2.80859375 C-0.02355469 1.88175781 -0.01195312 0.95492187 0 0 Z " fill="#C22F31" transform="translate(265,156)"/>
<path d="M0 0 C0.66 0 1.32 0 2 0 C4.04169485 2.90548882 5 4.40142046 5 8 C3 9.6875 3 9.6875 1 11 C-0.17571451 7.32589215 -0.07366746 3.83070817 0 0 Z " fill="#CF302F" transform="translate(320,333)"/>
<path d="M0 0 C0.33 0 0.66 0 1 0 C2.45295405 9.99562363 2.45295405 9.99562363 0.5625 14.1875 C0.046875 14.785625 -0.46875 15.38375 -1 16 C-2.26823485 12.34606463 -1.75715321 9.50929974 -1.0625 5.75 C-0.86785156 4.67234375 -0.67320312 3.5946875 -0.47265625 2.484375 C-0.31667969 1.66453125 -0.16070312 0.8446875 0 0 Z " fill="#173C63" transform="translate(324,236)"/>
<path d="M0 0 C0.66 0.33 1.32 0.66 2 1 C1.71125 1.52207031 1.4225 2.04414063 1.125 2.58203125 C-0.75307462 6.61858746 -1.78303051 10.92556418 -3 15.19921875 C-4 18 -4 18 -6 19 C-4.70024676 12.28460827 -2.70071112 6.27980887 0 0 Z " fill="#08274E" transform="translate(671,134)"/>
<path d="M0 0 C6.85274128 1.16251861 12.09174546 7.62615001 16 13 C15.67 13.66 15.34 14.32 15 15 C14.12988281 13.98679687 14.12988281 13.98679687 13.2421875 12.953125 C9.11263175 8.23752669 5.40566244 4.18795477 0 1 C0 0.67 0 0.34 0 0 Z " fill="#DF2C23" transform="translate(211,68)"/>
<path d="M0 0 C6.875 3.875 6.875 3.875 8 5 C7.71269945 7.33944736 7.38063221 9.6739143 7 12 C5.68 11.34 4.36 10.68 3 10 C3.99 10 4.98 10 6 10 C4.64978174 5.58110387 2.73884332 3.65654657 -1 1 C-0.67 0.67 -0.34 0.34 0 0 Z " fill="#20365B" transform="translate(144,337)"/>
<path d="M0 0 C3.37368681 3.07513046 5.50901962 6.28518856 7.75 10.25 C8.67039062 11.86648438 8.67039062 11.86648438 9.609375 13.515625 C10.06828125 14.33546875 10.5271875 15.1553125 11 16 C9.16015625 15.80078125 9.16015625 15.80078125 7 15 C5.62109375 12.85546875 5.62109375 12.85546875 4.4375 10.1875 C2.90621095 6.78854037 1.34074759 3.91066874 -1 1 C-0.67 0.67 -0.34 0.34 0 0 Z " fill="#EEF3F2" transform="translate(818,306)"/>
<path d="M0 0 C3.22348996 1.07449665 4.04138081 1.86324569 6.1875 4.375 C6.71730469 4.98085937 7.24710937 5.58671875 7.79296875 6.2109375 C9 8 9 8 9 11 C8.52949219 10.57847656 8.05898438 10.15695313 7.57421875 9.72265625 C6.95160156 9.17480469 6.32898438 8.62695312 5.6875 8.0625 C5.07261719 7.51722656 4.45773437 6.97195312 3.82421875 6.41015625 C1.94758042 4.79918441 1.94758042 4.79918441 -1 4 C-0.67 2.68 -0.34 1.36 0 0 Z " fill="#2C3C61" transform="translate(315,145)"/>
<path d="M0 0 C2.31 0.33 4.62 0.66 7 1 C7 1.66 7 2.32 7 3 C5.35 3.33 3.7 3.66 2 4 C2.33 5.65 2.66 7.3 3 9 C0.9375 7.3125 0.9375 7.3125 -1 5 C-0.75 2.25 -0.75 2.25 0 0 Z " fill="#223B5E" transform="translate(165,64)"/>
<path d="M0 0 C5.94 0 11.88 0 18 0 C18 0.33 18 0.66 18 1 C12.555 1.495 12.555 1.495 7 2 C7 2.33 7 2.66 7 3 C4.69 3 2.38 3 0 3 C0 2.01 0 1.02 0 0 Z " fill="#EDF4F2" transform="translate(640,314)"/>
<path d="M0 0 C0.99 0.66 1.98 1.32 3 2 C2.0925 2.350625 1.185 2.70125 0.25 3.0625 C-3.91857529 5.54761219 -4.89152626 7.70195737 -7 12 C-7.66 11.01 -8.32 10.02 -9 9 C-7.87895467 7.68412059 -6.75303035 6.37239647 -5.625 5.0625 C-4.99851562 4.33160156 -4.37203125 3.60070312 -3.7265625 2.84765625 C-2 1 -2 1 0 0 Z " fill="#193D63" transform="translate(129,187)"/>
<path d="M0 0 C0.33 0.66 0.66 1.32 1 2 C8.59 2 16.18 2 24 2 C24 2.33 24 2.66 24 3 C11.625 3.495 11.625 3.495 -1 4 C-0.67 2.68 -0.34 1.36 0 0 Z " fill="#FDFEFB" transform="translate(675,204)"/>
<path d="M0 0 C1.9375 0.3125 1.9375 0.3125 4 1 C4.33 1.99 4.66 2.98 5 4 C5.66 4 6.32 4 7 4 C8.6875 6.25 8.6875 6.25 10 9 C9.58203125 11.171875 9.58203125 11.171875 9 13 C8.60167969 12.39671875 8.20335937 11.7934375 7.79296875 11.171875 C7.26316406 10.37265625 6.73335937 9.5734375 6.1875 8.75 C5.66542969 7.96109375 5.14335937 7.1721875 4.60546875 6.359375 C3.12865878 4.18907519 1.59310127 2.08586232 0 0 Z " fill="#193D65" transform="translate(220,73)"/>
<path d="M0 0 C0.33 0.99 0.66 1.98 1 3 C1.66 3 2.32 3 3 3 C3.625 4.8125 3.625 4.8125 4 7 C3.01 8.485 3.01 8.485 2 10 C1.67 9.01 1.34 8.02 1 7 C0.34 7 -0.32 7 -1 7 C-1.04254356 5.00045254 -1.04080783 2.99958364 -1 1 C-0.67 0.67 -0.34 0.34 0 0 Z " fill="#183D62" transform="translate(142,129)"/>
<path d="M0 0 C8.19256018 -0.4726477 8.19256018 -0.4726477 11.5625 1.5 C12.036875 1.995 12.51125 2.49 13 3 C10.37684968 4.31157516 8.76966564 3.89649988 5.875 3.5625 C4.96492187 3.46066406 4.05484375 3.35882813 3.1171875 3.25390625 C2.41851562 3.17011719 1.71984375 3.08632812 1 3 C0.67 2.01 0.34 1.02 0 0 Z " fill="#223A5E" transform="translate(126,115)"/>
<path d="M0 0 C1.99097846 2.98646769 2.94124926 5.59687262 4 9 C3.01 9 2.02 9 1 9 C0.67 10.32 0.34 11.64 0 13 C-1.28571429 4.57142857 -1.28571429 4.57142857 0 0 Z " fill="#02446B" transform="translate(199,343)"/>
<path d="M0 0 C0.66 0 1.32 0 2 0 C0.61811547 3.21043882 -0.92421903 5.04936365 -3.625 7.25 C-4.57246094 8.03117188 -4.57246094 8.03117188 -5.5390625 8.828125 C-6.02117187 9.21484375 -6.50328125 9.6015625 -7 10 C-7.66 9.34 -8.32 8.68 -9 8 C-8.51789063 7.67386719 -8.03578125 7.34773437 -7.5390625 7.01171875 C-6.90742188 6.57472656 -6.27578125 6.13773438 -5.625 5.6875 C-4.99851563 5.25824219 -4.37203125 4.82898438 -3.7265625 4.38671875 C-1.73621155 2.93079661 -1.73621155 2.93079661 0 0 Z " fill="#E7EAE5" transform="translate(202,208)"/>
<path d="M0 0 C0.99 0.33 1.98 0.66 3 1 C-0.465 3.97 -0.465 3.97 -4 7 C-5.32 6.34 -6.64 5.68 -8 5 C-6.20963542 3.99088542 -4.41927083 2.98177083 -2.62890625 1.97265625 C-1.02121854 1.1027487 -1.02121854 1.1027487 0 0 Z " fill="#EBF0ED" transform="translate(680,356)"/>
<path d="M0 0 C0.66 0.33 1.32 0.66 2 1 C3.33059914 4.99179743 2.81502739 7.26317891 1 11 C0.34 11 -0.32 11 -1 11 C-0.67 7.37 -0.34 3.74 0 0 Z " fill="#00436A" transform="translate(273,268)"/>
<path d="M0 0 C0.66 0 1.32 0 2 0 C2.66 2.31 3.32 4.62 4 7 C3.34 7 2.68 7 2 7 C2 8.98 2 10.96 2 13 C1.67 13 1.34 13 1 13 C0.67 8.71 0.34 4.42 0 0 Z " fill="#004A71" transform="translate(237,156)"/>
<path d="M0 0 C0.33 0.66 0.66 1.32 1 2 C-0.03125 1.95875 -1.0625 1.9175 -2.125 1.875 C-5.86829627 1.99575149 -8.53734547 2.64872018 -12 4 C-7.70811013 -0.43495286 -6.17621209 -1.44549645 0 0 Z " fill="#96C0CA" transform="translate(206,133)"/>
<path d="M0 0 C0.66 0 1.32 0 2 0 C2.639375 0.99 3.27875 1.98 3.9375 3 C4.9584375 4.485 4.9584375 4.485 6 6 C6.99 6 7.98 6 9 6 C7.68 7.32 6.36 8.64 5 10 C3.35 6.7 1.7 3.4 0 0 Z " fill="#E4ECEC" transform="translate(848,309)"/>
<path d="M0 0 C1.32 0.33 2.64 0.66 4 1 C4.103125 1.7425 4.20625 2.485 4.3125 3.25 C5.04253504 6.17014018 6.06789398 7.73187554 8 10 C7.67 10.66 7.34 11.32 7 12 C5.82767315 10.3790787 4.6622923 8.75313167 3.5 7.125 C2.8503125 6.22007812 2.200625 5.31515625 1.53125 4.3828125 C0 2 0 2 0 0 Z " fill="#08284D" transform="translate(1079,229)"/>
<path d="M0 0 C0.33 0.66 0.66 1.32 1 2 C1.66 2.33 2.32 2.66 3 3 C-4.5 4.25 -4.5 4.25 -9 2 C-6.03 1.34 -3.06 0.68 0 0 Z " fill="#234364" transform="translate(265,408)"/>
<path d="M0 0 C1.32 0.33 2.64 0.66 4 1 C4 1.66 4 2.32 4 3 C0.37 3.33 -3.26 3.66 -7 4 C-7 3.34 -7 2.68 -7 2 C-4.69 2 -2.38 2 0 2 C0 1.34 0 0.68 0 0 Z " fill="#CE302E" transform="translate(191,318)"/>
<path d="M0 0 C4.2742558 1.5830577 6.26531794 4.50568404 9 8 C6 8 6 8 4.3125 6.625 C3 5 3 5 3 3 C2.34 3 1.68 3 1 3 C0.67 2.01 0.34 1.02 0 0 Z " fill="#0B294B" transform="translate(317,288)"/>
<path d="M0 0 C0.99 0 1.98 0 3 0 C4.65 2.97 6.3 5.94 8 9 C7.01 9.495 7.01 9.495 6 10 C4.02 6.7 2.04 3.4 0 0 Z " fill="#1D3D64" transform="translate(137,252)"/>
<path d="M0 0 C0.99 0 1.98 0 3 0 C3 0.99 3 1.98 3 3 C2.34 3 1.68 3 1 3 C0.67 4.32 0.34 5.64 0 7 C-0.66 7 -1.32 7 -2 7 C-2.125 4.625 -2.125 4.625 -2 2 C-1.34 1.34 -0.68 0.68 0 0 Z " fill="#66B5CA" transform="translate(110,233)"/>
<path d="M0 0 C4.875 1.75 4.875 1.75 6 4 C6.99 4.66 7.98 5.32 9 6 C8.34 6 7.68 6 7 6 C6.67 6.66 6.34 7.32 6 8 C1.125 3.375 1.125 3.375 0 0 Z " fill="#046D98" transform="translate(152,164)"/>
<path d="M0 0 C3.63 0.66 7.26 1.32 11 2 C11 2.33 11 2.66 11 3 C10.07767578 2.98259766 10.07767578 2.98259766 9.13671875 2.96484375 C7.92435547 2.95130859 7.92435547 2.95130859 6.6875 2.9375 C5.88699219 2.92589844 5.08648437 2.91429687 4.26171875 2.90234375 C1.83138666 2.90342145 1.83138666 2.90342145 -1 4 C-0.67 2.68 -0.34 1.36 0 0 Z " fill="#E2E6E3" transform="translate(319,369)"/>
<path d="M0 0 C2.66735273 2.48952921 4.55746343 4.63408134 6 8 C5.01 8 4.02 8 3 8 C1.02 4.535 1.02 4.535 -1 1 C-0.67 0.67 -0.34 0.34 0 0 Z " fill="#263C62" transform="translate(129,286)"/>
<path d="M0 0 C2.64 0.33 5.28 0.66 8 1 C7.01 2.485 7.01 2.485 6 4 C2.875 4.1875 2.875 4.1875 0 4 C-0.33 3.34 -0.66 2.68 -1 2 C-0.67 1.34 -0.34 0.68 0 0 Z " fill="#0E3B64" transform="translate(190,262)"/>
<path d="M0 0 C2 3.75 2 3.75 2 6 C2.66 6 3.32 6 4 6 C4 6.66 4 7.32 4 8 C2.35 8 0.7 8 -1 8 C-0.67 5.36 -0.34 2.72 0 0 Z " fill="#117EA7" transform="translate(112,256)"/>
<path d="M0 0 C0.33 0.99 0.66 1.98 1 3 C-1.31 4.98 -3.62 6.96 -6 9 C-4.86634892 4.46539569 -3.35806626 3.09975347 0 0 Z " fill="#20345D" transform="translate(203,217)"/>
<path d="M0 0 C2.96865509 2.54456151 4.3619751 5.48994665 6 9 C5.01 9 4.02 9 3 9 C1.68 6.36 0.36 3.72 -1 1 C-0.67 0.67 -0.34 0.34 0 0 Z " fill="#243B62" transform="translate(128,168)"/>
<path d="M0 0 C0.66 0 1.32 0 2 0 C2.33 1.98 2.66 3.96 3 6 C2.01 6 1.02 6 0 6 C-0.33 7.32 -0.66 8.64 -1 10 C-2.27351308 7.45297384 -1.80191925 6.5717055 -1.0625 3.875 C-0.86785156 3.15054688 -0.67320312 2.42609375 -0.47265625 1.6796875 C-0.31667969 1.12539062 -0.16070313 0.57109375 0 0 Z " fill="#DCE8E8" transform="translate(687,160)"/>
<path d="M0 0 C0.33 0 0.66 0 1 0 C1.22142255 1.95689659 1.4267568 3.91561952 1.625 5.875 C1.74101562 6.96554688 1.85703125 8.05609375 1.9765625 9.1796875 C1.98429687 10.11039063 1.99203125 11.04109375 2 12 C1.34 12.66 0.68 13.32 0 14 C-1.03115279 10.73086376 -0.9638984 8.13958652 -0.5625 4.75 C-0.46066406 3.85796875 -0.35882813 2.9659375 -0.25390625 2.046875 C-0.17011719 1.37140625 -0.08632813 0.6959375 0 0 Z " fill="#423C60" transform="translate(263,79)"/>
<path d="M0 0 C2.74277578 3.19990508 4.6302836 6.00499382 6 10 C5.34 10 4.68 10 4 10 C1.1605948 6.32547562 0 4.73113419 0 0 Z " fill="#153D64" transform="translate(325,335)"/>
<path d="M0 0 C0.66 0.66 1.32 1.32 2 2 C0.02 3.98 -1.96 5.96 -4 8 C-4.66 7.67 -5.32 7.34 -6 7 C-4.02 4.69 -2.04 2.38 0 0 Z " fill="#E8EAE6" transform="translate(332,265)"/>
<path d="M0 0 C1 3 1 3 -0.25 5.6875 C-0.8275 6.450625 -1.405 7.21375 -2 8 C-2.99 8 -3.98 8 -5 8 C-4.01 6.02 -3.02 4.04 -2 2 C-1.34 2 -0.68 2 0 2 C0 1.34 0 0.68 0 0 Z " fill="#4AA3BF" transform="translate(113,234)"/>
<path d="M0 0 C0.33 1.32 0.66 2.64 1 4 C0.01 4.33 -0.98 4.66 -2 5 C-3.20882096 7.00016466 -3.20882096 7.00016466 -4 9 C-4.99 9 -5.98 9 -7 9 C-4.69 6.03 -2.38 3.06 0 0 Z " fill="#03214A" transform="translate(835,213)"/>
<path d="M0 0 C2.12508244 3.18762365 2.5020163 5.26512223 3 9 C1.35 9 -0.3 9 -2 9 C-1.34 8.01 -0.68 7.02 0 6 C-0.27942455 4.32345271 -0.60828247 2.65391846 -1 1 C-0.67 0.67 -0.34 0.34 0 0 Z " fill="#EFF5F3" transform="translate(699,199)"/>
<path d="M0 0 C2.71675995 0.36712972 4.61063713 0.72744599 6.875 2.3125 C8 4 8 4 7.6875 6.1875 C7.460625 6.785625 7.23375 7.38375 7 8 C5.76302083 6.50260417 4.52604167 5.00520833 3.2890625 3.5078125 C2.24749008 2.28948839 1.13339903 1.13339903 0 0 Z " fill="#283F61" transform="translate(272,147)"/>
<path d="M0 0 C0.66 0.66 1.32 1.32 2 2 C2.66 1.34 3.32 0.68 4 0 C4.33 2.64 4.66 5.28 5 8 C4.01 7.67 3.02 7.34 2 7 C2 6.01 2 5.02 2 4 C1.34 4 0.68 4 0 4 C0 2.68 0 1.36 0 0 Z " fill="#0E2D58" transform="translate(142,136)"/>
<path d="M0 0 C0 0.66 0 1.32 0 2 C-0.66 2 -1.32 2 -2 2 C-2 3.32 -2 4.64 -2 6 C-2.99 6.33 -3.98 6.66 -5 7 C-5.1875 4.625 -5.1875 4.625 -5 2 C-2 0 -2 0 0 0 Z " fill="#0D2A53" transform="translate(361,302)"/>
<path d="M0 0 C2.64752004 2.57784846 4.94432065 4.91648098 7 8 C6.01 8 5.02 8 4 8 C0 3.77142857 0 3.77142857 0 0 Z " fill="#1B3D65" transform="translate(318,297)"/>
<path d="M0 0 C0.89694794 3.58779175 1.08304117 6.34618837 1 10 C0.01 10.33 -0.98 10.66 -2 11 C-1.34 7.37 -0.68 3.74 0 0 Z " fill="#E22C1E" transform="translate(120,214)"/>
<path d="M0 0 C7.625 1.75 7.625 1.75 11 4 C9.4375 4.75 9.4375 4.75 7 5 C4.49713591 3.86915563 2.32992278 2.47860484 0 1 C0 0.67 0 0.34 0 0 Z " fill="#1A355C" transform="translate(170,213)"/>
<path d="M0 0 C4.52346473 2.26173236 5.05828666 3.53405933 7 8 C6.01 8.495 6.01 8.495 5 9 C3.35 6.03 1.7 3.06 0 0 Z " fill="#1A3C65" transform="translate(123,171)"/>
<path d="M0 0 C0.33 0 0.66 0 1 0 C3 6.625 3 6.625 3 10 C1.35 8.35 -0.3 6.7 -2 5 C-1.34 4.67 -0.68 4.34 0 4 C0 2.68 0 1.36 0 0 Z " fill="#253D63" transform="translate(232,106)"/>
<path d="M0 0 C0 0.66 0 1.32 0 2 C-2.70879335 3.35439668 -5.00933268 3.06501451 -8 3 C-8 2.34 -8 1.68 -8 1 C-5.10765685 0.17361624 -3.11257569 0 0 0 Z " fill="#19305B" transform="translate(274,407)"/>
<path d="M0 0 C0.99 0.33 1.98 0.66 3 1 C1.68 2.32 0.36 3.64 -1 5 C-1.99 4.67 -2.98 4.34 -4 4 C-2.68 2.68 -1.36 1.36 0 0 Z M-6 5 C-5.01 5.495 -5.01 5.495 -4 6 C-4.99 6.495 -4.99 6.495 -6 7 C-6 6.34 -6 5.68 -6 5 Z " fill="#F1F6F2" transform="translate(783,381)"/>
<path d="M0 0 C1.14926266 0.95421808 2.29430541 1.91352045 3.4375 2.875 C4.07558594 3.40867187 4.71367187 3.94234375 5.37109375 4.4921875 C7 6 7 6 8 8 C4.21479387 7.45925627 2.40822445 5.92427254 0 3 C0 2.01 0 1.02 0 0 Z " fill="#052950" transform="translate(147,357)"/>
<path d="M0 0 C0.66 0 1.32 0 2 0 C4.1875 2.75 4.1875 2.75 6 6 C5.61328125 8.203125 5.61328125 8.203125 5 10 C4.16121545 8.71186658 3.32913217 7.41936744 2.5 6.125 C2.0359375 5.40570313 1.571875 4.68640625 1.09375 3.9453125 C0 2 0 2 0 0 Z " fill="#E6EDEC" transform="translate(877,349)"/>
<path d="M0 0 C3.36720387 1.39332574 4.9859524 2.9789286 7 6 C4 6 4 6 1.8125 4.125 C0 2 0 2 0 0 Z " fill="#1D3D64" transform="translate(145,309)"/>
<path d="M0 0 C0.99 0 1.98 0 3 0 C3 2.31 3 4.62 3 7 C2.34 7 1.68 7 1 7 C0.67 4.69 0.34 2.38 0 0 Z " fill="#213C61" transform="translate(112,140)"/>
<path d="M0 0 C2.5 2.3125 2.5 2.3125 5 5 C5 5.99 5 6.98 5 8 C2.5 5.6875 2.5 5.6875 0 3 C0 2.01 0 1.02 0 0 Z " fill="#263C62" transform="translate(147,264)"/>
<path d="M0 0 C1.32 0.33 2.64 0.66 4 1 C3.25 2.9375 3.25 2.9375 2 5 C-0.125 5.75 -0.125 5.75 -2 6 C-1.34 4.02 -0.68 2.04 0 0 Z " fill="#5FB0C7" transform="translate(117,250)"/>
<path d="M0 0 C0.99 0.99 1.98 1.98 3 3 C2.01 3.495 2.01 3.495 1 4 C-0.13350534 6.01669827 -0.13350534 6.01669827 -1 8 C-1.93065133 5.39417629 -2.14917407 4.35801776 -1.0625 1.75 C-0.711875 1.1725 -0.36125 0.595 0 0 Z " fill="#092E54" transform="translate(640,225)"/>
<path d="M0 0 C1.65 1.65 3.3 3.3 5 5 C4.01 6.485 4.01 6.485 3 8 C0 3.375 0 3.375 0 0 Z " fill="#06729D" transform="translate(128,213)"/>
<path d="M0 0 C3.24208567 0.35049575 4.61527704 0.56221181 6.8125 3.0625 C7.204375 3.701875 7.59625 4.34125 8 5 C5 5 5 5 2.3125 2.5 C1.549375 1.675 0.78625 0.85 0 0 Z " fill="#314364" transform="translate(135,212)"/>
<path d="M0 0 C0.66 1.32 1.32 2.64 2 4 C0.35 5.32 -1.3 6.64 -3 8 C-2.37240135 5.07120629 -1.41377341 2.63904371 0 0 Z " fill="#F2F6F2" transform="translate(613,190)"/>
<path d="M0 0 C-0.33 0.66 -0.66 1.32 -1 2 C-4.375 2.125 -4.375 2.125 -8 2 C-8.66 1.34 -9.32 0.68 -10 0 C-6.7169902 -1.6415049 -3.57454967 -0.51888624 0 0 Z " fill="#38536F" transform="translate(194,178)"/>
<path d="M0 0 C0.33 0.99 0.66 1.98 1 3 C1.66 3 2.32 3 3 3 C3 3.66 3 4.32 3 5 C3.66 5.33 4.32 5.66 5 6 C3.35 6.66 1.7 7.32 0 8 C0 5.36 0 2.72 0 0 Z " fill="#193C62" transform="translate(145,141)"/>
</svg>
